<?xml version="1.0" encoding="UTF-8"?>
<svg xmlns="http://www.w3.org/2000/svg" xmlns:xlink="http://www.w3.org/1999/xlink" width="92.619pt" height="22.143pt" viewBox="0 0 92.619 22.143" version="1.2">
<defs>
<clipPath id="clip1">
  <path d="M 1.542969 0 L 90.710938 0 L 90.710938 21.316406 L 1.542969 21.316406 Z M 1.542969 0 "/>
</clipPath>
<clipPath id="clip2">
  <path d="M 1.542969 8 L 15 8 L 15 21.316406 L 1.542969 21.316406 Z M 1.542969 8 "/>
</clipPath>
<clipPath id="clip3">
  <path d="M 50 8 L 69 8 L 69 21.316406 L 50 21.316406 Z M 50 8 "/>
</clipPath>
<clipPath id="clip4">
  <path d="M 77 0 L 90.710938 0 L 90.710938 14 L 77 14 Z M 77 0 "/>
</clipPath>
</defs>
<g id="surface1">
<g clip-path="url(#clip1)" clip-rule="nonzero">
<path style="fill:none;stroke-width:0.3985;stroke-linecap:butt;stroke-linejoin:miter;stroke:rgb(0%,0%,0%);stroke-opacity:1;stroke-miterlimit:10;" d="M 0.00051365 0.000985086 L 28.345744 14.1736 L 56.695032 0.000985086 L 85.040262 14.1736 " transform="matrix(0.962739,0,0,-0.962739,5.190912,17.481417)"/>
</g>
<g clip-path="url(#clip2)" clip-rule="nonzero">
<path style="fill:none;stroke-width:0.3985;stroke-linecap:butt;stroke-linejoin:miter;stroke:rgb(0%,0%,0%);stroke-opacity:1;stroke-miterlimit:10;" d="M 0.00051365 -3.983415 L 0.00051365 3.985385 M -3.789129 -1.232475 L 3.790157 1.230387 M -2.340625 3.222587 L 2.341653 -3.224675 M 2.341653 3.222587 L -2.340625 -3.224675 M 3.790157 -1.232475 L -3.789129 1.230387 " transform="matrix(0.962739,0,0,-0.962739,5.190912,17.481417)"/>
<path style="fill:none;stroke-width:0.3985;stroke-linecap:butt;stroke-linejoin:miter;stroke:rgb(0%,0%,0%);stroke-opacity:1;stroke-miterlimit:10;" d="M 0.00051365 -3.983415 L 0.00051365 3.985385 M -3.789129 -1.232475 L 3.790157 1.230387 M -2.340625 3.222587 L 2.341653 -3.224675 M 2.341653 3.222587 L -2.340625 -3.224675 M 3.790157 -1.232475 L -3.789129 1.230387 " transform="matrix(0.962739,0,0,-0.962739,5.190912,17.481417)"/>
<path style="fill:none;stroke-width:0.3985;stroke-linecap:butt;stroke-linejoin:miter;stroke:rgb(0%,0%,0%);stroke-opacity:1;stroke-miterlimit:10;" d="M 0.00051365 -3.983415 L 0.00051365 3.985385 M -3.789129 -1.232475 L 3.790157 1.230387 M -2.340625 3.222587 L 2.341653 -3.224675 M 2.341653 3.222587 L -2.340625 -3.224675 M 3.790157 -1.232475 L -3.789129 1.230387 " transform="matrix(0.962739,0,0,-0.962739,5.190912,17.481417)"/>
<path style="fill:none;stroke-width:0.3985;stroke-linecap:butt;stroke-linejoin:miter;stroke:rgb(0%,0%,0%);stroke-opacity:1;stroke-miterlimit:10;" d="M 0.00051365 -3.983415 L 0.00051365 3.985385 M -3.789129 -1.232475 L 3.790157 1.230387 M -2.340625 3.222587 L 2.341653 -3.224675 M 2.341653 3.222587 L -2.340625 -3.224675 M 3.790157 -1.232475 L -3.789129 1.230387 " transform="matrix(0.962739,0,0,-0.962739,5.190912,17.481417)"/>
<path style="fill:none;stroke-width:0.3985;stroke-linecap:butt;stroke-linejoin:miter;stroke:rgb(0%,0%,0%);stroke-opacity:1;stroke-miterlimit:10;" d="M 0.00051365 -3.983415 L 0.00051365 3.985385 M -3.789129 -1.232475 L 3.790157 1.230387 M -2.340625 3.222587 L 2.341653 -3.224675 M 2.341653 3.222587 L -2.340625 -3.224675 M 3.790157 -1.232475 L -3.789129 1.230387 " transform="matrix(0.962739,0,0,-0.962739,5.190912,17.481417)"/>
<path style="fill:none;stroke-width:0.3985;stroke-linecap:butt;stroke-linejoin:miter;stroke:rgb(0%,0%,0%);stroke-opacity:1;stroke-miterlimit:10;" d="M 0.00051365 -3.983415 L 0.00051365 3.985385 M -3.789129 -1.232475 L 3.790157 1.230387 M -2.340625 3.222587 L 2.341653 -3.224675 M 2.341653 3.222587 L -2.340625 -3.224675 M 3.790157 -1.232475 L -3.789129 1.230387 " transform="matrix(0.962739,0,0,-0.962739,5.190912,17.481417)"/>
<path style="fill:none;stroke-width:0.3985;stroke-linecap:butt;stroke-linejoin:miter;stroke:rgb(0%,0%,0%);stroke-opacity:1;stroke-miterlimit:10;" d="M 0.00051365 -3.983415 L 0.00051365 3.985385 M -3.789129 -1.232475 L 3.790157 1.230387 M -2.340625 3.222587 L 2.341653 -3.224675 M 2.341653 3.222587 L -2.340625 -3.224675 M 3.790157 -1.232475 L -3.789129 1.230387 " transform="matrix(0.962739,0,0,-0.962739,5.190912,17.481417)"/>
<path style="fill:none;stroke-width:0.3985;stroke-linecap:butt;stroke-linejoin:miter;stroke:rgb(0%,0%,0%);stroke-opacity:1;stroke-miterlimit:10;" d="M 0.00051365 -3.983415 L 0.00051365 3.985385 M -3.789129 -1.232475 L 3.790157 1.230387 M -2.340625 3.222587 L 2.341653 -3.224675 M 2.341653 3.222587 L -2.340625 -3.224675 M 3.790157 -1.232475 L -3.789129 1.230387 " transform="matrix(0.962739,0,0,-0.962739,5.190912,17.481417)"/>
<path style="fill:none;stroke-width:0.3985;stroke-linecap:butt;stroke-linejoin:miter;stroke:rgb(0%,0%,0%);stroke-opacity:1;stroke-miterlimit:10;" d="M 0.00051365 -3.983415 L 0.00051365 3.985385 M -3.789129 -1.232475 L 3.790157 1.230387 M -2.340625 3.222587 L 2.341653 -3.224675 M 2.341653 3.222587 L -2.340625 -3.224675 M 3.790157 -1.232475 L -3.789129 1.230387 " transform="matrix(0.962739,0,0,-0.962739,5.190912,17.481417)"/>
<path style="fill:none;stroke-width:0.3985;stroke-linecap:butt;stroke-linejoin:miter;stroke:rgb(0%,0%,0%);stroke-opacity:1;stroke-miterlimit:10;" d="M 0.00051365 -3.983415 L 0.00051365 3.985385 M -3.789129 -1.232475 L 3.790157 1.230387 M -2.340625 3.222587 L 2.341653 -3.224675 M 2.341653 3.222587 L -2.340625 -3.224675 M 3.790157 -1.232475 L -3.789129 1.230387 " transform="matrix(0.962739,0,0,-0.962739,5.190912,17.481417)"/>
<path style="fill:none;stroke-width:0.3985;stroke-linecap:butt;stroke-linejoin:miter;stroke:rgb(0%,0%,0%);stroke-opacity:1;stroke-miterlimit:10;" d="M 0.00051365 -3.983415 L 0.00051365 3.985385 M -3.789129 -1.232475 L 3.790157 1.230387 M -2.340625 3.222587 L 2.341653 -3.224675 M 2.341653 3.222587 L -2.340625 -3.224675 M 3.790157 -1.232475 L -3.789129 1.230387 " transform="matrix(0.962739,0,0,-0.962739,5.190912,17.481417)"/>
<path style="fill:none;stroke-width:0.3985;stroke-linecap:butt;stroke-linejoin:miter;stroke:rgb(0%,0%,0%);stroke-opacity:1;stroke-miterlimit:10;" d="M 0.00051365 -3.983415 L 0.00051365 3.985385 M -3.789129 -1.232475 L 3.790157 1.230387 M -2.340625 3.222587 L 2.341653 -3.224675 M 2.341653 3.222587 L -2.340625 -3.224675 M 3.790157 -1.232475 L -3.789129 1.230387 " transform="matrix(0.962739,0,0,-0.962739,5.190912,17.481417)"/>
<path style="fill:none;stroke-width:0.3985;stroke-linecap:butt;stroke-linejoin:miter;stroke:rgb(0%,0%,0%);stroke-opacity:1;stroke-miterlimit:10;" d="M 0.00051365 -3.983415 L 0.00051365 3.985385 M -3.789129 -1.232475 L 3.790157 1.230387 M -2.340625 3.222587 L 2.341653 -3.224675 M 2.341653 3.222587 L -2.340625 -3.224675 M 3.790157 -1.232475 L -3.789129 1.230387 " transform="matrix(0.962739,0,0,-0.962739,5.190912,17.481417)"/>
<path style="fill:none;stroke-width:0.3985;stroke-linecap:butt;stroke-linejoin:miter;stroke:rgb(0%,0%,0%);stroke-opacity:1;stroke-miterlimit:10;" d="M 0.00051365 -3.983415 L 0.00051365 3.985385 M -3.789129 -1.232475 L 3.790157 1.230387 M -2.340625 3.222587 L 2.341653 -3.224675 M 2.341653 3.222587 L -2.340625 -3.224675 M 3.790157 -1.232475 L -3.789129 1.230387 " transform="matrix(0.962739,0,0,-0.962739,5.190912,17.481417)"/>
<path style="fill:none;stroke-width:0.3985;stroke-linecap:butt;stroke-linejoin:miter;stroke:rgb(0%,0%,0%);stroke-opacity:1;stroke-miterlimit:10;" d="M 0.00051365 -3.983415 L 0.00051365 3.985385 M -3.789129 -1.232475 L 3.790157 1.230387 M -2.340625 3.222587 L 2.341653 -3.224675 M 2.341653 3.222587 L -2.340625 -3.224675 M 3.790157 -1.232475 L -3.789129 1.230387 " transform="matrix(0.962739,0,0,-0.962739,5.190912,17.481417)"/>
<path style="fill:none;stroke-width:0.3985;stroke-linecap:butt;stroke-linejoin:miter;stroke:rgb(0%,0%,0%);stroke-opacity:1;stroke-miterlimit:10;" d="M 0.00051365 -3.983415 L 0.00051365 3.985385 M -3.789129 -1.232475 L 3.790157 1.230387 M -2.340625 3.222587 L 2.341653 -3.224675 M 2.341653 3.222587 L -2.340625 -3.224675 M 3.790157 -1.232475 L -3.789129 1.230387 " transform="matrix(0.962739,0,0,-0.962739,5.190912,17.481417)"/>
<path style="fill:none;stroke-width:0.3985;stroke-linecap:butt;stroke-linejoin:miter;stroke:rgb(0%,0%,0%);stroke-opacity:1;stroke-miterlimit:10;" d="M 0.00051365 -3.983415 L 0.00051365 3.985385 M -3.789129 -1.232475 L 3.790157 1.230387 M -2.340625 3.222587 L 2.341653 -3.224675 M 2.341653 3.222587 L -2.340625 -3.224675 M 3.790157 -1.232475 L -3.789129 1.230387 " transform="matrix(0.962739,0,0,-0.962739,5.190912,17.481417)"/>
<path style="fill:none;stroke-width:0.3985;stroke-linecap:butt;stroke-linejoin:miter;stroke:rgb(0%,0%,0%);stroke-opacity:1;stroke-miterlimit:10;" d="M 0.00051365 -3.983415 L 0.00051365 3.985385 M -3.789129 -1.232475 L 3.790157 1.230387 M -2.340625 3.222587 L 2.341653 -3.224675 M 2.341653 3.222587 L -2.340625 -3.224675 M 3.790157 -1.232475 L -3.789129 1.230387 " transform="matrix(0.962739,0,0,-0.962739,5.190912,17.481417)"/>
<path style="fill:none;stroke-width:0.3985;stroke-linecap:butt;stroke-linejoin:miter;stroke:rgb(0%,0%,0%);stroke-opacity:1;stroke-miterlimit:10;" d="M 0.00051365 -3.983415 L 0.00051365 3.985385 M -3.789129 -1.232475 L 3.790157 1.230387 M -2.340625 3.222587 L 2.341653 -3.224675 M 2.341653 3.222587 L -2.340625 -3.224675 M 3.790157 -1.232475 L -3.789129 1.230387 " transform="matrix(0.962739,0,0,-0.962739,5.190912,17.481417)"/>
<path style="fill:none;stroke-width:0.3985;stroke-linecap:butt;stroke-linejoin:miter;stroke:rgb(0%,0%,0%);stroke-opacity:1;stroke-miterlimit:10;" d="M 0.00051365 -3.983415 L 0.00051365 3.985385 M -3.789129 -1.232475 L 3.790157 1.230387 M -2.340625 3.222587 L 2.341653 -3.224675 M 2.341653 3.222587 L -2.340625 -3.224675 M 3.790157 -1.232475 L -3.789129 1.230387 " transform="matrix(0.962739,0,0,-0.962739,5.190912,17.481417)"/>
<path style="fill:none;stroke-width:0.3985;stroke-linecap:butt;stroke-linejoin:miter;stroke:rgb(0%,0%,0%);stroke-opacity:1;stroke-miterlimit:10;" d="M 0.00051365 -3.983415 L 0.00051365 3.985385 M -3.789129 -1.232475 L 3.790157 1.230387 M -2.340625 3.222587 L 2.341653 -3.224675 M 2.341653 3.222587 L -2.340625 -3.224675 M 3.790157 -1.232475 L -3.789129 1.230387 " transform="matrix(0.962739,0,0,-0.962739,5.190912,17.481417)"/>
<path style="fill:none;stroke-width:0.3985;stroke-linecap:butt;stroke-linejoin:miter;stroke:rgb(0%,0%,0%);stroke-opacity:1;stroke-miterlimit:10;" d="M 0.00051365 -3.983415 L 0.00051365 3.985385 M -3.789129 -1.232475 L 3.790157 1.230387 M -2.340625 3.222587 L 2.341653 -3.224675 M 2.341653 3.222587 L -2.340625 -3.224675 M 3.790157 -1.232475 L -3.789129 1.230387 " transform="matrix(0.962739,0,0,-0.962739,5.190912,17.481417)"/>
<path style="fill:none;stroke-width:0.3985;stroke-linecap:butt;stroke-linejoin:miter;stroke:rgb(0%,0%,0%);stroke-opacity:1;stroke-miterlimit:10;" d="M 0.00051365 -3.983415 L 0.00051365 3.985385 M -3.789129 -1.232475 L 3.790157 1.230387 M -2.340625 3.222587 L 2.341653 -3.224675 M 2.341653 3.222587 L -2.340625 -3.224675 M 3.790157 -1.232475 L -3.789129 1.230387 " transform="matrix(0.962739,0,0,-0.962739,5.190912,17.481417)"/>
<path style="fill:none;stroke-width:0.3985;stroke-linecap:butt;stroke-linejoin:miter;stroke:rgb(0%,0%,0%);stroke-opacity:1;stroke-miterlimit:10;" d="M 0.00051365 -3.983415 L 0.00051365 3.985385 M -3.789129 -1.232475 L 3.790157 1.230387 M -2.340625 3.222587 L 2.341653 -3.224675 M 2.341653 3.222587 L -2.340625 -3.224675 M 3.790157 -1.232475 L -3.789129 1.230387 " transform="matrix(0.962739,0,0,-0.962739,5.190912,17.481417)"/>
</g>
<path style="fill:none;stroke-width:0.3985;stroke-linecap:butt;stroke-linejoin:miter;stroke:rgb(0%,0%,0%);stroke-opacity:1;stroke-miterlimit:10;" d="M 28.345744 10.189201 L 28.345744 18.158 M 24.556101 12.940141 L 32.135387 15.403003 M 26.004605 17.39926 L 30.690941 10.947941 M 30.690941 17.39926 L 26.004605 10.947941 M 32.135387 12.940141 L 24.556101 15.403003 " transform="matrix(0.962739,0,0,-0.962739,5.190912,17.481417)"/>
<path style="fill:none;stroke-width:0.3985;stroke-linecap:butt;stroke-linejoin:miter;stroke:rgb(0%,0%,0%);stroke-opacity:1;stroke-miterlimit:10;" d="M 28.345744 10.189201 L 28.345744 18.158 M 24.556101 12.940141 L 32.135387 15.403003 M 26.004605 17.39926 L 30.690941 10.947941 M 30.690941 17.39926 L 26.004605 10.947941 M 32.135387 12.940141 L 24.556101 15.403003 " transform="matrix(0.962739,0,0,-0.962739,5.190912,17.481417)"/>
<path style="fill:none;stroke-width:0.3985;stroke-linecap:butt;stroke-linejoin:miter;stroke:rgb(0%,0%,0%);stroke-opacity:1;stroke-miterlimit:10;" d="M 28.345744 10.189201 L 28.345744 18.158 M 24.556101 12.940141 L 32.135387 15.403003 M 26.004605 17.39926 L 30.690941 10.947941 M 30.690941 17.39926 L 26.004605 10.947941 M 32.135387 12.940141 L 24.556101 15.403003 " transform="matrix(0.962739,0,0,-0.962739,5.190912,17.481417)"/>
<path style="fill:none;stroke-width:0.3985;stroke-linecap:butt;stroke-linejoin:miter;stroke:rgb(0%,0%,0%);stroke-opacity:1;stroke-miterlimit:10;" d="M 28.345744 10.189201 L 28.345744 18.158 M 24.556101 12.940141 L 32.135387 15.403003 M 26.004605 17.39926 L 30.690941 10.947941 M 30.690941 17.39926 L 26.004605 10.947941 M 32.135387 12.940141 L 24.556101 15.403003 " transform="matrix(0.962739,0,0,-0.962739,5.190912,17.481417)"/>
<path style="fill:none;stroke-width:0.3985;stroke-linecap:butt;stroke-linejoin:miter;stroke:rgb(0%,0%,0%);stroke-opacity:1;stroke-miterlimit:10;" d="M 28.345744 10.189201 L 28.345744 18.158 M 24.556101 12.940141 L 32.135387 15.403003 M 26.004605 17.39926 L 30.690941 10.947941 M 30.690941 17.39926 L 26.004605 10.947941 M 32.135387 12.940141 L 24.556101 15.403003 " transform="matrix(0.962739,0,0,-0.962739,5.190912,17.481417)"/>
<path style="fill:none;stroke-width:0.3985;stroke-linecap:butt;stroke-linejoin:miter;stroke:rgb(0%,0%,0%);stroke-opacity:1;stroke-miterlimit:10;" d="M 28.345744 10.189201 L 28.345744 18.158 M 24.556101 12.940141 L 32.135387 15.403003 M 26.004605 17.39926 L 30.690941 10.947941 M 30.690941 17.39926 L 26.004605 10.947941 M 32.135387 12.940141 L 24.556101 15.403003 " transform="matrix(0.962739,0,0,-0.962739,5.190912,17.481417)"/>
<path style="fill:none;stroke-width:0.3985;stroke-linecap:butt;stroke-linejoin:miter;stroke:rgb(0%,0%,0%);stroke-opacity:1;stroke-miterlimit:10;" d="M 28.345744 10.189201 L 28.345744 18.158 M 24.556101 12.940141 L 32.135387 15.403003 M 26.004605 17.39926 L 30.690941 10.947941 M 30.690941 17.39926 L 26.004605 10.947941 M 32.135387 12.940141 L 24.556101 15.403003 " transform="matrix(0.962739,0,0,-0.962739,5.190912,17.481417)"/>
<path style="fill:none;stroke-width:0.3985;stroke-linecap:butt;stroke-linejoin:miter;stroke:rgb(0%,0%,0%);stroke-opacity:1;stroke-miterlimit:10;" d="M 28.345744 10.189201 L 28.345744 18.158 M 24.556101 12.940141 L 32.135387 15.403003 M 26.004605 17.39926 L 30.690941 10.947941 M 30.690941 17.39926 L 26.004605 10.947941 M 32.135387 12.940141 L 24.556101 15.403003 " transform="matrix(0.962739,0,0,-0.962739,5.190912,17.481417)"/>
<path style="fill:none;stroke-width:0.3985;stroke-linecap:butt;stroke-linejoin:miter;stroke:rgb(0%,0%,0%);stroke-opacity:1;stroke-miterlimit:10;" d="M 28.345744 10.189201 L 28.345744 18.158 M 24.556101 12.940141 L 32.135387 15.403003 M 26.004605 17.39926 L 30.690941 10.947941 M 30.690941 17.39926 L 26.004605 10.947941 M 32.135387 12.940141 L 24.556101 15.403003 " transform="matrix(0.962739,0,0,-0.962739,5.190912,17.481417)"/>
<path style="fill:none;stroke-width:0.3985;stroke-linecap:butt;stroke-linejoin:miter;stroke:rgb(0%,0%,0%);stroke-opacity:1;stroke-miterlimit:10;" d="M 28.345744 10.189201 L 28.345744 18.158 M 24.556101 12.940141 L 32.135387 15.403003 M 26.004605 17.39926 L 30.690941 10.947941 M 30.690941 17.39926 L 26.004605 10.947941 M 32.135387 12.940141 L 24.556101 15.403003 " transform="matrix(0.962739,0,0,-0.962739,5.190912,17.481417)"/>
<path style="fill:none;stroke-width:0.3985;stroke-linecap:butt;stroke-linejoin:miter;stroke:rgb(0%,0%,0%);stroke-opacity:1;stroke-miterlimit:10;" d="M 28.345744 10.189201 L 28.345744 18.158 M 24.556101 12.940141 L 32.135387 15.403003 M 26.004605 17.39926 L 30.690941 10.947941 M 30.690941 17.39926 L 26.004605 10.947941 M 32.135387 12.940141 L 24.556101 15.403003 " transform="matrix(0.962739,0,0,-0.962739,5.190912,17.481417)"/>
<path style="fill:none;stroke-width:0.3985;stroke-linecap:butt;stroke-linejoin:miter;stroke:rgb(0%,0%,0%);stroke-opacity:1;stroke-miterlimit:10;" d="M 28.345744 10.189201 L 28.345744 18.158 M 24.556101 12.940141 L 32.135387 15.403003 M 26.004605 17.39926 L 30.690941 10.947941 M 30.690941 17.39926 L 26.004605 10.947941 M 32.135387 12.940141 L 24.556101 15.403003 " transform="matrix(0.962739,0,0,-0.962739,5.190912,17.481417)"/>
<path style="fill:none;stroke-width:0.3985;stroke-linecap:butt;stroke-linejoin:miter;stroke:rgb(0%,0%,0%);stroke-opacity:1;stroke-miterlimit:10;" d="M 28.345744 10.189201 L 28.345744 18.158 M 24.556101 12.940141 L 32.135387 15.403003 M 26.004605 17.39926 L 30.690941 10.947941 M 30.690941 17.39926 L 26.004605 10.947941 M 32.135387 12.940141 L 24.556101 15.403003 " transform="matrix(0.962739,0,0,-0.962739,5.190912,17.481417)"/>
<path style="fill:none;stroke-width:0.3985;stroke-linecap:butt;stroke-linejoin:miter;stroke:rgb(0%,0%,0%);stroke-opacity:1;stroke-miterlimit:10;" d="M 28.345744 10.189201 L 28.345744 18.158 M 24.556101 12.940141 L 32.135387 15.403003 M 26.004605 17.39926 L 30.690941 10.947941 M 30.690941 17.39926 L 26.004605 10.947941 M 32.135387 12.940141 L 24.556101 15.403003 " transform="matrix(0.962739,0,0,-0.962739,5.190912,17.481417)"/>
<path style="fill:none;stroke-width:0.3985;stroke-linecap:butt;stroke-linejoin:miter;stroke:rgb(0%,0%,0%);stroke-opacity:1;stroke-miterlimit:10;" d="M 28.345744 10.189201 L 28.345744 18.158 M 24.556101 12.940141 L 32.135387 15.403003 M 26.004605 17.39926 L 30.690941 10.947941 M 30.690941 17.39926 L 26.004605 10.947941 M 32.135387 12.940141 L 24.556101 15.403003 " transform="matrix(0.962739,0,0,-0.962739,5.190912,17.481417)"/>
<path style="fill:none;stroke-width:0.3985;stroke-linecap:butt;stroke-linejoin:miter;stroke:rgb(0%,0%,0%);stroke-opacity:1;stroke-miterlimit:10;" d="M 28.345744 10.189201 L 28.345744 18.158 M 24.556101 12.940141 L 32.135387 15.403003 M 26.004605 17.39926 L 30.690941 10.947941 M 30.690941 17.39926 L 26.004605 10.947941 M 32.135387 12.940141 L 24.556101 15.403003 " transform="matrix(0.962739,0,0,-0.962739,5.190912,17.481417)"/>
<path style="fill:none;stroke-width:0.3985;stroke-linecap:butt;stroke-linejoin:miter;stroke:rgb(0%,0%,0%);stroke-opacity:1;stroke-miterlimit:10;" d="M 28.345744 10.189201 L 28.345744 18.158 M 24.556101 12.940141 L 32.135387 15.403003 M 26.004605 17.39926 L 30.690941 10.947941 M 30.690941 17.39926 L 26.004605 10.947941 M 32.135387 12.940141 L 24.556101 15.403003 " transform="matrix(0.962739,0,0,-0.962739,5.190912,17.481417)"/>
<path style="fill:none;stroke-width:0.3985;stroke-linecap:butt;stroke-linejoin:miter;stroke:rgb(0%,0%,0%);stroke-opacity:1;stroke-miterlimit:10;" d="M 28.345744 10.189201 L 28.345744 18.158 M 24.556101 12.940141 L 32.135387 15.403003 M 26.004605 17.39926 L 30.690941 10.947941 M 30.690941 17.39926 L 26.004605 10.947941 M 32.135387 12.940141 L 24.556101 15.403003 " transform="matrix(0.962739,0,0,-0.962739,5.190912,17.481417)"/>
<path style="fill:none;stroke-width:0.3985;stroke-linecap:butt;stroke-linejoin:miter;stroke:rgb(0%,0%,0%);stroke-opacity:1;stroke-miterlimit:10;" d="M 28.345744 10.189201 L 28.345744 18.158 M 24.556101 12.940141 L 32.135387 15.403003 M 26.004605 17.39926 L 30.690941 10.947941 M 30.690941 17.39926 L 26.004605 10.947941 M 32.135387 12.940141 L 24.556101 15.403003 " transform="matrix(0.962739,0,0,-0.962739,5.190912,17.481417)"/>
<path style="fill:none;stroke-width:0.3985;stroke-linecap:butt;stroke-linejoin:miter;stroke:rgb(0%,0%,0%);stroke-opacity:1;stroke-miterlimit:10;" d="M 28.345744 10.189201 L 28.345744 18.158 M 24.556101 12.940141 L 32.135387 15.403003 M 26.004605 17.39926 L 30.690941 10.947941 M 30.690941 17.39926 L 26.004605 10.947941 M 32.135387 12.940141 L 24.556101 15.403003 " transform="matrix(0.962739,0,0,-0.962739,5.190912,17.481417)"/>
<path style="fill:none;stroke-width:0.3985;stroke-linecap:butt;stroke-linejoin:miter;stroke:rgb(0%,0%,0%);stroke-opacity:1;stroke-miterlimit:10;" d="M 28.345744 10.189201 L 28.345744 18.158 M 24.556101 12.940141 L 32.135387 15.403003 M 26.004605 17.39926 L 30.690941 10.947941 M 30.690941 17.39926 L 26.004605 10.947941 M 32.135387 12.940141 L 24.556101 15.403003 " transform="matrix(0.962739,0,0,-0.962739,5.190912,17.481417)"/>
<path style="fill:none;stroke-width:0.3985;stroke-linecap:butt;stroke-linejoin:miter;stroke:rgb(0%,0%,0%);stroke-opacity:1;stroke-miterlimit:10;" d="M 28.345744 10.189201 L 28.345744 18.158 M 24.556101 12.940141 L 32.135387 15.403003 M 26.004605 17.39926 L 30.690941 10.947941 M 30.690941 17.39926 L 26.004605 10.947941 M 32.135387 12.940141 L 24.556101 15.403003 " transform="matrix(0.962739,0,0,-0.962739,5.190912,17.481417)"/>
<path style="fill:none;stroke-width:0.3985;stroke-linecap:butt;stroke-linejoin:miter;stroke:rgb(0%,0%,0%);stroke-opacity:1;stroke-miterlimit:10;" d="M 28.345744 10.189201 L 28.345744 18.158 M 24.556101 12.940141 L 32.135387 15.403003 M 26.004605 17.39926 L 30.690941 10.947941 M 30.690941 17.39926 L 26.004605 10.947941 M 32.135387 12.940141 L 24.556101 15.403003 " transform="matrix(0.962739,0,0,-0.962739,5.190912,17.481417)"/>
<path style="fill:none;stroke-width:0.3985;stroke-linecap:butt;stroke-linejoin:miter;stroke:rgb(0%,0%,0%);stroke-opacity:1;stroke-miterlimit:10;" d="M 28.345744 10.189201 L 28.345744 18.158 M 24.556101 12.940141 L 32.135387 15.403003 M 26.004605 17.39926 L 30.690941 10.947941 M 30.690941 17.39926 L 26.004605 10.947941 M 32.135387 12.940141 L 24.556101 15.403003 " transform="matrix(0.962739,0,0,-0.962739,5.190912,17.481417)"/>
<g clip-path="url(#clip3)" clip-rule="nonzero">
<path style="fill:none;stroke-width:0.3985;stroke-linecap:butt;stroke-linejoin:miter;stroke:rgb(0%,0%,0%);stroke-opacity:1;stroke-miterlimit:10;" d="M 56.695032 -3.983415 L 56.695032 3.985385 M 52.905389 -1.232475 L 60.484675 1.230387 M 54.349835 3.222587 L 59.036171 -3.224675 M 59.036171 3.222587 L 54.349835 -3.224675 M 60.484675 -1.232475 L 52.905389 1.230387 " transform="matrix(0.962739,0,0,-0.962739,5.190912,17.481417)"/>
<path style="fill:none;stroke-width:0.3985;stroke-linecap:butt;stroke-linejoin:miter;stroke:rgb(0%,0%,0%);stroke-opacity:1;stroke-miterlimit:10;" d="M 56.695032 -3.983415 L 56.695032 3.985385 M 52.905389 -1.232475 L 60.484675 1.230387 M 54.349835 3.222587 L 59.036171 -3.224675 M 59.036171 3.222587 L 54.349835 -3.224675 M 60.484675 -1.232475 L 52.905389 1.230387 " transform="matrix(0.962739,0,0,-0.962739,5.190912,17.481417)"/>
<path style="fill:none;stroke-width:0.3985;stroke-linecap:butt;stroke-linejoin:miter;stroke:rgb(0%,0%,0%);stroke-opacity:1;stroke-miterlimit:10;" d="M 56.695032 -3.983415 L 56.695032 3.985385 M 52.905389 -1.232475 L 60.484675 1.230387 M 54.349835 3.222587 L 59.036171 -3.224675 M 59.036171 3.222587 L 54.349835 -3.224675 M 60.484675 -1.232475 L 52.905389 1.230387 " transform="matrix(0.962739,0,0,-0.962739,5.190912,17.481417)"/>
<path style="fill:none;stroke-width:0.3985;stroke-linecap:butt;stroke-linejoin:miter;stroke:rgb(0%,0%,0%);stroke-opacity:1;stroke-miterlimit:10;" d="M 56.695032 -3.983415 L 56.695032 3.985385 M 52.905389 -1.232475 L 60.484675 1.230387 M 54.349835 3.222587 L 59.036171 -3.224675 M 59.036171 3.222587 L 54.349835 -3.224675 M 60.484675 -1.232475 L 52.905389 1.230387 " transform="matrix(0.962739,0,0,-0.962739,5.190912,17.481417)"/>
<path style="fill:none;stroke-width:0.3985;stroke-linecap:butt;stroke-linejoin:miter;stroke:rgb(0%,0%,0%);stroke-opacity:1;stroke-miterlimit:10;" d="M 56.695032 -3.983415 L 56.695032 3.985385 M 52.905389 -1.232475 L 60.484675 1.230387 M 54.349835 3.222587 L 59.036171 -3.224675 M 59.036171 3.222587 L 54.349835 -3.224675 M 60.484675 -1.232475 L 52.905389 1.230387 " transform="matrix(0.962739,0,0,-0.962739,5.190912,17.481417)"/>
<path style="fill:none;stroke-width:0.3985;stroke-linecap:butt;stroke-linejoin:miter;stroke:rgb(0%,0%,0%);stroke-opacity:1;stroke-miterlimit:10;" d="M 56.695032 -3.983415 L 56.695032 3.985385 M 52.905389 -1.232475 L 60.484675 1.230387 M 54.349835 3.222587 L 59.036171 -3.224675 M 59.036171 3.222587 L 54.349835 -3.224675 M 60.484675 -1.232475 L 52.905389 1.230387 " transform="matrix(0.962739,0,0,-0.962739,5.190912,17.481417)"/>
<path style="fill:none;stroke-width:0.3985;stroke-linecap:butt;stroke-linejoin:miter;stroke:rgb(0%,0%,0%);stroke-opacity:1;stroke-miterlimit:10;" d="M 56.695032 -3.983415 L 56.695032 3.985385 M 52.905389 -1.232475 L 60.484675 1.230387 M 54.349835 3.222587 L 59.036171 -3.224675 M 59.036171 3.222587 L 54.349835 -3.224675 M 60.484675 -1.232475 L 52.905389 1.230387 " transform="matrix(0.962739,0,0,-0.962739,5.190912,17.481417)"/>
<path style="fill:none;stroke-width:0.3985;stroke-linecap:butt;stroke-linejoin:miter;stroke:rgb(0%,0%,0%);stroke-opacity:1;stroke-miterlimit:10;" d="M 56.695032 -3.983415 L 56.695032 3.985385 M 52.905389 -1.232475 L 60.484675 1.230387 M 54.349835 3.222587 L 59.036171 -3.224675 M 59.036171 3.222587 L 54.349835 -3.224675 M 60.484675 -1.232475 L 52.905389 1.230387 " transform="matrix(0.962739,0,0,-0.962739,5.190912,17.481417)"/>
<path style="fill:none;stroke-width:0.3985;stroke-linecap:butt;stroke-linejoin:miter;stroke:rgb(0%,0%,0%);stroke-opacity:1;stroke-miterlimit:10;" d="M 56.695032 -3.983415 L 56.695032 3.985385 M 52.905389 -1.232475 L 60.484675 1.230387 M 54.349835 3.222587 L 59.036171 -3.224675 M 59.036171 3.222587 L 54.349835 -3.224675 M 60.484675 -1.232475 L 52.905389 1.230387 " transform="matrix(0.962739,0,0,-0.962739,5.190912,17.481417)"/>
<path style="fill:none;stroke-width:0.3985;stroke-linecap:butt;stroke-linejoin:miter;stroke:rgb(0%,0%,0%);stroke-opacity:1;stroke-miterlimit:10;" d="M 56.695032 -3.983415 L 56.695032 3.985385 M 52.905389 -1.232475 L 60.484675 1.230387 M 54.349835 3.222587 L 59.036171 -3.224675 M 59.036171 3.222587 L 54.349835 -3.224675 M 60.484675 -1.232475 L 52.905389 1.230387 " transform="matrix(0.962739,0,0,-0.962739,5.190912,17.481417)"/>
<path style="fill:none;stroke-width:0.3985;stroke-linecap:butt;stroke-linejoin:miter;stroke:rgb(0%,0%,0%);stroke-opacity:1;stroke-miterlimit:10;" d="M 56.695032 -3.983415 L 56.695032 3.985385 M 52.905389 -1.232475 L 60.484675 1.230387 M 54.349835 3.222587 L 59.036171 -3.224675 M 59.036171 3.222587 L 54.349835 -3.224675 M 60.484675 -1.232475 L 52.905389 1.230387 " transform="matrix(0.962739,0,0,-0.962739,5.190912,17.481417)"/>
<path style="fill:none;stroke-width:0.3985;stroke-linecap:butt;stroke-linejoin:miter;stroke:rgb(0%,0%,0%);stroke-opacity:1;stroke-miterlimit:10;" d="M 56.695032 -3.983415 L 56.695032 3.985385 M 52.905389 -1.232475 L 60.484675 1.230387 M 54.349835 3.222587 L 59.036171 -3.224675 M 59.036171 3.222587 L 54.349835 -3.224675 M 60.484675 -1.232475 L 52.905389 1.230387 " transform="matrix(0.962739,0,0,-0.962739,5.190912,17.481417)"/>
<path style="fill:none;stroke-width:0.3985;stroke-linecap:butt;stroke-linejoin:miter;stroke:rgb(0%,0%,0%);stroke-opacity:1;stroke-miterlimit:10;" d="M 56.695032 -3.983415 L 56.695032 3.985385 M 52.905389 -1.232475 L 60.484675 1.230387 M 54.349835 3.222587 L 59.036171 -3.224675 M 59.036171 3.222587 L 54.349835 -3.224675 M 60.484675 -1.232475 L 52.905389 1.230387 " transform="matrix(0.962739,0,0,-0.962739,5.190912,17.481417)"/>
<path style="fill:none;stroke-width:0.3985;stroke-linecap:butt;stroke-linejoin:miter;stroke:rgb(0%,0%,0%);stroke-opacity:1;stroke-miterlimit:10;" d="M 56.695032 -3.983415 L 56.695032 3.985385 M 52.905389 -1.232475 L 60.484675 1.230387 M 54.349835 3.222587 L 59.036171 -3.224675 M 59.036171 3.222587 L 54.349835 -3.224675 M 60.484675 -1.232475 L 52.905389 1.230387 " transform="matrix(0.962739,0,0,-0.962739,5.190912,17.481417)"/>
<path style="fill:none;stroke-width:0.3985;stroke-linecap:butt;stroke-linejoin:miter;stroke:rgb(0%,0%,0%);stroke-opacity:1;stroke-miterlimit:10;" d="M 56.695032 -3.983415 L 56.695032 3.985385 M 52.905389 -1.232475 L 60.484675 1.230387 M 54.349835 3.222587 L 59.036171 -3.224675 M 59.036171 3.222587 L 54.349835 -3.224675 M 60.484675 -1.232475 L 52.905389 1.230387 " transform="matrix(0.962739,0,0,-0.962739,5.190912,17.481417)"/>
<path style="fill:none;stroke-width:0.3985;stroke-linecap:butt;stroke-linejoin:miter;stroke:rgb(0%,0%,0%);stroke-opacity:1;stroke-miterlimit:10;" d="M 56.695032 -3.983415 L 56.695032 3.985385 M 52.905389 -1.232475 L 60.484675 1.230387 M 54.349835 3.222587 L 59.036171 -3.224675 M 59.036171 3.222587 L 54.349835 -3.224675 M 60.484675 -1.232475 L 52.905389 1.230387 " transform="matrix(0.962739,0,0,-0.962739,5.190912,17.481417)"/>
<path style="fill:none;stroke-width:0.3985;stroke-linecap:butt;stroke-linejoin:miter;stroke:rgb(0%,0%,0%);stroke-opacity:1;stroke-miterlimit:10;" d="M 56.695032 -3.983415 L 56.695032 3.985385 M 52.905389 -1.232475 L 60.484675 1.230387 M 54.349835 3.222587 L 59.036171 -3.224675 M 59.036171 3.222587 L 54.349835 -3.224675 M 60.484675 -1.232475 L 52.905389 1.230387 " transform="matrix(0.962739,0,0,-0.962739,5.190912,17.481417)"/>
<path style="fill:none;stroke-width:0.3985;stroke-linecap:butt;stroke-linejoin:miter;stroke:rgb(0%,0%,0%);stroke-opacity:1;stroke-miterlimit:10;" d="M 56.695032 -3.983415 L 56.695032 3.985385 M 52.905389 -1.232475 L 60.484675 1.230387 M 54.349835 3.222587 L 59.036171 -3.224675 M 59.036171 3.222587 L 54.349835 -3.224675 M 60.484675 -1.232475 L 52.905389 1.230387 " transform="matrix(0.962739,0,0,-0.962739,5.190912,17.481417)"/>
<path style="fill:none;stroke-width:0.3985;stroke-linecap:butt;stroke-linejoin:miter;stroke:rgb(0%,0%,0%);stroke-opacity:1;stroke-miterlimit:10;" d="M 56.695032 -3.983415 L 56.695032 3.985385 M 52.905389 -1.232475 L 60.484675 1.230387 M 54.349835 3.222587 L 59.036171 -3.224675 M 59.036171 3.222587 L 54.349835 -3.224675 M 60.484675 -1.232475 L 52.905389 1.230387 " transform="matrix(0.962739,0,0,-0.962739,5.190912,17.481417)"/>
<path style="fill:none;stroke-width:0.3985;stroke-linecap:butt;stroke-linejoin:miter;stroke:rgb(0%,0%,0%);stroke-opacity:1;stroke-miterlimit:10;" d="M 56.695032 -3.983415 L 56.695032 3.985385 M 52.905389 -1.232475 L 60.484675 1.230387 M 54.349835 3.222587 L 59.036171 -3.224675 M 59.036171 3.222587 L 54.349835 -3.224675 M 60.484675 -1.232475 L 52.905389 1.230387 " transform="matrix(0.962739,0,0,-0.962739,5.190912,17.481417)"/>
<path style="fill:none;stroke-width:0.3985;stroke-linecap:butt;stroke-linejoin:miter;stroke:rgb(0%,0%,0%);stroke-opacity:1;stroke-miterlimit:10;" d="M 56.695032 -3.983415 L 56.695032 3.985385 M 52.905389 -1.232475 L 60.484675 1.230387 M 54.349835 3.222587 L 59.036171 -3.224675 M 59.036171 3.222587 L 54.349835 -3.224675 M 60.484675 -1.232475 L 52.905389 1.230387 " transform="matrix(0.962739,0,0,-0.962739,5.190912,17.481417)"/>
<path style="fill:none;stroke-width:0.3985;stroke-linecap:butt;stroke-linejoin:miter;stroke:rgb(0%,0%,0%);stroke-opacity:1;stroke-miterlimit:10;" d="M 56.695032 -3.983415 L 56.695032 3.985385 M 52.905389 -1.232475 L 60.484675 1.230387 M 54.349835 3.222587 L 59.036171 -3.224675 M 59.036171 3.222587 L 54.349835 -3.224675 M 60.484675 -1.232475 L 52.905389 1.230387 " transform="matrix(0.962739,0,0,-0.962739,5.190912,17.481417)"/>
<path style="fill:none;stroke-width:0.3985;stroke-linecap:butt;stroke-linejoin:miter;stroke:rgb(0%,0%,0%);stroke-opacity:1;stroke-miterlimit:10;" d="M 56.695032 -3.983415 L 56.695032 3.985385 M 52.905389 -1.232475 L 60.484675 1.230387 M 54.349835 3.222587 L 59.036171 -3.224675 M 59.036171 3.222587 L 54.349835 -3.224675 M 60.484675 -1.232475 L 52.905389 1.230387 " transform="matrix(0.962739,0,0,-0.962739,5.190912,17.481417)"/>
<path style="fill:none;stroke-width:0.3985;stroke-linecap:butt;stroke-linejoin:miter;stroke:rgb(0%,0%,0%);stroke-opacity:1;stroke-miterlimit:10;" d="M 56.695032 -3.983415 L 56.695032 3.985385 M 52.905389 -1.232475 L 60.484675 1.230387 M 54.349835 3.222587 L 59.036171 -3.224675 M 59.036171 3.222587 L 54.349835 -3.224675 M 60.484675 -1.232475 L 52.905389 1.230387 " transform="matrix(0.962739,0,0,-0.962739,5.190912,17.481417)"/>
</g>
<g clip-path="url(#clip4)" clip-rule="nonzero">
<path style="fill:none;stroke-width:0.3985;stroke-linecap:butt;stroke-linejoin:miter;stroke:rgb(0%,0%,0%);stroke-opacity:1;stroke-miterlimit:10;" d="M 85.040262 10.189201 L 85.040262 18.158 M 81.250619 12.940141 L 88.829905 15.403003 M 82.699123 17.39926 L 87.381402 10.947941 M 87.381402 17.39926 L 82.699123 10.947941 M 88.829905 12.940141 L 81.250619 15.403003 " transform="matrix(0.962739,0,0,-0.962739,5.190912,17.481417)"/>
<path style="fill:none;stroke-width:0.3985;stroke-linecap:butt;stroke-linejoin:miter;stroke:rgb(0%,0%,0%);stroke-opacity:1;stroke-miterlimit:10;" d="M 85.040262 10.189201 L 85.040262 18.158 M 81.250619 12.940141 L 88.829905 15.403003 M 82.699123 17.39926 L 87.381402 10.947941 M 87.381402 17.39926 L 82.699123 10.947941 M 88.829905 12.940141 L 81.250619 15.403003 " transform="matrix(0.962739,0,0,-0.962739,5.190912,17.481417)"/>
<path style="fill:none;stroke-width:0.3985;stroke-linecap:butt;stroke-linejoin:miter;stroke:rgb(0%,0%,0%);stroke-opacity:1;stroke-miterlimit:10;" d="M 85.040262 10.189201 L 85.040262 18.158 M 81.250619 12.940141 L 88.829905 15.403003 M 82.699123 17.39926 L 87.381402 10.947941 M 87.381402 17.39926 L 82.699123 10.947941 M 88.829905 12.940141 L 81.250619 15.403003 " transform="matrix(0.962739,0,0,-0.962739,5.190912,17.481417)"/>
<path style="fill:none;stroke-width:0.3985;stroke-linecap:butt;stroke-linejoin:miter;stroke:rgb(0%,0%,0%);stroke-opacity:1;stroke-miterlimit:10;" d="M 85.040262 10.189201 L 85.040262 18.158 M 81.250619 12.940141 L 88.829905 15.403003 M 82.699123 17.39926 L 87.381402 10.947941 M 87.381402 17.39926 L 82.699123 10.947941 M 88.829905 12.940141 L 81.250619 15.403003 " transform="matrix(0.962739,0,0,-0.962739,5.190912,17.481417)"/>
<path style="fill:none;stroke-width:0.3985;stroke-linecap:butt;stroke-linejoin:miter;stroke:rgb(0%,0%,0%);stroke-opacity:1;stroke-miterlimit:10;" d="M 85.040262 10.189201 L 85.040262 18.158 M 81.250619 12.940141 L 88.829905 15.403003 M 82.699123 17.39926 L 87.381402 10.947941 M 87.381402 17.39926 L 82.699123 10.947941 M 88.829905 12.940141 L 81.250619 15.403003 " transform="matrix(0.962739,0,0,-0.962739,5.190912,17.481417)"/>
<path style="fill:none;stroke-width:0.3985;stroke-linecap:butt;stroke-linejoin:miter;stroke:rgb(0%,0%,0%);stroke-opacity:1;stroke-miterlimit:10;" d="M 85.040262 10.189201 L 85.040262 18.158 M 81.250619 12.940141 L 88.829905 15.403003 M 82.699123 17.39926 L 87.381402 10.947941 M 87.381402 17.39926 L 82.699123 10.947941 M 88.829905 12.940141 L 81.250619 15.403003 " transform="matrix(0.962739,0,0,-0.962739,5.190912,17.481417)"/>
<path style="fill:none;stroke-width:0.3985;stroke-linecap:butt;stroke-linejoin:miter;stroke:rgb(0%,0%,0%);stroke-opacity:1;stroke-miterlimit:10;" d="M 85.040262 10.189201 L 85.040262 18.158 M 81.250619 12.940141 L 88.829905 15.403003 M 82.699123 17.39926 L 87.381402 10.947941 M 87.381402 17.39926 L 82.699123 10.947941 M 88.829905 12.940141 L 81.250619 15.403003 " transform="matrix(0.962739,0,0,-0.962739,5.190912,17.481417)"/>
<path style="fill:none;stroke-width:0.3985;stroke-linecap:butt;stroke-linejoin:miter;stroke:rgb(0%,0%,0%);stroke-opacity:1;stroke-miterlimit:10;" d="M 85.040262 10.189201 L 85.040262 18.158 M 81.250619 12.940141 L 88.829905 15.403003 M 82.699123 17.39926 L 87.381402 10.947941 M 87.381402 17.39926 L 82.699123 10.947941 M 88.829905 12.940141 L 81.250619 15.403003 " transform="matrix(0.962739,0,0,-0.962739,5.190912,17.481417)"/>
<path style="fill:none;stroke-width:0.3985;stroke-linecap:butt;stroke-linejoin:miter;stroke:rgb(0%,0%,0%);stroke-opacity:1;stroke-miterlimit:10;" d="M 85.040262 10.189201 L 85.040262 18.158 M 81.250619 12.940141 L 88.829905 15.403003 M 82.699123 17.39926 L 87.381402 10.947941 M 87.381402 17.39926 L 82.699123 10.947941 M 88.829905 12.940141 L 81.250619 15.403003 " transform="matrix(0.962739,0,0,-0.962739,5.190912,17.481417)"/>
<path style="fill:none;stroke-width:0.3985;stroke-linecap:butt;stroke-linejoin:miter;stroke:rgb(0%,0%,0%);stroke-opacity:1;stroke-miterlimit:10;" d="M 85.040262 10.189201 L 85.040262 18.158 M 81.250619 12.940141 L 88.829905 15.403003 M 82.699123 17.39926 L 87.381402 10.947941 M 87.381402 17.39926 L 82.699123 10.947941 M 88.829905 12.940141 L 81.250619 15.403003 " transform="matrix(0.962739,0,0,-0.962739,5.190912,17.481417)"/>
<path style="fill:none;stroke-width:0.3985;stroke-linecap:butt;stroke-linejoin:miter;stroke:rgb(0%,0%,0%);stroke-opacity:1;stroke-miterlimit:10;" d="M 85.040262 10.189201 L 85.040262 18.158 M 81.250619 12.940141 L 88.829905 15.403003 M 82.699123 17.39926 L 87.381402 10.947941 M 87.381402 17.39926 L 82.699123 10.947941 M 88.829905 12.940141 L 81.250619 15.403003 " transform="matrix(0.962739,0,0,-0.962739,5.190912,17.481417)"/>
<path style="fill:none;stroke-width:0.3985;stroke-linecap:butt;stroke-linejoin:miter;stroke:rgb(0%,0%,0%);stroke-opacity:1;stroke-miterlimit:10;" d="M 85.040262 10.189201 L 85.040262 18.158 M 81.250619 12.940141 L 88.829905 15.403003 M 82.699123 17.39926 L 87.381402 10.947941 M 87.381402 17.39926 L 82.699123 10.947941 M 88.829905 12.940141 L 81.250619 15.403003 " transform="matrix(0.962739,0,0,-0.962739,5.190912,17.481417)"/>
<path style="fill:none;stroke-width:0.3985;stroke-linecap:butt;stroke-linejoin:miter;stroke:rgb(0%,0%,0%);stroke-opacity:1;stroke-miterlimit:10;" d="M 85.040262 10.189201 L 85.040262 18.158 M 81.250619 12.940141 L 88.829905 15.403003 M 82.699123 17.39926 L 87.381402 10.947941 M 87.381402 17.39926 L 82.699123 10.947941 M 88.829905 12.940141 L 81.250619 15.403003 " transform="matrix(0.962739,0,0,-0.962739,5.190912,17.481417)"/>
<path style="fill:none;stroke-width:0.3985;stroke-linecap:butt;stroke-linejoin:miter;stroke:rgb(0%,0%,0%);stroke-opacity:1;stroke-miterlimit:10;" d="M 85.040262 10.189201 L 85.040262 18.158 M 81.250619 12.940141 L 88.829905 15.403003 M 82.699123 17.39926 L 87.381402 10.947941 M 87.381402 17.39926 L 82.699123 10.947941 M 88.829905 12.940141 L 81.250619 15.403003 " transform="matrix(0.962739,0,0,-0.962739,5.190912,17.481417)"/>
<path style="fill:none;stroke-width:0.3985;stroke-linecap:butt;stroke-linejoin:miter;stroke:rgb(0%,0%,0%);stroke-opacity:1;stroke-miterlimit:10;" d="M 85.040262 10.189201 L 85.040262 18.158 M 81.250619 12.940141 L 88.829905 15.403003 M 82.699123 17.39926 L 87.381402 10.947941 M 87.381402 17.39926 L 82.699123 10.947941 M 88.829905 12.940141 L 81.250619 15.403003 " transform="matrix(0.962739,0,0,-0.962739,5.190912,17.481417)"/>
<path style="fill:none;stroke-width:0.3985;stroke-linecap:butt;stroke-linejoin:miter;stroke:rgb(0%,0%,0%);stroke-opacity:1;stroke-miterlimit:10;" d="M 85.040262 10.189201 L 85.040262 18.158 M 81.250619 12.940141 L 88.829905 15.403003 M 82.699123 17.39926 L 87.381402 10.947941 M 87.381402 17.39926 L 82.699123 10.947941 M 88.829905 12.940141 L 81.250619 15.403003 " transform="matrix(0.962739,0,0,-0.962739,5.190912,17.481417)"/>
<path style="fill:none;stroke-width:0.3985;stroke-linecap:butt;stroke-linejoin:miter;stroke:rgb(0%,0%,0%);stroke-opacity:1;stroke-miterlimit:10;" d="M 85.040262 10.189201 L 85.040262 18.158 M 81.250619 12.940141 L 88.829905 15.403003 M 82.699123 17.39926 L 87.381402 10.947941 M 87.381402 17.39926 L 82.699123 10.947941 M 88.829905 12.940141 L 81.250619 15.403003 " transform="matrix(0.962739,0,0,-0.962739,5.190912,17.481417)"/>
<path style="fill:none;stroke-width:0.3985;stroke-linecap:butt;stroke-linejoin:miter;stroke:rgb(0%,0%,0%);stroke-opacity:1;stroke-miterlimit:10;" d="M 85.040262 10.189201 L 85.040262 18.158 M 81.250619 12.940141 L 88.829905 15.403003 M 82.699123 17.39926 L 87.381402 10.947941 M 87.381402 17.39926 L 82.699123 10.947941 M 88.829905 12.940141 L 81.250619 15.403003 " transform="matrix(0.962739,0,0,-0.962739,5.190912,17.481417)"/>
<path style="fill:none;stroke-width:0.3985;stroke-linecap:butt;stroke-linejoin:miter;stroke:rgb(0%,0%,0%);stroke-opacity:1;stroke-miterlimit:10;" d="M 85.040262 10.189201 L 85.040262 18.158 M 81.250619 12.940141 L 88.829905 15.403003 M 82.699123 17.39926 L 87.381402 10.947941 M 87.381402 17.39926 L 82.699123 10.947941 M 88.829905 12.940141 L 81.250619 15.403003 " transform="matrix(0.962739,0,0,-0.962739,5.190912,17.481417)"/>
<path style="fill:none;stroke-width:0.3985;stroke-linecap:butt;stroke-linejoin:miter;stroke:rgb(0%,0%,0%);stroke-opacity:1;stroke-miterlimit:10;" d="M 85.040262 10.189201 L 85.040262 18.158 M 81.250619 12.940141 L 88.829905 15.403003 M 82.699123 17.39926 L 87.381402 10.947941 M 87.381402 17.39926 L 82.699123 10.947941 M 88.829905 12.940141 L 81.250619 15.403003 " transform="matrix(0.962739,0,0,-0.962739,5.190912,17.481417)"/>
<path style="fill:none;stroke-width:0.3985;stroke-linecap:butt;stroke-linejoin:miter;stroke:rgb(0%,0%,0%);stroke-opacity:1;stroke-miterlimit:10;" d="M 85.040262 10.189201 L 85.040262 18.158 M 81.250619 12.940141 L 88.829905 15.403003 M 82.699123 17.39926 L 87.381402 10.947941 M 87.381402 17.39926 L 82.699123 10.947941 M 88.829905 12.940141 L 81.250619 15.403003 " transform="matrix(0.962739,0,0,-0.962739,5.190912,17.481417)"/>
<path style="fill:none;stroke-width:0.3985;stroke-linecap:butt;stroke-linejoin:miter;stroke:rgb(0%,0%,0%);stroke-opacity:1;stroke-miterlimit:10;" d="M 85.040262 10.189201 L 85.040262 18.158 M 81.250619 12.940141 L 88.829905 15.403003 M 82.699123 17.39926 L 87.381402 10.947941 M 87.381402 17.39926 L 82.699123 10.947941 M 88.829905 12.940141 L 81.250619 15.403003 " transform="matrix(0.962739,0,0,-0.962739,5.190912,17.481417)"/>
<path style="fill:none;stroke-width:0.3985;stroke-linecap:butt;stroke-linejoin:miter;stroke:rgb(0%,0%,0%);stroke-opacity:1;stroke-miterlimit:10;" d="M 85.040262 10.189201 L 85.040262 18.158 M 81.250619 12.940141 L 88.829905 15.403003 M 82.699123 17.39926 L 87.381402 10.947941 M 87.381402 17.39926 L 82.699123 10.947941 M 88.829905 12.940141 L 81.250619 15.403003 " transform="matrix(0.962739,0,0,-0.962739,5.190912,17.481417)"/>
<path style="fill:none;stroke-width:0.3985;stroke-linecap:butt;stroke-linejoin:miter;stroke:rgb(0%,0%,0%);stroke-opacity:1;stroke-miterlimit:10;" d="M 85.040262 10.189201 L 85.040262 18.158 M 81.250619 12.940141 L 88.829905 15.403003 M 82.699123 17.39926 L 87.381402 10.947941 M 87.381402 17.39926 L 82.699123 10.947941 M 88.829905 12.940141 L 81.250619 15.403003 " transform="matrix(0.962739,0,0,-0.962739,5.190912,17.481417)"/>
</g>
</g>
</svg>
