<?xml version="1.0" encoding="UTF-8"?>
<svg xmlns="http://www.w3.org/2000/svg" xmlns:xlink="http://www.w3.org/1999/xlink" width="90.675pt" height="19.809pt" viewBox="0 0 90.675 19.809" version="1.2">
<defs>
<clipPath id="clip1">
  <path d="M 0.273438 0 L 90.082031 0 L 90.082031 19.621094 L 0.273438 19.621094 Z M 0.273438 0 "/>
</clipPath>
<clipPath id="clip2">
  <path d="M 0.273438 8 L 12 8 L 12 19.621094 L 0.273438 19.621094 Z M 0.273438 8 "/>
</clipPath>
<clipPath id="clip3">
  <path d="M 50 8 L 68 8 L 68 19.621094 L 50 19.621094 Z M 50 8 "/>
</clipPath>
<clipPath id="clip4">
  <path d="M 78 0 L 90.082031 0 L 90.082031 12 L 78 12 Z M 78 0 "/>
</clipPath>
</defs>
<g id="surface1">
<g clip-path="url(#clip1)" clip-rule="nonzero">
<path style="fill:none;stroke-width:0.3985;stroke-linecap:butt;stroke-linejoin:miter;stroke:rgb(0%,0%,0%);stroke-opacity:1;stroke-miterlimit:10;" d="M -0.000619012 0.000616841 L 28.348238 14.175045 L 56.69315 0.000616841 L 85.042007 14.175045 " transform="matrix(0.99045,0,0,-0.99045,3.063113,16.828736)"/>
</g>
<g clip-path="url(#clip2)" clip-rule="nonzero">
<path style="fill:none;stroke-width:0.3985;stroke-linecap:butt;stroke-linejoin:miter;stroke:rgb(0%,0%,0%);stroke-opacity:1;stroke-miterlimit:10;" d="M -2.816574 -2.819282 L 2.81928 2.816572 M -2.816574 2.816572 L 2.81928 -2.819282 " transform="matrix(0.99045,0,0,-0.99045,3.063113,16.828736)"/>
<path style="fill:none;stroke-width:0.3985;stroke-linecap:butt;stroke-linejoin:miter;stroke:rgb(0%,0%,0%);stroke-opacity:1;stroke-miterlimit:10;" d="M -2.816574 -2.819282 L 2.81928 2.816572 M -2.816574 2.816572 L 2.81928 -2.819282 " transform="matrix(0.99045,0,0,-0.99045,3.063113,16.828736)"/>
<path style="fill:none;stroke-width:0.3985;stroke-linecap:butt;stroke-linejoin:miter;stroke:rgb(0%,0%,0%);stroke-opacity:1;stroke-miterlimit:10;" d="M -2.816574 -2.819282 L 2.81928 2.816572 M -2.816574 2.816572 L 2.81928 -2.819282 " transform="matrix(0.99045,0,0,-0.99045,3.063113,16.828736)"/>
<path style="fill:none;stroke-width:0.3985;stroke-linecap:butt;stroke-linejoin:miter;stroke:rgb(0%,0%,0%);stroke-opacity:1;stroke-miterlimit:10;" d="M -2.816574 -2.819282 L 2.81928 2.816572 M -2.816574 2.816572 L 2.81928 -2.819282 " transform="matrix(0.99045,0,0,-0.99045,3.063113,16.828736)"/>
<path style="fill:none;stroke-width:0.3985;stroke-linecap:butt;stroke-linejoin:miter;stroke:rgb(0%,0%,0%);stroke-opacity:1;stroke-miterlimit:10;" d="M -2.816574 -2.819282 L 2.81928 2.816572 M -2.816574 2.816572 L 2.81928 -2.819282 " transform="matrix(0.99045,0,0,-0.99045,3.063113,16.828736)"/>
<path style="fill:none;stroke-width:0.3985;stroke-linecap:butt;stroke-linejoin:miter;stroke:rgb(0%,0%,0%);stroke-opacity:1;stroke-miterlimit:10;" d="M -2.816574 -2.819282 L 2.81928 2.816572 M -2.816574 2.816572 L 2.81928 -2.819282 " transform="matrix(0.99045,0,0,-0.99045,3.063113,16.828736)"/>
<path style="fill:none;stroke-width:0.3985;stroke-linecap:butt;stroke-linejoin:miter;stroke:rgb(0%,0%,0%);stroke-opacity:1;stroke-miterlimit:10;" d="M -2.816574 -2.819282 L 2.81928 2.816572 M -2.816574 2.816572 L 2.81928 -2.819282 " transform="matrix(0.99045,0,0,-0.99045,3.063113,16.828736)"/>
<path style="fill:none;stroke-width:0.3985;stroke-linecap:butt;stroke-linejoin:miter;stroke:rgb(0%,0%,0%);stroke-opacity:1;stroke-miterlimit:10;" d="M -2.816574 -2.819282 L 2.81928 2.816572 M -2.816574 2.816572 L 2.81928 -2.819282 " transform="matrix(0.99045,0,0,-0.99045,3.063113,16.828736)"/>
<path style="fill:none;stroke-width:0.3985;stroke-linecap:butt;stroke-linejoin:miter;stroke:rgb(0%,0%,0%);stroke-opacity:1;stroke-miterlimit:10;" d="M -2.816574 -2.819282 L 2.81928 2.816572 M -2.816574 2.816572 L 2.81928 -2.819282 " transform="matrix(0.99045,0,0,-0.99045,3.063113,16.828736)"/>
<path style="fill:none;stroke-width:0.3985;stroke-linecap:butt;stroke-linejoin:miter;stroke:rgb(0%,0%,0%);stroke-opacity:1;stroke-miterlimit:10;" d="M -2.816574 -2.819282 L 2.81928 2.816572 M -2.816574 2.816572 L 2.81928 -2.819282 " transform="matrix(0.99045,0,0,-0.99045,3.063113,16.828736)"/>
<path style="fill:none;stroke-width:0.3985;stroke-linecap:butt;stroke-linejoin:miter;stroke:rgb(0%,0%,0%);stroke-opacity:1;stroke-miterlimit:10;" d="M -2.816574 -2.819282 L 2.81928 2.816572 M -2.816574 2.816572 L 2.81928 -2.819282 " transform="matrix(0.99045,0,0,-0.99045,3.063113,16.828736)"/>
<path style="fill:none;stroke-width:0.3985;stroke-linecap:butt;stroke-linejoin:miter;stroke:rgb(0%,0%,0%);stroke-opacity:1;stroke-miterlimit:10;" d="M -2.816574 -2.819282 L 2.81928 2.816572 M -2.816574 2.816572 L 2.81928 -2.819282 " transform="matrix(0.99045,0,0,-0.99045,3.063113,16.828736)"/>
<path style="fill:none;stroke-width:0.3985;stroke-linecap:butt;stroke-linejoin:miter;stroke:rgb(0%,0%,0%);stroke-opacity:1;stroke-miterlimit:10;" d="M -2.816574 -2.819282 L 2.81928 2.816572 M -2.816574 2.816572 L 2.81928 -2.819282 " transform="matrix(0.99045,0,0,-0.99045,3.063113,16.828736)"/>
<path style="fill:none;stroke-width:0.3985;stroke-linecap:butt;stroke-linejoin:miter;stroke:rgb(0%,0%,0%);stroke-opacity:1;stroke-miterlimit:10;" d="M -2.816574 -2.819282 L 2.81928 2.816572 M -2.816574 2.816572 L 2.81928 -2.819282 " transform="matrix(0.99045,0,0,-0.99045,3.063113,16.828736)"/>
<path style="fill:none;stroke-width:0.3985;stroke-linecap:butt;stroke-linejoin:miter;stroke:rgb(0%,0%,0%);stroke-opacity:1;stroke-miterlimit:10;" d="M -2.816574 -2.819282 L 2.81928 2.816572 M -2.816574 2.816572 L 2.81928 -2.819282 " transform="matrix(0.99045,0,0,-0.99045,3.063113,16.828736)"/>
<path style="fill:none;stroke-width:0.3985;stroke-linecap:butt;stroke-linejoin:miter;stroke:rgb(0%,0%,0%);stroke-opacity:1;stroke-miterlimit:10;" d="M -2.816574 -2.819282 L 2.81928 2.816572 M -2.816574 2.816572 L 2.81928 -2.819282 " transform="matrix(0.99045,0,0,-0.99045,3.063113,16.828736)"/>
<path style="fill:none;stroke-width:0.3985;stroke-linecap:butt;stroke-linejoin:miter;stroke:rgb(0%,0%,0%);stroke-opacity:1;stroke-miterlimit:10;" d="M -2.816574 -2.819282 L 2.81928 2.816572 M -2.816574 2.816572 L 2.81928 -2.819282 " transform="matrix(0.99045,0,0,-0.99045,3.063113,16.828736)"/>
<path style="fill:none;stroke-width:0.3985;stroke-linecap:butt;stroke-linejoin:miter;stroke:rgb(0%,0%,0%);stroke-opacity:1;stroke-miterlimit:10;" d="M -2.816574 -2.819282 L 2.81928 2.816572 M -2.816574 2.816572 L 2.81928 -2.819282 " transform="matrix(0.99045,0,0,-0.99045,3.063113,16.828736)"/>
<path style="fill:none;stroke-width:0.3985;stroke-linecap:butt;stroke-linejoin:miter;stroke:rgb(0%,0%,0%);stroke-opacity:1;stroke-miterlimit:10;" d="M -2.816574 -2.819282 L 2.81928 2.816572 M -2.816574 2.816572 L 2.81928 -2.819282 " transform="matrix(0.99045,0,0,-0.99045,3.063113,16.828736)"/>
<path style="fill:none;stroke-width:0.3985;stroke-linecap:butt;stroke-linejoin:miter;stroke:rgb(0%,0%,0%);stroke-opacity:1;stroke-miterlimit:10;" d="M -2.816574 -2.819282 L 2.81928 2.816572 M -2.816574 2.816572 L 2.81928 -2.819282 " transform="matrix(0.99045,0,0,-0.99045,3.063113,16.828736)"/>
<path style="fill:none;stroke-width:0.3985;stroke-linecap:butt;stroke-linejoin:miter;stroke:rgb(0%,0%,0%);stroke-opacity:1;stroke-miterlimit:10;" d="M -2.816574 -2.819282 L 2.81928 2.816572 M -2.816574 2.816572 L 2.81928 -2.819282 " transform="matrix(0.99045,0,0,-0.99045,3.063113,16.828736)"/>
<path style="fill:none;stroke-width:0.3985;stroke-linecap:butt;stroke-linejoin:miter;stroke:rgb(0%,0%,0%);stroke-opacity:1;stroke-miterlimit:10;" d="M -2.816574 -2.819282 L 2.81928 2.816572 M -2.816574 2.816572 L 2.81928 -2.819282 " transform="matrix(0.99045,0,0,-0.99045,3.063113,16.828736)"/>
<path style="fill:none;stroke-width:0.3985;stroke-linecap:butt;stroke-linejoin:miter;stroke:rgb(0%,0%,0%);stroke-opacity:1;stroke-miterlimit:10;" d="M -2.816574 -2.819282 L 2.81928 2.816572 M -2.816574 2.816572 L 2.81928 -2.819282 " transform="matrix(0.99045,0,0,-0.99045,3.063113,16.828736)"/>
<path style="fill:none;stroke-width:0.3985;stroke-linecap:butt;stroke-linejoin:miter;stroke:rgb(0%,0%,0%);stroke-opacity:1;stroke-miterlimit:10;" d="M -2.816574 -2.819282 L 2.81928 2.816572 M -2.816574 2.816572 L 2.81928 -2.819282 " transform="matrix(0.99045,0,0,-0.99045,3.063113,16.828736)"/>
</g>
<path style="fill:none;stroke-width:0.3985;stroke-linecap:butt;stroke-linejoin:miter;stroke:rgb(0%,0%,0%);stroke-opacity:1;stroke-miterlimit:10;" d="M 25.528339 11.355146 L 31.164192 16.991 M 25.528339 16.991 L 31.164192 11.355146 " transform="matrix(0.99045,0,0,-0.99045,3.063113,16.828736)"/>
<path style="fill:none;stroke-width:0.3985;stroke-linecap:butt;stroke-linejoin:miter;stroke:rgb(0%,0%,0%);stroke-opacity:1;stroke-miterlimit:10;" d="M 25.528339 11.355146 L 31.164192 16.991 M 25.528339 16.991 L 31.164192 11.355146 " transform="matrix(0.99045,0,0,-0.99045,3.063113,16.828736)"/>
<path style="fill:none;stroke-width:0.3985;stroke-linecap:butt;stroke-linejoin:miter;stroke:rgb(0%,0%,0%);stroke-opacity:1;stroke-miterlimit:10;" d="M 25.528339 11.355146 L 31.164192 16.991 M 25.528339 16.991 L 31.164192 11.355146 " transform="matrix(0.99045,0,0,-0.99045,3.063113,16.828736)"/>
<path style="fill:none;stroke-width:0.3985;stroke-linecap:butt;stroke-linejoin:miter;stroke:rgb(0%,0%,0%);stroke-opacity:1;stroke-miterlimit:10;" d="M 25.528339 11.355146 L 31.164192 16.991 M 25.528339 16.991 L 31.164192 11.355146 " transform="matrix(0.99045,0,0,-0.99045,3.063113,16.828736)"/>
<path style="fill:none;stroke-width:0.3985;stroke-linecap:butt;stroke-linejoin:miter;stroke:rgb(0%,0%,0%);stroke-opacity:1;stroke-miterlimit:10;" d="M 25.528339 11.355146 L 31.164192 16.991 M 25.528339 16.991 L 31.164192 11.355146 " transform="matrix(0.99045,0,0,-0.99045,3.063113,16.828736)"/>
<path style="fill:none;stroke-width:0.3985;stroke-linecap:butt;stroke-linejoin:miter;stroke:rgb(0%,0%,0%);stroke-opacity:1;stroke-miterlimit:10;" d="M 25.528339 11.355146 L 31.164192 16.991 M 25.528339 16.991 L 31.164192 11.355146 " transform="matrix(0.99045,0,0,-0.99045,3.063113,16.828736)"/>
<path style="fill:none;stroke-width:0.3985;stroke-linecap:butt;stroke-linejoin:miter;stroke:rgb(0%,0%,0%);stroke-opacity:1;stroke-miterlimit:10;" d="M 25.528339 11.355146 L 31.164192 16.991 M 25.528339 16.991 L 31.164192 11.355146 " transform="matrix(0.99045,0,0,-0.99045,3.063113,16.828736)"/>
<path style="fill:none;stroke-width:0.3985;stroke-linecap:butt;stroke-linejoin:miter;stroke:rgb(0%,0%,0%);stroke-opacity:1;stroke-miterlimit:10;" d="M 25.528339 11.355146 L 31.164192 16.991 M 25.528339 16.991 L 31.164192 11.355146 " transform="matrix(0.99045,0,0,-0.99045,3.063113,16.828736)"/>
<path style="fill:none;stroke-width:0.3985;stroke-linecap:butt;stroke-linejoin:miter;stroke:rgb(0%,0%,0%);stroke-opacity:1;stroke-miterlimit:10;" d="M 25.528339 11.355146 L 31.164192 16.991 M 25.528339 16.991 L 31.164192 11.355146 " transform="matrix(0.99045,0,0,-0.99045,3.063113,16.828736)"/>
<path style="fill:none;stroke-width:0.3985;stroke-linecap:butt;stroke-linejoin:miter;stroke:rgb(0%,0%,0%);stroke-opacity:1;stroke-miterlimit:10;" d="M 25.528339 11.355146 L 31.164192 16.991 M 25.528339 16.991 L 31.164192 11.355146 " transform="matrix(0.99045,0,0,-0.99045,3.063113,16.828736)"/>
<path style="fill:none;stroke-width:0.3985;stroke-linecap:butt;stroke-linejoin:miter;stroke:rgb(0%,0%,0%);stroke-opacity:1;stroke-miterlimit:10;" d="M 25.528339 11.355146 L 31.164192 16.991 M 25.528339 16.991 L 31.164192 11.355146 " transform="matrix(0.99045,0,0,-0.99045,3.063113,16.828736)"/>
<path style="fill:none;stroke-width:0.3985;stroke-linecap:butt;stroke-linejoin:miter;stroke:rgb(0%,0%,0%);stroke-opacity:1;stroke-miterlimit:10;" d="M 25.528339 11.355146 L 31.164192 16.991 M 25.528339 16.991 L 31.164192 11.355146 " transform="matrix(0.99045,0,0,-0.99045,3.063113,16.828736)"/>
<path style="fill:none;stroke-width:0.3985;stroke-linecap:butt;stroke-linejoin:miter;stroke:rgb(0%,0%,0%);stroke-opacity:1;stroke-miterlimit:10;" d="M 25.528339 11.355146 L 31.164192 16.991 M 25.528339 16.991 L 31.164192 11.355146 " transform="matrix(0.99045,0,0,-0.99045,3.063113,16.828736)"/>
<path style="fill:none;stroke-width:0.3985;stroke-linecap:butt;stroke-linejoin:miter;stroke:rgb(0%,0%,0%);stroke-opacity:1;stroke-miterlimit:10;" d="M 25.528339 11.355146 L 31.164192 16.991 M 25.528339 16.991 L 31.164192 11.355146 " transform="matrix(0.99045,0,0,-0.99045,3.063113,16.828736)"/>
<path style="fill:none;stroke-width:0.3985;stroke-linecap:butt;stroke-linejoin:miter;stroke:rgb(0%,0%,0%);stroke-opacity:1;stroke-miterlimit:10;" d="M 25.528339 11.355146 L 31.164192 16.991 M 25.528339 16.991 L 31.164192 11.355146 " transform="matrix(0.99045,0,0,-0.99045,3.063113,16.828736)"/>
<path style="fill:none;stroke-width:0.3985;stroke-linecap:butt;stroke-linejoin:miter;stroke:rgb(0%,0%,0%);stroke-opacity:1;stroke-miterlimit:10;" d="M 25.528339 11.355146 L 31.164192 16.991 M 25.528339 16.991 L 31.164192 11.355146 " transform="matrix(0.99045,0,0,-0.99045,3.063113,16.828736)"/>
<path style="fill:none;stroke-width:0.3985;stroke-linecap:butt;stroke-linejoin:miter;stroke:rgb(0%,0%,0%);stroke-opacity:1;stroke-miterlimit:10;" d="M 25.528339 11.355146 L 31.164192 16.991 M 25.528339 16.991 L 31.164192 11.355146 " transform="matrix(0.99045,0,0,-0.99045,3.063113,16.828736)"/>
<path style="fill:none;stroke-width:0.3985;stroke-linecap:butt;stroke-linejoin:miter;stroke:rgb(0%,0%,0%);stroke-opacity:1;stroke-miterlimit:10;" d="M 25.528339 11.355146 L 31.164192 16.991 M 25.528339 16.991 L 31.164192 11.355146 " transform="matrix(0.99045,0,0,-0.99045,3.063113,16.828736)"/>
<path style="fill:none;stroke-width:0.3985;stroke-linecap:butt;stroke-linejoin:miter;stroke:rgb(0%,0%,0%);stroke-opacity:1;stroke-miterlimit:10;" d="M 25.528339 11.355146 L 31.164192 16.991 M 25.528339 16.991 L 31.164192 11.355146 " transform="matrix(0.99045,0,0,-0.99045,3.063113,16.828736)"/>
<path style="fill:none;stroke-width:0.3985;stroke-linecap:butt;stroke-linejoin:miter;stroke:rgb(0%,0%,0%);stroke-opacity:1;stroke-miterlimit:10;" d="M 25.528339 11.355146 L 31.164192 16.991 M 25.528339 16.991 L 31.164192 11.355146 " transform="matrix(0.99045,0,0,-0.99045,3.063113,16.828736)"/>
<path style="fill:none;stroke-width:0.3985;stroke-linecap:butt;stroke-linejoin:miter;stroke:rgb(0%,0%,0%);stroke-opacity:1;stroke-miterlimit:10;" d="M 25.528339 11.355146 L 31.164192 16.991 M 25.528339 16.991 L 31.164192 11.355146 " transform="matrix(0.99045,0,0,-0.99045,3.063113,16.828736)"/>
<path style="fill:none;stroke-width:0.3985;stroke-linecap:butt;stroke-linejoin:miter;stroke:rgb(0%,0%,0%);stroke-opacity:1;stroke-miterlimit:10;" d="M 25.528339 11.355146 L 31.164192 16.991 M 25.528339 16.991 L 31.164192 11.355146 " transform="matrix(0.99045,0,0,-0.99045,3.063113,16.828736)"/>
<path style="fill:none;stroke-width:0.3985;stroke-linecap:butt;stroke-linejoin:miter;stroke:rgb(0%,0%,0%);stroke-opacity:1;stroke-miterlimit:10;" d="M 25.528339 11.355146 L 31.164192 16.991 M 25.528339 16.991 L 31.164192 11.355146 " transform="matrix(0.99045,0,0,-0.99045,3.063113,16.828736)"/>
<path style="fill:none;stroke-width:0.3985;stroke-linecap:butt;stroke-linejoin:miter;stroke:rgb(0%,0%,0%);stroke-opacity:1;stroke-miterlimit:10;" d="M 25.528339 11.355146 L 31.164192 16.991 M 25.528339 16.991 L 31.164192 11.355146 " transform="matrix(0.99045,0,0,-0.99045,3.063113,16.828736)"/>
<g clip-path="url(#clip3)" clip-rule="nonzero">
<path style="fill:none;stroke-width:0.3985;stroke-linecap:butt;stroke-linejoin:miter;stroke:rgb(0%,0%,0%);stroke-opacity:1;stroke-miterlimit:10;" d="M 53.877195 -2.819282 L 59.513049 2.816572 M 53.877195 2.816572 L 59.513049 -2.819282 " transform="matrix(0.99045,0,0,-0.99045,3.063113,16.828736)"/>
<path style="fill:none;stroke-width:0.3985;stroke-linecap:butt;stroke-linejoin:miter;stroke:rgb(0%,0%,0%);stroke-opacity:1;stroke-miterlimit:10;" d="M 53.877195 -2.819282 L 59.513049 2.816572 M 53.877195 2.816572 L 59.513049 -2.819282 " transform="matrix(0.99045,0,0,-0.99045,3.063113,16.828736)"/>
<path style="fill:none;stroke-width:0.3985;stroke-linecap:butt;stroke-linejoin:miter;stroke:rgb(0%,0%,0%);stroke-opacity:1;stroke-miterlimit:10;" d="M 53.877195 -2.819282 L 59.513049 2.816572 M 53.877195 2.816572 L 59.513049 -2.819282 " transform="matrix(0.99045,0,0,-0.99045,3.063113,16.828736)"/>
<path style="fill:none;stroke-width:0.3985;stroke-linecap:butt;stroke-linejoin:miter;stroke:rgb(0%,0%,0%);stroke-opacity:1;stroke-miterlimit:10;" d="M 53.877195 -2.819282 L 59.513049 2.816572 M 53.877195 2.816572 L 59.513049 -2.819282 " transform="matrix(0.99045,0,0,-0.99045,3.063113,16.828736)"/>
<path style="fill:none;stroke-width:0.3985;stroke-linecap:butt;stroke-linejoin:miter;stroke:rgb(0%,0%,0%);stroke-opacity:1;stroke-miterlimit:10;" d="M 53.877195 -2.819282 L 59.513049 2.816572 M 53.877195 2.816572 L 59.513049 -2.819282 " transform="matrix(0.99045,0,0,-0.99045,3.063113,16.828736)"/>
<path style="fill:none;stroke-width:0.3985;stroke-linecap:butt;stroke-linejoin:miter;stroke:rgb(0%,0%,0%);stroke-opacity:1;stroke-miterlimit:10;" d="M 53.877195 -2.819282 L 59.513049 2.816572 M 53.877195 2.816572 L 59.513049 -2.819282 " transform="matrix(0.99045,0,0,-0.99045,3.063113,16.828736)"/>
<path style="fill:none;stroke-width:0.3985;stroke-linecap:butt;stroke-linejoin:miter;stroke:rgb(0%,0%,0%);stroke-opacity:1;stroke-miterlimit:10;" d="M 53.877195 -2.819282 L 59.513049 2.816572 M 53.877195 2.816572 L 59.513049 -2.819282 " transform="matrix(0.99045,0,0,-0.99045,3.063113,16.828736)"/>
<path style="fill:none;stroke-width:0.3985;stroke-linecap:butt;stroke-linejoin:miter;stroke:rgb(0%,0%,0%);stroke-opacity:1;stroke-miterlimit:10;" d="M 53.877195 -2.819282 L 59.513049 2.816572 M 53.877195 2.816572 L 59.513049 -2.819282 " transform="matrix(0.99045,0,0,-0.99045,3.063113,16.828736)"/>
<path style="fill:none;stroke-width:0.3985;stroke-linecap:butt;stroke-linejoin:miter;stroke:rgb(0%,0%,0%);stroke-opacity:1;stroke-miterlimit:10;" d="M 53.877195 -2.819282 L 59.513049 2.816572 M 53.877195 2.816572 L 59.513049 -2.819282 " transform="matrix(0.99045,0,0,-0.99045,3.063113,16.828736)"/>
<path style="fill:none;stroke-width:0.3985;stroke-linecap:butt;stroke-linejoin:miter;stroke:rgb(0%,0%,0%);stroke-opacity:1;stroke-miterlimit:10;" d="M 53.877195 -2.819282 L 59.513049 2.816572 M 53.877195 2.816572 L 59.513049 -2.819282 " transform="matrix(0.99045,0,0,-0.99045,3.063113,16.828736)"/>
<path style="fill:none;stroke-width:0.3985;stroke-linecap:butt;stroke-linejoin:miter;stroke:rgb(0%,0%,0%);stroke-opacity:1;stroke-miterlimit:10;" d="M 53.877195 -2.819282 L 59.513049 2.816572 M 53.877195 2.816572 L 59.513049 -2.819282 " transform="matrix(0.99045,0,0,-0.99045,3.063113,16.828736)"/>
<path style="fill:none;stroke-width:0.3985;stroke-linecap:butt;stroke-linejoin:miter;stroke:rgb(0%,0%,0%);stroke-opacity:1;stroke-miterlimit:10;" d="M 53.877195 -2.819282 L 59.513049 2.816572 M 53.877195 2.816572 L 59.513049 -2.819282 " transform="matrix(0.99045,0,0,-0.99045,3.063113,16.828736)"/>
<path style="fill:none;stroke-width:0.3985;stroke-linecap:butt;stroke-linejoin:miter;stroke:rgb(0%,0%,0%);stroke-opacity:1;stroke-miterlimit:10;" d="M 53.877195 -2.819282 L 59.513049 2.816572 M 53.877195 2.816572 L 59.513049 -2.819282 " transform="matrix(0.99045,0,0,-0.99045,3.063113,16.828736)"/>
<path style="fill:none;stroke-width:0.3985;stroke-linecap:butt;stroke-linejoin:miter;stroke:rgb(0%,0%,0%);stroke-opacity:1;stroke-miterlimit:10;" d="M 53.877195 -2.819282 L 59.513049 2.816572 M 53.877195 2.816572 L 59.513049 -2.819282 " transform="matrix(0.99045,0,0,-0.99045,3.063113,16.828736)"/>
<path style="fill:none;stroke-width:0.3985;stroke-linecap:butt;stroke-linejoin:miter;stroke:rgb(0%,0%,0%);stroke-opacity:1;stroke-miterlimit:10;" d="M 53.877195 -2.819282 L 59.513049 2.816572 M 53.877195 2.816572 L 59.513049 -2.819282 " transform="matrix(0.99045,0,0,-0.99045,3.063113,16.828736)"/>
<path style="fill:none;stroke-width:0.3985;stroke-linecap:butt;stroke-linejoin:miter;stroke:rgb(0%,0%,0%);stroke-opacity:1;stroke-miterlimit:10;" d="M 53.877195 -2.819282 L 59.513049 2.816572 M 53.877195 2.816572 L 59.513049 -2.819282 " transform="matrix(0.99045,0,0,-0.99045,3.063113,16.828736)"/>
<path style="fill:none;stroke-width:0.3985;stroke-linecap:butt;stroke-linejoin:miter;stroke:rgb(0%,0%,0%);stroke-opacity:1;stroke-miterlimit:10;" d="M 53.877195 -2.819282 L 59.513049 2.816572 M 53.877195 2.816572 L 59.513049 -2.819282 " transform="matrix(0.99045,0,0,-0.99045,3.063113,16.828736)"/>
<path style="fill:none;stroke-width:0.3985;stroke-linecap:butt;stroke-linejoin:miter;stroke:rgb(0%,0%,0%);stroke-opacity:1;stroke-miterlimit:10;" d="M 53.877195 -2.819282 L 59.513049 2.816572 M 53.877195 2.816572 L 59.513049 -2.819282 " transform="matrix(0.99045,0,0,-0.99045,3.063113,16.828736)"/>
<path style="fill:none;stroke-width:0.3985;stroke-linecap:butt;stroke-linejoin:miter;stroke:rgb(0%,0%,0%);stroke-opacity:1;stroke-miterlimit:10;" d="M 53.877195 -2.819282 L 59.513049 2.816572 M 53.877195 2.816572 L 59.513049 -2.819282 " transform="matrix(0.99045,0,0,-0.99045,3.063113,16.828736)"/>
<path style="fill:none;stroke-width:0.3985;stroke-linecap:butt;stroke-linejoin:miter;stroke:rgb(0%,0%,0%);stroke-opacity:1;stroke-miterlimit:10;" d="M 53.877195 -2.819282 L 59.513049 2.816572 M 53.877195 2.816572 L 59.513049 -2.819282 " transform="matrix(0.99045,0,0,-0.99045,3.063113,16.828736)"/>
<path style="fill:none;stroke-width:0.3985;stroke-linecap:butt;stroke-linejoin:miter;stroke:rgb(0%,0%,0%);stroke-opacity:1;stroke-miterlimit:10;" d="M 53.877195 -2.819282 L 59.513049 2.816572 M 53.877195 2.816572 L 59.513049 -2.819282 " transform="matrix(0.99045,0,0,-0.99045,3.063113,16.828736)"/>
<path style="fill:none;stroke-width:0.3985;stroke-linecap:butt;stroke-linejoin:miter;stroke:rgb(0%,0%,0%);stroke-opacity:1;stroke-miterlimit:10;" d="M 53.877195 -2.819282 L 59.513049 2.816572 M 53.877195 2.816572 L 59.513049 -2.819282 " transform="matrix(0.99045,0,0,-0.99045,3.063113,16.828736)"/>
<path style="fill:none;stroke-width:0.3985;stroke-linecap:butt;stroke-linejoin:miter;stroke:rgb(0%,0%,0%);stroke-opacity:1;stroke-miterlimit:10;" d="M 53.877195 -2.819282 L 59.513049 2.816572 M 53.877195 2.816572 L 59.513049 -2.819282 " transform="matrix(0.99045,0,0,-0.99045,3.063113,16.828736)"/>
<path style="fill:none;stroke-width:0.3985;stroke-linecap:butt;stroke-linejoin:miter;stroke:rgb(0%,0%,0%);stroke-opacity:1;stroke-miterlimit:10;" d="M 53.877195 -2.819282 L 59.513049 2.816572 M 53.877195 2.816572 L 59.513049 -2.819282 " transform="matrix(0.99045,0,0,-0.99045,3.063113,16.828736)"/>
</g>
<g clip-path="url(#clip4)" clip-rule="nonzero">
<path style="fill:none;stroke-width:0.3985;stroke-linecap:butt;stroke-linejoin:miter;stroke:rgb(0%,0%,0%);stroke-opacity:1;stroke-miterlimit:10;" d="M 82.222108 11.355146 L 87.857962 16.991 M 82.222108 16.991 L 87.857962 11.355146 " transform="matrix(0.99045,0,0,-0.99045,3.063113,16.828736)"/>
<path style="fill:none;stroke-width:0.3985;stroke-linecap:butt;stroke-linejoin:miter;stroke:rgb(0%,0%,0%);stroke-opacity:1;stroke-miterlimit:10;" d="M 82.222108 11.355146 L 87.857962 16.991 M 82.222108 16.991 L 87.857962 11.355146 " transform="matrix(0.99045,0,0,-0.99045,3.063113,16.828736)"/>
<path style="fill:none;stroke-width:0.3985;stroke-linecap:butt;stroke-linejoin:miter;stroke:rgb(0%,0%,0%);stroke-opacity:1;stroke-miterlimit:10;" d="M 82.222108 11.355146 L 87.857962 16.991 M 82.222108 16.991 L 87.857962 11.355146 " transform="matrix(0.99045,0,0,-0.99045,3.063113,16.828736)"/>
<path style="fill:none;stroke-width:0.3985;stroke-linecap:butt;stroke-linejoin:miter;stroke:rgb(0%,0%,0%);stroke-opacity:1;stroke-miterlimit:10;" d="M 82.222108 11.355146 L 87.857962 16.991 M 82.222108 16.991 L 87.857962 11.355146 " transform="matrix(0.99045,0,0,-0.99045,3.063113,16.828736)"/>
<path style="fill:none;stroke-width:0.3985;stroke-linecap:butt;stroke-linejoin:miter;stroke:rgb(0%,0%,0%);stroke-opacity:1;stroke-miterlimit:10;" d="M 82.222108 11.355146 L 87.857962 16.991 M 82.222108 16.991 L 87.857962 11.355146 " transform="matrix(0.99045,0,0,-0.99045,3.063113,16.828736)"/>
<path style="fill:none;stroke-width:0.3985;stroke-linecap:butt;stroke-linejoin:miter;stroke:rgb(0%,0%,0%);stroke-opacity:1;stroke-miterlimit:10;" d="M 82.222108 11.355146 L 87.857962 16.991 M 82.222108 16.991 L 87.857962 11.355146 " transform="matrix(0.99045,0,0,-0.99045,3.063113,16.828736)"/>
<path style="fill:none;stroke-width:0.3985;stroke-linecap:butt;stroke-linejoin:miter;stroke:rgb(0%,0%,0%);stroke-opacity:1;stroke-miterlimit:10;" d="M 82.222108 11.355146 L 87.857962 16.991 M 82.222108 16.991 L 87.857962 11.355146 " transform="matrix(0.99045,0,0,-0.99045,3.063113,16.828736)"/>
<path style="fill:none;stroke-width:0.3985;stroke-linecap:butt;stroke-linejoin:miter;stroke:rgb(0%,0%,0%);stroke-opacity:1;stroke-miterlimit:10;" d="M 82.222108 11.355146 L 87.857962 16.991 M 82.222108 16.991 L 87.857962 11.355146 " transform="matrix(0.99045,0,0,-0.99045,3.063113,16.828736)"/>
<path style="fill:none;stroke-width:0.3985;stroke-linecap:butt;stroke-linejoin:miter;stroke:rgb(0%,0%,0%);stroke-opacity:1;stroke-miterlimit:10;" d="M 82.222108 11.355146 L 87.857962 16.991 M 82.222108 16.991 L 87.857962 11.355146 " transform="matrix(0.99045,0,0,-0.99045,3.063113,16.828736)"/>
<path style="fill:none;stroke-width:0.3985;stroke-linecap:butt;stroke-linejoin:miter;stroke:rgb(0%,0%,0%);stroke-opacity:1;stroke-miterlimit:10;" d="M 82.222108 11.355146 L 87.857962 16.991 M 82.222108 16.991 L 87.857962 11.355146 " transform="matrix(0.99045,0,0,-0.99045,3.063113,16.828736)"/>
<path style="fill:none;stroke-width:0.3985;stroke-linecap:butt;stroke-linejoin:miter;stroke:rgb(0%,0%,0%);stroke-opacity:1;stroke-miterlimit:10;" d="M 82.222108 11.355146 L 87.857962 16.991 M 82.222108 16.991 L 87.857962 11.355146 " transform="matrix(0.99045,0,0,-0.99045,3.063113,16.828736)"/>
<path style="fill:none;stroke-width:0.3985;stroke-linecap:butt;stroke-linejoin:miter;stroke:rgb(0%,0%,0%);stroke-opacity:1;stroke-miterlimit:10;" d="M 82.222108 11.355146 L 87.857962 16.991 M 82.222108 16.991 L 87.857962 11.355146 " transform="matrix(0.99045,0,0,-0.99045,3.063113,16.828736)"/>
<path style="fill:none;stroke-width:0.3985;stroke-linecap:butt;stroke-linejoin:miter;stroke:rgb(0%,0%,0%);stroke-opacity:1;stroke-miterlimit:10;" d="M 82.222108 11.355146 L 87.857962 16.991 M 82.222108 16.991 L 87.857962 11.355146 " transform="matrix(0.99045,0,0,-0.99045,3.063113,16.828736)"/>
<path style="fill:none;stroke-width:0.3985;stroke-linecap:butt;stroke-linejoin:miter;stroke:rgb(0%,0%,0%);stroke-opacity:1;stroke-miterlimit:10;" d="M 82.222108 11.355146 L 87.857962 16.991 M 82.222108 16.991 L 87.857962 11.355146 " transform="matrix(0.99045,0,0,-0.99045,3.063113,16.828736)"/>
<path style="fill:none;stroke-width:0.3985;stroke-linecap:butt;stroke-linejoin:miter;stroke:rgb(0%,0%,0%);stroke-opacity:1;stroke-miterlimit:10;" d="M 82.222108 11.355146 L 87.857962 16.991 M 82.222108 16.991 L 87.857962 11.355146 " transform="matrix(0.99045,0,0,-0.99045,3.063113,16.828736)"/>
<path style="fill:none;stroke-width:0.3985;stroke-linecap:butt;stroke-linejoin:miter;stroke:rgb(0%,0%,0%);stroke-opacity:1;stroke-miterlimit:10;" d="M 82.222108 11.355146 L 87.857962 16.991 M 82.222108 16.991 L 87.857962 11.355146 " transform="matrix(0.99045,0,0,-0.99045,3.063113,16.828736)"/>
<path style="fill:none;stroke-width:0.3985;stroke-linecap:butt;stroke-linejoin:miter;stroke:rgb(0%,0%,0%);stroke-opacity:1;stroke-miterlimit:10;" d="M 82.222108 11.355146 L 87.857962 16.991 M 82.222108 16.991 L 87.857962 11.355146 " transform="matrix(0.99045,0,0,-0.99045,3.063113,16.828736)"/>
<path style="fill:none;stroke-width:0.3985;stroke-linecap:butt;stroke-linejoin:miter;stroke:rgb(0%,0%,0%);stroke-opacity:1;stroke-miterlimit:10;" d="M 82.222108 11.355146 L 87.857962 16.991 M 82.222108 16.991 L 87.857962 11.355146 " transform="matrix(0.99045,0,0,-0.99045,3.063113,16.828736)"/>
<path style="fill:none;stroke-width:0.3985;stroke-linecap:butt;stroke-linejoin:miter;stroke:rgb(0%,0%,0%);stroke-opacity:1;stroke-miterlimit:10;" d="M 82.222108 11.355146 L 87.857962 16.991 M 82.222108 16.991 L 87.857962 11.355146 " transform="matrix(0.99045,0,0,-0.99045,3.063113,16.828736)"/>
<path style="fill:none;stroke-width:0.3985;stroke-linecap:butt;stroke-linejoin:miter;stroke:rgb(0%,0%,0%);stroke-opacity:1;stroke-miterlimit:10;" d="M 82.222108 11.355146 L 87.857962 16.991 M 82.222108 16.991 L 87.857962 11.355146 " transform="matrix(0.99045,0,0,-0.99045,3.063113,16.828736)"/>
<path style="fill:none;stroke-width:0.3985;stroke-linecap:butt;stroke-linejoin:miter;stroke:rgb(0%,0%,0%);stroke-opacity:1;stroke-miterlimit:10;" d="M 82.222108 11.355146 L 87.857962 16.991 M 82.222108 16.991 L 87.857962 11.355146 " transform="matrix(0.99045,0,0,-0.99045,3.063113,16.828736)"/>
<path style="fill:none;stroke-width:0.3985;stroke-linecap:butt;stroke-linejoin:miter;stroke:rgb(0%,0%,0%);stroke-opacity:1;stroke-miterlimit:10;" d="M 82.222108 11.355146 L 87.857962 16.991 M 82.222108 16.991 L 87.857962 11.355146 " transform="matrix(0.99045,0,0,-0.99045,3.063113,16.828736)"/>
<path style="fill:none;stroke-width:0.3985;stroke-linecap:butt;stroke-linejoin:miter;stroke:rgb(0%,0%,0%);stroke-opacity:1;stroke-miterlimit:10;" d="M 82.222108 11.355146 L 87.857962 16.991 M 82.222108 16.991 L 87.857962 11.355146 " transform="matrix(0.99045,0,0,-0.99045,3.063113,16.828736)"/>
<path style="fill:none;stroke-width:0.3985;stroke-linecap:butt;stroke-linejoin:miter;stroke:rgb(0%,0%,0%);stroke-opacity:1;stroke-miterlimit:10;" d="M 82.222108 11.355146 L 87.857962 16.991 M 82.222108 16.991 L 87.857962 11.355146 " transform="matrix(0.99045,0,0,-0.99045,3.063113,16.828736)"/>
</g>
</g>
</svg>
