<?xml version="1.0" encoding="UTF-8"?>
<svg xmlns="http://www.w3.org/2000/svg" xmlns:xlink="http://www.w3.org/1999/xlink" width="91.942pt" height="20.151pt" viewBox="0 0 91.942 20.151" version="1.2">
<defs>
<clipPath id="clip1">
  <path d="M 1.832031 0 L 90.054688 0 L 90.054688 19.335938 L 1.832031 19.335938 Z M 1.832031 0 "/>
</clipPath>
<clipPath id="clip2">
  <path d="M 1.832031 8 L 14 8 L 14 19.335938 L 1.832031 19.335938 Z M 1.832031 8 "/>
</clipPath>
<clipPath id="clip3">
  <path d="M 50 8 L 69 8 L 69 19.335938 L 50 19.335938 Z M 50 8 "/>
</clipPath>
<clipPath id="clip4">
  <path d="M 78 0 L 90.054688 0 L 90.054688 12 L 78 12 Z M 78 0 "/>
</clipPath>
</defs>
<g id="surface1">
<g clip-path="url(#clip1)" clip-rule="nonzero">
<path style="fill:none;stroke-width:0.3985;stroke-linecap:butt;stroke-linejoin:miter;stroke:rgb(0%,0%,0%);stroke-opacity:1;stroke-miterlimit:10;" d="M -0.00163644 0.000743003 L 28.347608 14.175365 L 56.692782 0.000743003 L 85.042026 14.175365 " transform="matrix(0.959571,0,0,-0.959571,5.142195,15.512432)"/>
</g>
<g clip-path="url(#clip2)" clip-rule="nonzero">
<path style="fill:none;stroke-width:0.3985;stroke-linecap:butt;stroke-linejoin:miter;stroke:rgb(0%,0%,0%);stroke-opacity:1;stroke-miterlimit:10;" d="M -0.00163644 -3.984597 L -0.00163644 0.000743003 M 3.450425 1.991378 L -0.00163644 0.000743003 M -3.449628 1.991378 L -0.00163644 0.000743003 " transform="matrix(0.959571,0,0,-0.959571,5.142195,15.512432)"/>
<path style="fill:none;stroke-width:0.3985;stroke-linecap:butt;stroke-linejoin:miter;stroke:rgb(0%,0%,0%);stroke-opacity:1;stroke-miterlimit:10;" d="M -0.00163644 -3.984597 L -0.00163644 0.000743003 M 3.450425 1.991378 L -0.00163644 0.000743003 M -3.449628 1.991378 L -0.00163644 0.000743003 " transform="matrix(0.959571,0,0,-0.959571,5.142195,15.512432)"/>
<path style="fill:none;stroke-width:0.3985;stroke-linecap:butt;stroke-linejoin:miter;stroke:rgb(0%,0%,0%);stroke-opacity:1;stroke-miterlimit:10;" d="M -0.00163644 -3.984597 L -0.00163644 0.000743003 M 3.450425 1.991378 L -0.00163644 0.000743003 M -3.449628 1.991378 L -0.00163644 0.000743003 " transform="matrix(0.959571,0,0,-0.959571,5.142195,15.512432)"/>
<path style="fill:none;stroke-width:0.3985;stroke-linecap:butt;stroke-linejoin:miter;stroke:rgb(0%,0%,0%);stroke-opacity:1;stroke-miterlimit:10;" d="M -0.00163644 -3.984597 L -0.00163644 0.000743003 M 3.450425 1.991378 L -0.00163644 0.000743003 M -3.449628 1.991378 L -0.00163644 0.000743003 " transform="matrix(0.959571,0,0,-0.959571,5.142195,15.512432)"/>
<path style="fill:none;stroke-width:0.3985;stroke-linecap:butt;stroke-linejoin:miter;stroke:rgb(0%,0%,0%);stroke-opacity:1;stroke-miterlimit:10;" d="M -0.00163644 -3.984597 L -0.00163644 0.000743003 M 3.450425 1.991378 L -0.00163644 0.000743003 M -3.449628 1.991378 L -0.00163644 0.000743003 " transform="matrix(0.959571,0,0,-0.959571,5.142195,15.512432)"/>
<path style="fill:none;stroke-width:0.3985;stroke-linecap:butt;stroke-linejoin:miter;stroke:rgb(0%,0%,0%);stroke-opacity:1;stroke-miterlimit:10;" d="M -0.00163644 -3.984597 L -0.00163644 0.000743003 M 3.450425 1.991378 L -0.00163644 0.000743003 M -3.449628 1.991378 L -0.00163644 0.000743003 " transform="matrix(0.959571,0,0,-0.959571,5.142195,15.512432)"/>
<path style="fill:none;stroke-width:0.3985;stroke-linecap:butt;stroke-linejoin:miter;stroke:rgb(0%,0%,0%);stroke-opacity:1;stroke-miterlimit:10;" d="M -0.00163644 -3.984597 L -0.00163644 0.000743003 M 3.450425 1.991378 L -0.00163644 0.000743003 M -3.449628 1.991378 L -0.00163644 0.000743003 " transform="matrix(0.959571,0,0,-0.959571,5.142195,15.512432)"/>
<path style="fill:none;stroke-width:0.3985;stroke-linecap:butt;stroke-linejoin:miter;stroke:rgb(0%,0%,0%);stroke-opacity:1;stroke-miterlimit:10;" d="M -0.00163644 -3.984597 L -0.00163644 0.000743003 M 3.450425 1.991378 L -0.00163644 0.000743003 M -3.449628 1.991378 L -0.00163644 0.000743003 " transform="matrix(0.959571,0,0,-0.959571,5.142195,15.512432)"/>
<path style="fill:none;stroke-width:0.3985;stroke-linecap:butt;stroke-linejoin:miter;stroke:rgb(0%,0%,0%);stroke-opacity:1;stroke-miterlimit:10;" d="M -0.00163644 -3.984597 L -0.00163644 0.000743003 M 3.450425 1.991378 L -0.00163644 0.000743003 M -3.449628 1.991378 L -0.00163644 0.000743003 " transform="matrix(0.959571,0,0,-0.959571,5.142195,15.512432)"/>
<path style="fill:none;stroke-width:0.3985;stroke-linecap:butt;stroke-linejoin:miter;stroke:rgb(0%,0%,0%);stroke-opacity:1;stroke-miterlimit:10;" d="M -0.00163644 -3.984597 L -0.00163644 0.000743003 M 3.450425 1.991378 L -0.00163644 0.000743003 M -3.449628 1.991378 L -0.00163644 0.000743003 " transform="matrix(0.959571,0,0,-0.959571,5.142195,15.512432)"/>
<path style="fill:none;stroke-width:0.3985;stroke-linecap:butt;stroke-linejoin:miter;stroke:rgb(0%,0%,0%);stroke-opacity:1;stroke-miterlimit:10;" d="M -0.00163644 -3.984597 L -0.00163644 0.000743003 M 3.450425 1.991378 L -0.00163644 0.000743003 M -3.449628 1.991378 L -0.00163644 0.000743003 " transform="matrix(0.959571,0,0,-0.959571,5.142195,15.512432)"/>
<path style="fill:none;stroke-width:0.3985;stroke-linecap:butt;stroke-linejoin:miter;stroke:rgb(0%,0%,0%);stroke-opacity:1;stroke-miterlimit:10;" d="M -0.00163644 -3.984597 L -0.00163644 0.000743003 M 3.450425 1.991378 L -0.00163644 0.000743003 M -3.449628 1.991378 L -0.00163644 0.000743003 " transform="matrix(0.959571,0,0,-0.959571,5.142195,15.512432)"/>
<path style="fill:none;stroke-width:0.3985;stroke-linecap:butt;stroke-linejoin:miter;stroke:rgb(0%,0%,0%);stroke-opacity:1;stroke-miterlimit:10;" d="M -0.00163644 -3.984597 L -0.00163644 0.000743003 M 3.450425 1.991378 L -0.00163644 0.000743003 M -3.449628 1.991378 L -0.00163644 0.000743003 " transform="matrix(0.959571,0,0,-0.959571,5.142195,15.512432)"/>
<path style="fill:none;stroke-width:0.3985;stroke-linecap:butt;stroke-linejoin:miter;stroke:rgb(0%,0%,0%);stroke-opacity:1;stroke-miterlimit:10;" d="M -0.00163644 -3.984597 L -0.00163644 0.000743003 M 3.450425 1.991378 L -0.00163644 0.000743003 M -3.449628 1.991378 L -0.00163644 0.000743003 " transform="matrix(0.959571,0,0,-0.959571,5.142195,15.512432)"/>
<path style="fill:none;stroke-width:0.3985;stroke-linecap:butt;stroke-linejoin:miter;stroke:rgb(0%,0%,0%);stroke-opacity:1;stroke-miterlimit:10;" d="M -0.00163644 -3.984597 L -0.00163644 0.000743003 M 3.450425 1.991378 L -0.00163644 0.000743003 M -3.449628 1.991378 L -0.00163644 0.000743003 " transform="matrix(0.959571,0,0,-0.959571,5.142195,15.512432)"/>
<path style="fill:none;stroke-width:0.3985;stroke-linecap:butt;stroke-linejoin:miter;stroke:rgb(0%,0%,0%);stroke-opacity:1;stroke-miterlimit:10;" d="M -0.00163644 -3.984597 L -0.00163644 0.000743003 M 3.450425 1.991378 L -0.00163644 0.000743003 M -3.449628 1.991378 L -0.00163644 0.000743003 " transform="matrix(0.959571,0,0,-0.959571,5.142195,15.512432)"/>
<path style="fill:none;stroke-width:0.3985;stroke-linecap:butt;stroke-linejoin:miter;stroke:rgb(0%,0%,0%);stroke-opacity:1;stroke-miterlimit:10;" d="M -0.00163644 -3.984597 L -0.00163644 0.000743003 M 3.450425 1.991378 L -0.00163644 0.000743003 M -3.449628 1.991378 L -0.00163644 0.000743003 " transform="matrix(0.959571,0,0,-0.959571,5.142195,15.512432)"/>
<path style="fill:none;stroke-width:0.3985;stroke-linecap:butt;stroke-linejoin:miter;stroke:rgb(0%,0%,0%);stroke-opacity:1;stroke-miterlimit:10;" d="M -0.00163644 -3.984597 L -0.00163644 0.000743003 M 3.450425 1.991378 L -0.00163644 0.000743003 M -3.449628 1.991378 L -0.00163644 0.000743003 " transform="matrix(0.959571,0,0,-0.959571,5.142195,15.512432)"/>
<path style="fill:none;stroke-width:0.3985;stroke-linecap:butt;stroke-linejoin:miter;stroke:rgb(0%,0%,0%);stroke-opacity:1;stroke-miterlimit:10;" d="M -0.00163644 -3.984597 L -0.00163644 0.000743003 M 3.450425 1.991378 L -0.00163644 0.000743003 M -3.449628 1.991378 L -0.00163644 0.000743003 " transform="matrix(0.959571,0,0,-0.959571,5.142195,15.512432)"/>
<path style="fill:none;stroke-width:0.3985;stroke-linecap:butt;stroke-linejoin:miter;stroke:rgb(0%,0%,0%);stroke-opacity:1;stroke-miterlimit:10;" d="M -0.00163644 -3.984597 L -0.00163644 0.000743003 M 3.450425 1.991378 L -0.00163644 0.000743003 M -3.449628 1.991378 L -0.00163644 0.000743003 " transform="matrix(0.959571,0,0,-0.959571,5.142195,15.512432)"/>
<path style="fill:none;stroke-width:0.3985;stroke-linecap:butt;stroke-linejoin:miter;stroke:rgb(0%,0%,0%);stroke-opacity:1;stroke-miterlimit:10;" d="M -0.00163644 -3.984597 L -0.00163644 0.000743003 M 3.450425 1.991378 L -0.00163644 0.000743003 M -3.449628 1.991378 L -0.00163644 0.000743003 " transform="matrix(0.959571,0,0,-0.959571,5.142195,15.512432)"/>
<path style="fill:none;stroke-width:0.3985;stroke-linecap:butt;stroke-linejoin:miter;stroke:rgb(0%,0%,0%);stroke-opacity:1;stroke-miterlimit:10;" d="M -0.00163644 -3.984597 L -0.00163644 0.000743003 M 3.450425 1.991378 L -0.00163644 0.000743003 M -3.449628 1.991378 L -0.00163644 0.000743003 " transform="matrix(0.959571,0,0,-0.959571,5.142195,15.512432)"/>
<path style="fill:none;stroke-width:0.3985;stroke-linecap:butt;stroke-linejoin:miter;stroke:rgb(0%,0%,0%);stroke-opacity:1;stroke-miterlimit:10;" d="M -0.00163644 -3.984597 L -0.00163644 0.000743003 M 3.450425 1.991378 L -0.00163644 0.000743003 M -3.449628 1.991378 L -0.00163644 0.000743003 " transform="matrix(0.959571,0,0,-0.959571,5.142195,15.512432)"/>
<path style="fill:none;stroke-width:0.3985;stroke-linecap:butt;stroke-linejoin:miter;stroke:rgb(0%,0%,0%);stroke-opacity:1;stroke-miterlimit:10;" d="M -0.00163644 -3.984597 L -0.00163644 0.000743003 M 3.450425 1.991378 L -0.00163644 0.000743003 M -3.449628 1.991378 L -0.00163644 0.000743003 " transform="matrix(0.959571,0,0,-0.959571,5.142195,15.512432)"/>
</g>
<path style="fill:none;stroke-width:0.3985;stroke-linecap:butt;stroke-linejoin:miter;stroke:rgb(0%,0%,0%);stroke-opacity:1;stroke-miterlimit:10;" d="M 28.347608 10.190025 L 28.347608 14.175365 M 31.79967 16.166 L 28.347608 14.175365 M 24.895546 16.166 L 28.347608 14.175365 " transform="matrix(0.959571,0,0,-0.959571,5.142195,15.512432)"/>
<path style="fill:none;stroke-width:0.3985;stroke-linecap:butt;stroke-linejoin:miter;stroke:rgb(0%,0%,0%);stroke-opacity:1;stroke-miterlimit:10;" d="M 28.347608 10.190025 L 28.347608 14.175365 M 31.79967 16.166 L 28.347608 14.175365 M 24.895546 16.166 L 28.347608 14.175365 " transform="matrix(0.959571,0,0,-0.959571,5.142195,15.512432)"/>
<path style="fill:none;stroke-width:0.3985;stroke-linecap:butt;stroke-linejoin:miter;stroke:rgb(0%,0%,0%);stroke-opacity:1;stroke-miterlimit:10;" d="M 28.347608 10.190025 L 28.347608 14.175365 M 31.79967 16.166 L 28.347608 14.175365 M 24.895546 16.166 L 28.347608 14.175365 " transform="matrix(0.959571,0,0,-0.959571,5.142195,15.512432)"/>
<path style="fill:none;stroke-width:0.3985;stroke-linecap:butt;stroke-linejoin:miter;stroke:rgb(0%,0%,0%);stroke-opacity:1;stroke-miterlimit:10;" d="M 28.347608 10.190025 L 28.347608 14.175365 M 31.79967 16.166 L 28.347608 14.175365 M 24.895546 16.166 L 28.347608 14.175365 " transform="matrix(0.959571,0,0,-0.959571,5.142195,15.512432)"/>
<path style="fill:none;stroke-width:0.3985;stroke-linecap:butt;stroke-linejoin:miter;stroke:rgb(0%,0%,0%);stroke-opacity:1;stroke-miterlimit:10;" d="M 28.347608 10.190025 L 28.347608 14.175365 M 31.79967 16.166 L 28.347608 14.175365 M 24.895546 16.166 L 28.347608 14.175365 " transform="matrix(0.959571,0,0,-0.959571,5.142195,15.512432)"/>
<path style="fill:none;stroke-width:0.3985;stroke-linecap:butt;stroke-linejoin:miter;stroke:rgb(0%,0%,0%);stroke-opacity:1;stroke-miterlimit:10;" d="M 28.347608 10.190025 L 28.347608 14.175365 M 31.79967 16.166 L 28.347608 14.175365 M 24.895546 16.166 L 28.347608 14.175365 " transform="matrix(0.959571,0,0,-0.959571,5.142195,15.512432)"/>
<path style="fill:none;stroke-width:0.3985;stroke-linecap:butt;stroke-linejoin:miter;stroke:rgb(0%,0%,0%);stroke-opacity:1;stroke-miterlimit:10;" d="M 28.347608 10.190025 L 28.347608 14.175365 M 31.79967 16.166 L 28.347608 14.175365 M 24.895546 16.166 L 28.347608 14.175365 " transform="matrix(0.959571,0,0,-0.959571,5.142195,15.512432)"/>
<path style="fill:none;stroke-width:0.3985;stroke-linecap:butt;stroke-linejoin:miter;stroke:rgb(0%,0%,0%);stroke-opacity:1;stroke-miterlimit:10;" d="M 28.347608 10.190025 L 28.347608 14.175365 M 31.79967 16.166 L 28.347608 14.175365 M 24.895546 16.166 L 28.347608 14.175365 " transform="matrix(0.959571,0,0,-0.959571,5.142195,15.512432)"/>
<path style="fill:none;stroke-width:0.3985;stroke-linecap:butt;stroke-linejoin:miter;stroke:rgb(0%,0%,0%);stroke-opacity:1;stroke-miterlimit:10;" d="M 28.347608 10.190025 L 28.347608 14.175365 M 31.79967 16.166 L 28.347608 14.175365 M 24.895546 16.166 L 28.347608 14.175365 " transform="matrix(0.959571,0,0,-0.959571,5.142195,15.512432)"/>
<path style="fill:none;stroke-width:0.3985;stroke-linecap:butt;stroke-linejoin:miter;stroke:rgb(0%,0%,0%);stroke-opacity:1;stroke-miterlimit:10;" d="M 28.347608 10.190025 L 28.347608 14.175365 M 31.79967 16.166 L 28.347608 14.175365 M 24.895546 16.166 L 28.347608 14.175365 " transform="matrix(0.959571,0,0,-0.959571,5.142195,15.512432)"/>
<path style="fill:none;stroke-width:0.3985;stroke-linecap:butt;stroke-linejoin:miter;stroke:rgb(0%,0%,0%);stroke-opacity:1;stroke-miterlimit:10;" d="M 28.347608 10.190025 L 28.347608 14.175365 M 31.79967 16.166 L 28.347608 14.175365 M 24.895546 16.166 L 28.347608 14.175365 " transform="matrix(0.959571,0,0,-0.959571,5.142195,15.512432)"/>
<path style="fill:none;stroke-width:0.3985;stroke-linecap:butt;stroke-linejoin:miter;stroke:rgb(0%,0%,0%);stroke-opacity:1;stroke-miterlimit:10;" d="M 28.347608 10.190025 L 28.347608 14.175365 M 31.79967 16.166 L 28.347608 14.175365 M 24.895546 16.166 L 28.347608 14.175365 " transform="matrix(0.959571,0,0,-0.959571,5.142195,15.512432)"/>
<path style="fill:none;stroke-width:0.3985;stroke-linecap:butt;stroke-linejoin:miter;stroke:rgb(0%,0%,0%);stroke-opacity:1;stroke-miterlimit:10;" d="M 28.347608 10.190025 L 28.347608 14.175365 M 31.79967 16.166 L 28.347608 14.175365 M 24.895546 16.166 L 28.347608 14.175365 " transform="matrix(0.959571,0,0,-0.959571,5.142195,15.512432)"/>
<path style="fill:none;stroke-width:0.3985;stroke-linecap:butt;stroke-linejoin:miter;stroke:rgb(0%,0%,0%);stroke-opacity:1;stroke-miterlimit:10;" d="M 28.347608 10.190025 L 28.347608 14.175365 M 31.79967 16.166 L 28.347608 14.175365 M 24.895546 16.166 L 28.347608 14.175365 " transform="matrix(0.959571,0,0,-0.959571,5.142195,15.512432)"/>
<path style="fill:none;stroke-width:0.3985;stroke-linecap:butt;stroke-linejoin:miter;stroke:rgb(0%,0%,0%);stroke-opacity:1;stroke-miterlimit:10;" d="M 28.347608 10.190025 L 28.347608 14.175365 M 31.79967 16.166 L 28.347608 14.175365 M 24.895546 16.166 L 28.347608 14.175365 " transform="matrix(0.959571,0,0,-0.959571,5.142195,15.512432)"/>
<path style="fill:none;stroke-width:0.3985;stroke-linecap:butt;stroke-linejoin:miter;stroke:rgb(0%,0%,0%);stroke-opacity:1;stroke-miterlimit:10;" d="M 28.347608 10.190025 L 28.347608 14.175365 M 31.79967 16.166 L 28.347608 14.175365 M 24.895546 16.166 L 28.347608 14.175365 " transform="matrix(0.959571,0,0,-0.959571,5.142195,15.512432)"/>
<path style="fill:none;stroke-width:0.3985;stroke-linecap:butt;stroke-linejoin:miter;stroke:rgb(0%,0%,0%);stroke-opacity:1;stroke-miterlimit:10;" d="M 28.347608 10.190025 L 28.347608 14.175365 M 31.79967 16.166 L 28.347608 14.175365 M 24.895546 16.166 L 28.347608 14.175365 " transform="matrix(0.959571,0,0,-0.959571,5.142195,15.512432)"/>
<path style="fill:none;stroke-width:0.3985;stroke-linecap:butt;stroke-linejoin:miter;stroke:rgb(0%,0%,0%);stroke-opacity:1;stroke-miterlimit:10;" d="M 28.347608 10.190025 L 28.347608 14.175365 M 31.79967 16.166 L 28.347608 14.175365 M 24.895546 16.166 L 28.347608 14.175365 " transform="matrix(0.959571,0,0,-0.959571,5.142195,15.512432)"/>
<path style="fill:none;stroke-width:0.3985;stroke-linecap:butt;stroke-linejoin:miter;stroke:rgb(0%,0%,0%);stroke-opacity:1;stroke-miterlimit:10;" d="M 28.347608 10.190025 L 28.347608 14.175365 M 31.79967 16.166 L 28.347608 14.175365 M 24.895546 16.166 L 28.347608 14.175365 " transform="matrix(0.959571,0,0,-0.959571,5.142195,15.512432)"/>
<path style="fill:none;stroke-width:0.3985;stroke-linecap:butt;stroke-linejoin:miter;stroke:rgb(0%,0%,0%);stroke-opacity:1;stroke-miterlimit:10;" d="M 28.347608 10.190025 L 28.347608 14.175365 M 31.79967 16.166 L 28.347608 14.175365 M 24.895546 16.166 L 28.347608 14.175365 " transform="matrix(0.959571,0,0,-0.959571,5.142195,15.512432)"/>
<path style="fill:none;stroke-width:0.3985;stroke-linecap:butt;stroke-linejoin:miter;stroke:rgb(0%,0%,0%);stroke-opacity:1;stroke-miterlimit:10;" d="M 28.347608 10.190025 L 28.347608 14.175365 M 31.79967 16.166 L 28.347608 14.175365 M 24.895546 16.166 L 28.347608 14.175365 " transform="matrix(0.959571,0,0,-0.959571,5.142195,15.512432)"/>
<path style="fill:none;stroke-width:0.3985;stroke-linecap:butt;stroke-linejoin:miter;stroke:rgb(0%,0%,0%);stroke-opacity:1;stroke-miterlimit:10;" d="M 28.347608 10.190025 L 28.347608 14.175365 M 31.79967 16.166 L 28.347608 14.175365 M 24.895546 16.166 L 28.347608 14.175365 " transform="matrix(0.959571,0,0,-0.959571,5.142195,15.512432)"/>
<path style="fill:none;stroke-width:0.3985;stroke-linecap:butt;stroke-linejoin:miter;stroke:rgb(0%,0%,0%);stroke-opacity:1;stroke-miterlimit:10;" d="M 28.347608 10.190025 L 28.347608 14.175365 M 31.79967 16.166 L 28.347608 14.175365 M 24.895546 16.166 L 28.347608 14.175365 " transform="matrix(0.959571,0,0,-0.959571,5.142195,15.512432)"/>
<path style="fill:none;stroke-width:0.3985;stroke-linecap:butt;stroke-linejoin:miter;stroke:rgb(0%,0%,0%);stroke-opacity:1;stroke-miterlimit:10;" d="M 28.347608 10.190025 L 28.347608 14.175365 M 31.79967 16.166 L 28.347608 14.175365 M 24.895546 16.166 L 28.347608 14.175365 " transform="matrix(0.959571,0,0,-0.959571,5.142195,15.512432)"/>
<g clip-path="url(#clip3)" clip-rule="nonzero">
<path style="fill:none;stroke-width:0.3985;stroke-linecap:butt;stroke-linejoin:miter;stroke:rgb(0%,0%,0%);stroke-opacity:1;stroke-miterlimit:10;" d="M 56.692782 -3.984597 L 56.692782 0.000743003 M 60.144844 1.991378 L 56.692782 0.000743003 M 53.24072 1.991378 L 56.692782 0.000743003 " transform="matrix(0.959571,0,0,-0.959571,5.142195,15.512432)"/>
<path style="fill:none;stroke-width:0.3985;stroke-linecap:butt;stroke-linejoin:miter;stroke:rgb(0%,0%,0%);stroke-opacity:1;stroke-miterlimit:10;" d="M 56.692782 -3.984597 L 56.692782 0.000743003 M 60.144844 1.991378 L 56.692782 0.000743003 M 53.24072 1.991378 L 56.692782 0.000743003 " transform="matrix(0.959571,0,0,-0.959571,5.142195,15.512432)"/>
<path style="fill:none;stroke-width:0.3985;stroke-linecap:butt;stroke-linejoin:miter;stroke:rgb(0%,0%,0%);stroke-opacity:1;stroke-miterlimit:10;" d="M 56.692782 -3.984597 L 56.692782 0.000743003 M 60.144844 1.991378 L 56.692782 0.000743003 M 53.24072 1.991378 L 56.692782 0.000743003 " transform="matrix(0.959571,0,0,-0.959571,5.142195,15.512432)"/>
<path style="fill:none;stroke-width:0.3985;stroke-linecap:butt;stroke-linejoin:miter;stroke:rgb(0%,0%,0%);stroke-opacity:1;stroke-miterlimit:10;" d="M 56.692782 -3.984597 L 56.692782 0.000743003 M 60.144844 1.991378 L 56.692782 0.000743003 M 53.24072 1.991378 L 56.692782 0.000743003 " transform="matrix(0.959571,0,0,-0.959571,5.142195,15.512432)"/>
<path style="fill:none;stroke-width:0.3985;stroke-linecap:butt;stroke-linejoin:miter;stroke:rgb(0%,0%,0%);stroke-opacity:1;stroke-miterlimit:10;" d="M 56.692782 -3.984597 L 56.692782 0.000743003 M 60.144844 1.991378 L 56.692782 0.000743003 M 53.24072 1.991378 L 56.692782 0.000743003 " transform="matrix(0.959571,0,0,-0.959571,5.142195,15.512432)"/>
<path style="fill:none;stroke-width:0.3985;stroke-linecap:butt;stroke-linejoin:miter;stroke:rgb(0%,0%,0%);stroke-opacity:1;stroke-miterlimit:10;" d="M 56.692782 -3.984597 L 56.692782 0.000743003 M 60.144844 1.991378 L 56.692782 0.000743003 M 53.24072 1.991378 L 56.692782 0.000743003 " transform="matrix(0.959571,0,0,-0.959571,5.142195,15.512432)"/>
<path style="fill:none;stroke-width:0.3985;stroke-linecap:butt;stroke-linejoin:miter;stroke:rgb(0%,0%,0%);stroke-opacity:1;stroke-miterlimit:10;" d="M 56.692782 -3.984597 L 56.692782 0.000743003 M 60.144844 1.991378 L 56.692782 0.000743003 M 53.24072 1.991378 L 56.692782 0.000743003 " transform="matrix(0.959571,0,0,-0.959571,5.142195,15.512432)"/>
<path style="fill:none;stroke-width:0.3985;stroke-linecap:butt;stroke-linejoin:miter;stroke:rgb(0%,0%,0%);stroke-opacity:1;stroke-miterlimit:10;" d="M 56.692782 -3.984597 L 56.692782 0.000743003 M 60.144844 1.991378 L 56.692782 0.000743003 M 53.24072 1.991378 L 56.692782 0.000743003 " transform="matrix(0.959571,0,0,-0.959571,5.142195,15.512432)"/>
<path style="fill:none;stroke-width:0.3985;stroke-linecap:butt;stroke-linejoin:miter;stroke:rgb(0%,0%,0%);stroke-opacity:1;stroke-miterlimit:10;" d="M 56.692782 -3.984597 L 56.692782 0.000743003 M 60.144844 1.991378 L 56.692782 0.000743003 M 53.24072 1.991378 L 56.692782 0.000743003 " transform="matrix(0.959571,0,0,-0.959571,5.142195,15.512432)"/>
<path style="fill:none;stroke-width:0.3985;stroke-linecap:butt;stroke-linejoin:miter;stroke:rgb(0%,0%,0%);stroke-opacity:1;stroke-miterlimit:10;" d="M 56.692782 -3.984597 L 56.692782 0.000743003 M 60.144844 1.991378 L 56.692782 0.000743003 M 53.24072 1.991378 L 56.692782 0.000743003 " transform="matrix(0.959571,0,0,-0.959571,5.142195,15.512432)"/>
<path style="fill:none;stroke-width:0.3985;stroke-linecap:butt;stroke-linejoin:miter;stroke:rgb(0%,0%,0%);stroke-opacity:1;stroke-miterlimit:10;" d="M 56.692782 -3.984597 L 56.692782 0.000743003 M 60.144844 1.991378 L 56.692782 0.000743003 M 53.24072 1.991378 L 56.692782 0.000743003 " transform="matrix(0.959571,0,0,-0.959571,5.142195,15.512432)"/>
<path style="fill:none;stroke-width:0.3985;stroke-linecap:butt;stroke-linejoin:miter;stroke:rgb(0%,0%,0%);stroke-opacity:1;stroke-miterlimit:10;" d="M 56.692782 -3.984597 L 56.692782 0.000743003 M 60.144844 1.991378 L 56.692782 0.000743003 M 53.24072 1.991378 L 56.692782 0.000743003 " transform="matrix(0.959571,0,0,-0.959571,5.142195,15.512432)"/>
<path style="fill:none;stroke-width:0.3985;stroke-linecap:butt;stroke-linejoin:miter;stroke:rgb(0%,0%,0%);stroke-opacity:1;stroke-miterlimit:10;" d="M 56.692782 -3.984597 L 56.692782 0.000743003 M 60.144844 1.991378 L 56.692782 0.000743003 M 53.24072 1.991378 L 56.692782 0.000743003 " transform="matrix(0.959571,0,0,-0.959571,5.142195,15.512432)"/>
<path style="fill:none;stroke-width:0.3985;stroke-linecap:butt;stroke-linejoin:miter;stroke:rgb(0%,0%,0%);stroke-opacity:1;stroke-miterlimit:10;" d="M 56.692782 -3.984597 L 56.692782 0.000743003 M 60.144844 1.991378 L 56.692782 0.000743003 M 53.24072 1.991378 L 56.692782 0.000743003 " transform="matrix(0.959571,0,0,-0.959571,5.142195,15.512432)"/>
<path style="fill:none;stroke-width:0.3985;stroke-linecap:butt;stroke-linejoin:miter;stroke:rgb(0%,0%,0%);stroke-opacity:1;stroke-miterlimit:10;" d="M 56.692782 -3.984597 L 56.692782 0.000743003 M 60.144844 1.991378 L 56.692782 0.000743003 M 53.24072 1.991378 L 56.692782 0.000743003 " transform="matrix(0.959571,0,0,-0.959571,5.142195,15.512432)"/>
<path style="fill:none;stroke-width:0.3985;stroke-linecap:butt;stroke-linejoin:miter;stroke:rgb(0%,0%,0%);stroke-opacity:1;stroke-miterlimit:10;" d="M 56.692782 -3.984597 L 56.692782 0.000743003 M 60.144844 1.991378 L 56.692782 0.000743003 M 53.24072 1.991378 L 56.692782 0.000743003 " transform="matrix(0.959571,0,0,-0.959571,5.142195,15.512432)"/>
<path style="fill:none;stroke-width:0.3985;stroke-linecap:butt;stroke-linejoin:miter;stroke:rgb(0%,0%,0%);stroke-opacity:1;stroke-miterlimit:10;" d="M 56.692782 -3.984597 L 56.692782 0.000743003 M 60.144844 1.991378 L 56.692782 0.000743003 M 53.24072 1.991378 L 56.692782 0.000743003 " transform="matrix(0.959571,0,0,-0.959571,5.142195,15.512432)"/>
<path style="fill:none;stroke-width:0.3985;stroke-linecap:butt;stroke-linejoin:miter;stroke:rgb(0%,0%,0%);stroke-opacity:1;stroke-miterlimit:10;" d="M 56.692782 -3.984597 L 56.692782 0.000743003 M 60.144844 1.991378 L 56.692782 0.000743003 M 53.24072 1.991378 L 56.692782 0.000743003 " transform="matrix(0.959571,0,0,-0.959571,5.142195,15.512432)"/>
<path style="fill:none;stroke-width:0.3985;stroke-linecap:butt;stroke-linejoin:miter;stroke:rgb(0%,0%,0%);stroke-opacity:1;stroke-miterlimit:10;" d="M 56.692782 -3.984597 L 56.692782 0.000743003 M 60.144844 1.991378 L 56.692782 0.000743003 M 53.24072 1.991378 L 56.692782 0.000743003 " transform="matrix(0.959571,0,0,-0.959571,5.142195,15.512432)"/>
<path style="fill:none;stroke-width:0.3985;stroke-linecap:butt;stroke-linejoin:miter;stroke:rgb(0%,0%,0%);stroke-opacity:1;stroke-miterlimit:10;" d="M 56.692782 -3.984597 L 56.692782 0.000743003 M 60.144844 1.991378 L 56.692782 0.000743003 M 53.24072 1.991378 L 56.692782 0.000743003 " transform="matrix(0.959571,0,0,-0.959571,5.142195,15.512432)"/>
<path style="fill:none;stroke-width:0.3985;stroke-linecap:butt;stroke-linejoin:miter;stroke:rgb(0%,0%,0%);stroke-opacity:1;stroke-miterlimit:10;" d="M 56.692782 -3.984597 L 56.692782 0.000743003 M 60.144844 1.991378 L 56.692782 0.000743003 M 53.24072 1.991378 L 56.692782 0.000743003 " transform="matrix(0.959571,0,0,-0.959571,5.142195,15.512432)"/>
<path style="fill:none;stroke-width:0.3985;stroke-linecap:butt;stroke-linejoin:miter;stroke:rgb(0%,0%,0%);stroke-opacity:1;stroke-miterlimit:10;" d="M 56.692782 -3.984597 L 56.692782 0.000743003 M 60.144844 1.991378 L 56.692782 0.000743003 M 53.24072 1.991378 L 56.692782 0.000743003 " transform="matrix(0.959571,0,0,-0.959571,5.142195,15.512432)"/>
<path style="fill:none;stroke-width:0.3985;stroke-linecap:butt;stroke-linejoin:miter;stroke:rgb(0%,0%,0%);stroke-opacity:1;stroke-miterlimit:10;" d="M 56.692782 -3.984597 L 56.692782 0.000743003 M 60.144844 1.991378 L 56.692782 0.000743003 M 53.24072 1.991378 L 56.692782 0.000743003 " transform="matrix(0.959571,0,0,-0.959571,5.142195,15.512432)"/>
<path style="fill:none;stroke-width:0.3985;stroke-linecap:butt;stroke-linejoin:miter;stroke:rgb(0%,0%,0%);stroke-opacity:1;stroke-miterlimit:10;" d="M 56.692782 -3.984597 L 56.692782 0.000743003 M 60.144844 1.991378 L 56.692782 0.000743003 M 53.24072 1.991378 L 56.692782 0.000743003 " transform="matrix(0.959571,0,0,-0.959571,5.142195,15.512432)"/>
</g>
<g clip-path="url(#clip4)" clip-rule="nonzero">
<path style="fill:none;stroke-width:0.3985;stroke-linecap:butt;stroke-linejoin:miter;stroke:rgb(0%,0%,0%);stroke-opacity:1;stroke-miterlimit:10;" d="M 85.042026 10.190025 L 85.042026 14.175365 M 88.490017 16.166 L 85.042026 14.175365 M 81.589964 16.166 L 85.042026 14.175365 " transform="matrix(0.959571,0,0,-0.959571,5.142195,15.512432)"/>
<path style="fill:none;stroke-width:0.3985;stroke-linecap:butt;stroke-linejoin:miter;stroke:rgb(0%,0%,0%);stroke-opacity:1;stroke-miterlimit:10;" d="M 85.042026 10.190025 L 85.042026 14.175365 M 88.490017 16.166 L 85.042026 14.175365 M 81.589964 16.166 L 85.042026 14.175365 " transform="matrix(0.959571,0,0,-0.959571,5.142195,15.512432)"/>
<path style="fill:none;stroke-width:0.3985;stroke-linecap:butt;stroke-linejoin:miter;stroke:rgb(0%,0%,0%);stroke-opacity:1;stroke-miterlimit:10;" d="M 85.042026 10.190025 L 85.042026 14.175365 M 88.490017 16.166 L 85.042026 14.175365 M 81.589964 16.166 L 85.042026 14.175365 " transform="matrix(0.959571,0,0,-0.959571,5.142195,15.512432)"/>
<path style="fill:none;stroke-width:0.3985;stroke-linecap:butt;stroke-linejoin:miter;stroke:rgb(0%,0%,0%);stroke-opacity:1;stroke-miterlimit:10;" d="M 85.042026 10.190025 L 85.042026 14.175365 M 88.490017 16.166 L 85.042026 14.175365 M 81.589964 16.166 L 85.042026 14.175365 " transform="matrix(0.959571,0,0,-0.959571,5.142195,15.512432)"/>
<path style="fill:none;stroke-width:0.3985;stroke-linecap:butt;stroke-linejoin:miter;stroke:rgb(0%,0%,0%);stroke-opacity:1;stroke-miterlimit:10;" d="M 85.042026 10.190025 L 85.042026 14.175365 M 88.490017 16.166 L 85.042026 14.175365 M 81.589964 16.166 L 85.042026 14.175365 " transform="matrix(0.959571,0,0,-0.959571,5.142195,15.512432)"/>
<path style="fill:none;stroke-width:0.3985;stroke-linecap:butt;stroke-linejoin:miter;stroke:rgb(0%,0%,0%);stroke-opacity:1;stroke-miterlimit:10;" d="M 85.042026 10.190025 L 85.042026 14.175365 M 88.490017 16.166 L 85.042026 14.175365 M 81.589964 16.166 L 85.042026 14.175365 " transform="matrix(0.959571,0,0,-0.959571,5.142195,15.512432)"/>
<path style="fill:none;stroke-width:0.3985;stroke-linecap:butt;stroke-linejoin:miter;stroke:rgb(0%,0%,0%);stroke-opacity:1;stroke-miterlimit:10;" d="M 85.042026 10.190025 L 85.042026 14.175365 M 88.490017 16.166 L 85.042026 14.175365 M 81.589964 16.166 L 85.042026 14.175365 " transform="matrix(0.959571,0,0,-0.959571,5.142195,15.512432)"/>
<path style="fill:none;stroke-width:0.3985;stroke-linecap:butt;stroke-linejoin:miter;stroke:rgb(0%,0%,0%);stroke-opacity:1;stroke-miterlimit:10;" d="M 85.042026 10.190025 L 85.042026 14.175365 M 88.490017 16.166 L 85.042026 14.175365 M 81.589964 16.166 L 85.042026 14.175365 " transform="matrix(0.959571,0,0,-0.959571,5.142195,15.512432)"/>
<path style="fill:none;stroke-width:0.3985;stroke-linecap:butt;stroke-linejoin:miter;stroke:rgb(0%,0%,0%);stroke-opacity:1;stroke-miterlimit:10;" d="M 85.042026 10.190025 L 85.042026 14.175365 M 88.490017 16.166 L 85.042026 14.175365 M 81.589964 16.166 L 85.042026 14.175365 " transform="matrix(0.959571,0,0,-0.959571,5.142195,15.512432)"/>
<path style="fill:none;stroke-width:0.3985;stroke-linecap:butt;stroke-linejoin:miter;stroke:rgb(0%,0%,0%);stroke-opacity:1;stroke-miterlimit:10;" d="M 85.042026 10.190025 L 85.042026 14.175365 M 88.490017 16.166 L 85.042026 14.175365 M 81.589964 16.166 L 85.042026 14.175365 " transform="matrix(0.959571,0,0,-0.959571,5.142195,15.512432)"/>
<path style="fill:none;stroke-width:0.3985;stroke-linecap:butt;stroke-linejoin:miter;stroke:rgb(0%,0%,0%);stroke-opacity:1;stroke-miterlimit:10;" d="M 85.042026 10.190025 L 85.042026 14.175365 M 88.490017 16.166 L 85.042026 14.175365 M 81.589964 16.166 L 85.042026 14.175365 " transform="matrix(0.959571,0,0,-0.959571,5.142195,15.512432)"/>
<path style="fill:none;stroke-width:0.3985;stroke-linecap:butt;stroke-linejoin:miter;stroke:rgb(0%,0%,0%);stroke-opacity:1;stroke-miterlimit:10;" d="M 85.042026 10.190025 L 85.042026 14.175365 M 88.490017 16.166 L 85.042026 14.175365 M 81.589964 16.166 L 85.042026 14.175365 " transform="matrix(0.959571,0,0,-0.959571,5.142195,15.512432)"/>
<path style="fill:none;stroke-width:0.3985;stroke-linecap:butt;stroke-linejoin:miter;stroke:rgb(0%,0%,0%);stroke-opacity:1;stroke-miterlimit:10;" d="M 85.042026 10.190025 L 85.042026 14.175365 M 88.490017 16.166 L 85.042026 14.175365 M 81.589964 16.166 L 85.042026 14.175365 " transform="matrix(0.959571,0,0,-0.959571,5.142195,15.512432)"/>
<path style="fill:none;stroke-width:0.3985;stroke-linecap:butt;stroke-linejoin:miter;stroke:rgb(0%,0%,0%);stroke-opacity:1;stroke-miterlimit:10;" d="M 85.042026 10.190025 L 85.042026 14.175365 M 88.490017 16.166 L 85.042026 14.175365 M 81.589964 16.166 L 85.042026 14.175365 " transform="matrix(0.959571,0,0,-0.959571,5.142195,15.512432)"/>
<path style="fill:none;stroke-width:0.3985;stroke-linecap:butt;stroke-linejoin:miter;stroke:rgb(0%,0%,0%);stroke-opacity:1;stroke-miterlimit:10;" d="M 85.042026 10.190025 L 85.042026 14.175365 M 88.490017 16.166 L 85.042026 14.175365 M 81.589964 16.166 L 85.042026 14.175365 " transform="matrix(0.959571,0,0,-0.959571,5.142195,15.512432)"/>
<path style="fill:none;stroke-width:0.3985;stroke-linecap:butt;stroke-linejoin:miter;stroke:rgb(0%,0%,0%);stroke-opacity:1;stroke-miterlimit:10;" d="M 85.042026 10.190025 L 85.042026 14.175365 M 88.490017 16.166 L 85.042026 14.175365 M 81.589964 16.166 L 85.042026 14.175365 " transform="matrix(0.959571,0,0,-0.959571,5.142195,15.512432)"/>
<path style="fill:none;stroke-width:0.3985;stroke-linecap:butt;stroke-linejoin:miter;stroke:rgb(0%,0%,0%);stroke-opacity:1;stroke-miterlimit:10;" d="M 85.042026 10.190025 L 85.042026 14.175365 M 88.490017 16.166 L 85.042026 14.175365 M 81.589964 16.166 L 85.042026 14.175365 " transform="matrix(0.959571,0,0,-0.959571,5.142195,15.512432)"/>
<path style="fill:none;stroke-width:0.3985;stroke-linecap:butt;stroke-linejoin:miter;stroke:rgb(0%,0%,0%);stroke-opacity:1;stroke-miterlimit:10;" d="M 85.042026 10.190025 L 85.042026 14.175365 M 88.490017 16.166 L 85.042026 14.175365 M 81.589964 16.166 L 85.042026 14.175365 " transform="matrix(0.959571,0,0,-0.959571,5.142195,15.512432)"/>
<path style="fill:none;stroke-width:0.3985;stroke-linecap:butt;stroke-linejoin:miter;stroke:rgb(0%,0%,0%);stroke-opacity:1;stroke-miterlimit:10;" d="M 85.042026 10.190025 L 85.042026 14.175365 M 88.490017 16.166 L 85.042026 14.175365 M 81.589964 16.166 L 85.042026 14.175365 " transform="matrix(0.959571,0,0,-0.959571,5.142195,15.512432)"/>
<path style="fill:none;stroke-width:0.3985;stroke-linecap:butt;stroke-linejoin:miter;stroke:rgb(0%,0%,0%);stroke-opacity:1;stroke-miterlimit:10;" d="M 85.042026 10.190025 L 85.042026 14.175365 M 88.490017 16.166 L 85.042026 14.175365 M 81.589964 16.166 L 85.042026 14.175365 " transform="matrix(0.959571,0,0,-0.959571,5.142195,15.512432)"/>
<path style="fill:none;stroke-width:0.3985;stroke-linecap:butt;stroke-linejoin:miter;stroke:rgb(0%,0%,0%);stroke-opacity:1;stroke-miterlimit:10;" d="M 85.042026 10.190025 L 85.042026 14.175365 M 88.490017 16.166 L 85.042026 14.175365 M 81.589964 16.166 L 85.042026 14.175365 " transform="matrix(0.959571,0,0,-0.959571,5.142195,15.512432)"/>
<path style="fill:none;stroke-width:0.3985;stroke-linecap:butt;stroke-linejoin:miter;stroke:rgb(0%,0%,0%);stroke-opacity:1;stroke-miterlimit:10;" d="M 85.042026 10.190025 L 85.042026 14.175365 M 88.490017 16.166 L 85.042026 14.175365 M 81.589964 16.166 L 85.042026 14.175365 " transform="matrix(0.959571,0,0,-0.959571,5.142195,15.512432)"/>
<path style="fill:none;stroke-width:0.3985;stroke-linecap:butt;stroke-linejoin:miter;stroke:rgb(0%,0%,0%);stroke-opacity:1;stroke-miterlimit:10;" d="M 85.042026 10.190025 L 85.042026 14.175365 M 88.490017 16.166 L 85.042026 14.175365 M 81.589964 16.166 L 85.042026 14.175365 " transform="matrix(0.959571,0,0,-0.959571,5.142195,15.512432)"/>
<path style="fill:none;stroke-width:0.3985;stroke-linecap:butt;stroke-linejoin:miter;stroke:rgb(0%,0%,0%);stroke-opacity:1;stroke-miterlimit:10;" d="M 85.042026 10.190025 L 85.042026 14.175365 M 88.490017 16.166 L 85.042026 14.175365 M 81.589964 16.166 L 85.042026 14.175365 " transform="matrix(0.959571,0,0,-0.959571,5.142195,15.512432)"/>
</g>
</g>
</svg>
