<?xml version="1.0" encoding="UTF-8"?>
<svg xmlns="http://www.w3.org/2000/svg" xmlns:xlink="http://www.w3.org/1999/xlink" width="93.009pt" height="14.572pt" viewBox="0 0 93.009 14.572" version="1.2">
<defs>
<clipPath id="clip1">
  <path d="M 0.84375 0 L 91.199219 0 L 91.199219 14.15625 L 0.84375 14.15625 Z M 0.84375 0 "/>
</clipPath>
<clipPath id="clip2">
  <path d="M 0.84375 13 L 9 13 L 9 14.15625 L 0.84375 14.15625 Z M 0.84375 13 "/>
</clipPath>
<clipPath id="clip3">
  <path d="M 55 13 L 64 13 L 64 14.15625 L 55 14.15625 Z M 55 13 "/>
</clipPath>
<clipPath id="clip4">
  <path d="M 83 0 L 91.199219 0 L 91.199219 1 L 83 1 Z M 83 0 "/>
</clipPath>
</defs>
<g id="surface1">
<g clip-path="url(#clip1)" clip-rule="nonzero">
<path style="fill:none;stroke-width:0.3985;stroke-linecap:butt;stroke-linejoin:miter;stroke:rgb(0%,0%,0%);stroke-opacity:1;stroke-miterlimit:10;" d="M 0.00194414 0.00201026 L 28.345846 14.171951 L 56.69377 0.00201026 L 85.041693 14.171951 " transform="matrix(0.971467,0,0,-0.971467,4.716861,13.96289)"/>
</g>
<g clip-path="url(#clip2)" clip-rule="nonzero">
<path style="fill:none;stroke-width:0.3985;stroke-linecap:butt;stroke-linejoin:miter;stroke:rgb(0%,0%,0%);stroke-opacity:1;stroke-miterlimit:10;" d="M 3.986737 0.00201026 L -3.98687 0.00201026 " transform="matrix(0.971467,0,0,-0.971467,4.716861,13.96289)"/>
<path style="fill:none;stroke-width:0.3985;stroke-linecap:butt;stroke-linejoin:miter;stroke:rgb(0%,0%,0%);stroke-opacity:1;stroke-miterlimit:10;" d="M 3.986737 0.00201026 L -3.98687 0.00201026 " transform="matrix(0.971467,0,0,-0.971467,4.716861,13.96289)"/>
<path style="fill:none;stroke-width:0.3985;stroke-linecap:butt;stroke-linejoin:miter;stroke:rgb(0%,0%,0%);stroke-opacity:1;stroke-miterlimit:10;" d="M 3.986737 0.00201026 L -3.98687 0.00201026 " transform="matrix(0.971467,0,0,-0.971467,4.716861,13.96289)"/>
<path style="fill:none;stroke-width:0.3985;stroke-linecap:butt;stroke-linejoin:miter;stroke:rgb(0%,0%,0%);stroke-opacity:1;stroke-miterlimit:10;" d="M 3.986737 0.00201026 L -3.98687 0.00201026 " transform="matrix(0.971467,0,0,-0.971467,4.716861,13.96289)"/>
<path style="fill:none;stroke-width:0.3985;stroke-linecap:butt;stroke-linejoin:miter;stroke:rgb(0%,0%,0%);stroke-opacity:1;stroke-miterlimit:10;" d="M 3.986737 0.00201026 L -3.98687 0.00201026 " transform="matrix(0.971467,0,0,-0.971467,4.716861,13.96289)"/>
<path style="fill:none;stroke-width:0.3985;stroke-linecap:butt;stroke-linejoin:miter;stroke:rgb(0%,0%,0%);stroke-opacity:1;stroke-miterlimit:10;" d="M 3.986737 0.00201026 L -3.98687 0.00201026 " transform="matrix(0.971467,0,0,-0.971467,4.716861,13.96289)"/>
<path style="fill:none;stroke-width:0.3985;stroke-linecap:butt;stroke-linejoin:miter;stroke:rgb(0%,0%,0%);stroke-opacity:1;stroke-miterlimit:10;" d="M 3.986737 0.00201026 L -3.98687 0.00201026 " transform="matrix(0.971467,0,0,-0.971467,4.716861,13.96289)"/>
<path style="fill:none;stroke-width:0.3985;stroke-linecap:butt;stroke-linejoin:miter;stroke:rgb(0%,0%,0%);stroke-opacity:1;stroke-miterlimit:10;" d="M 3.986737 0.00201026 L -3.98687 0.00201026 " transform="matrix(0.971467,0,0,-0.971467,4.716861,13.96289)"/>
<path style="fill:none;stroke-width:0.3985;stroke-linecap:butt;stroke-linejoin:miter;stroke:rgb(0%,0%,0%);stroke-opacity:1;stroke-miterlimit:10;" d="M 3.986737 0.00201026 L -3.98687 0.00201026 " transform="matrix(0.971467,0,0,-0.971467,4.716861,13.96289)"/>
<path style="fill:none;stroke-width:0.3985;stroke-linecap:butt;stroke-linejoin:miter;stroke:rgb(0%,0%,0%);stroke-opacity:1;stroke-miterlimit:10;" d="M 3.986737 0.00201026 L -3.98687 0.00201026 " transform="matrix(0.971467,0,0,-0.971467,4.716861,13.96289)"/>
<path style="fill:none;stroke-width:0.3985;stroke-linecap:butt;stroke-linejoin:miter;stroke:rgb(0%,0%,0%);stroke-opacity:1;stroke-miterlimit:10;" d="M 3.986737 0.00201026 L -3.98687 0.00201026 " transform="matrix(0.971467,0,0,-0.971467,4.716861,13.96289)"/>
<path style="fill:none;stroke-width:0.3985;stroke-linecap:butt;stroke-linejoin:miter;stroke:rgb(0%,0%,0%);stroke-opacity:1;stroke-miterlimit:10;" d="M 3.986737 0.00201026 L -3.98687 0.00201026 " transform="matrix(0.971467,0,0,-0.971467,4.716861,13.96289)"/>
<path style="fill:none;stroke-width:0.3985;stroke-linecap:butt;stroke-linejoin:miter;stroke:rgb(0%,0%,0%);stroke-opacity:1;stroke-miterlimit:10;" d="M 3.986737 0.00201026 L -3.98687 0.00201026 " transform="matrix(0.971467,0,0,-0.971467,4.716861,13.96289)"/>
<path style="fill:none;stroke-width:0.3985;stroke-linecap:butt;stroke-linejoin:miter;stroke:rgb(0%,0%,0%);stroke-opacity:1;stroke-miterlimit:10;" d="M 3.986737 0.00201026 L -3.98687 0.00201026 " transform="matrix(0.971467,0,0,-0.971467,4.716861,13.96289)"/>
<path style="fill:none;stroke-width:0.3985;stroke-linecap:butt;stroke-linejoin:miter;stroke:rgb(0%,0%,0%);stroke-opacity:1;stroke-miterlimit:10;" d="M 3.986737 0.00201026 L -3.98687 0.00201026 " transform="matrix(0.971467,0,0,-0.971467,4.716861,13.96289)"/>
<path style="fill:none;stroke-width:0.3985;stroke-linecap:butt;stroke-linejoin:miter;stroke:rgb(0%,0%,0%);stroke-opacity:1;stroke-miterlimit:10;" d="M 3.986737 0.00201026 L -3.98687 0.00201026 " transform="matrix(0.971467,0,0,-0.971467,4.716861,13.96289)"/>
<path style="fill:none;stroke-width:0.3985;stroke-linecap:butt;stroke-linejoin:miter;stroke:rgb(0%,0%,0%);stroke-opacity:1;stroke-miterlimit:10;" d="M 3.986737 0.00201026 L -3.98687 0.00201026 " transform="matrix(0.971467,0,0,-0.971467,4.716861,13.96289)"/>
<path style="fill:none;stroke-width:0.3985;stroke-linecap:butt;stroke-linejoin:miter;stroke:rgb(0%,0%,0%);stroke-opacity:1;stroke-miterlimit:10;" d="M 3.986737 0.00201026 L -3.98687 0.00201026 " transform="matrix(0.971467,0,0,-0.971467,4.716861,13.96289)"/>
<path style="fill:none;stroke-width:0.3985;stroke-linecap:butt;stroke-linejoin:miter;stroke:rgb(0%,0%,0%);stroke-opacity:1;stroke-miterlimit:10;" d="M 3.986737 0.00201026 L -3.98687 0.00201026 " transform="matrix(0.971467,0,0,-0.971467,4.716861,13.96289)"/>
<path style="fill:none;stroke-width:0.3985;stroke-linecap:butt;stroke-linejoin:miter;stroke:rgb(0%,0%,0%);stroke-opacity:1;stroke-miterlimit:10;" d="M 3.986737 0.00201026 L -3.98687 0.00201026 " transform="matrix(0.971467,0,0,-0.971467,4.716861,13.96289)"/>
<path style="fill:none;stroke-width:0.3985;stroke-linecap:butt;stroke-linejoin:miter;stroke:rgb(0%,0%,0%);stroke-opacity:1;stroke-miterlimit:10;" d="M 3.986737 0.00201026 L -3.98687 0.00201026 " transform="matrix(0.971467,0,0,-0.971467,4.716861,13.96289)"/>
<path style="fill:none;stroke-width:0.3985;stroke-linecap:butt;stroke-linejoin:miter;stroke:rgb(0%,0%,0%);stroke-opacity:1;stroke-miterlimit:10;" d="M 3.986737 0.00201026 L -3.98687 0.00201026 " transform="matrix(0.971467,0,0,-0.971467,4.716861,13.96289)"/>
<path style="fill:none;stroke-width:0.3985;stroke-linecap:butt;stroke-linejoin:miter;stroke:rgb(0%,0%,0%);stroke-opacity:1;stroke-miterlimit:10;" d="M 3.986737 0.00201026 L -3.98687 0.00201026 " transform="matrix(0.971467,0,0,-0.971467,4.716861,13.96289)"/>
<path style="fill:none;stroke-width:0.3985;stroke-linecap:butt;stroke-linejoin:miter;stroke:rgb(0%,0%,0%);stroke-opacity:1;stroke-miterlimit:10;" d="M 3.986737 0.00201026 L -3.98687 0.00201026 " transform="matrix(0.971467,0,0,-0.971467,4.716861,13.96289)"/>
</g>
<path style="fill:none;stroke-width:0.3985;stroke-linecap:butt;stroke-linejoin:miter;stroke:rgb(0%,0%,0%);stroke-opacity:1;stroke-miterlimit:10;" d="M 32.33064 14.171951 L 24.361053 14.171951 " transform="matrix(0.971467,0,0,-0.971467,4.716861,13.96289)"/>
<path style="fill:none;stroke-width:0.3985;stroke-linecap:butt;stroke-linejoin:miter;stroke:rgb(0%,0%,0%);stroke-opacity:1;stroke-miterlimit:10;" d="M 32.33064 14.171951 L 24.361053 14.171951 " transform="matrix(0.971467,0,0,-0.971467,4.716861,13.96289)"/>
<path style="fill:none;stroke-width:0.3985;stroke-linecap:butt;stroke-linejoin:miter;stroke:rgb(0%,0%,0%);stroke-opacity:1;stroke-miterlimit:10;" d="M 32.33064 14.171951 L 24.361053 14.171951 " transform="matrix(0.971467,0,0,-0.971467,4.716861,13.96289)"/>
<path style="fill:none;stroke-width:0.3985;stroke-linecap:butt;stroke-linejoin:miter;stroke:rgb(0%,0%,0%);stroke-opacity:1;stroke-miterlimit:10;" d="M 32.33064 14.171951 L 24.361053 14.171951 " transform="matrix(0.971467,0,0,-0.971467,4.716861,13.96289)"/>
<path style="fill:none;stroke-width:0.3985;stroke-linecap:butt;stroke-linejoin:miter;stroke:rgb(0%,0%,0%);stroke-opacity:1;stroke-miterlimit:10;" d="M 32.33064 14.171951 L 24.361053 14.171951 " transform="matrix(0.971467,0,0,-0.971467,4.716861,13.96289)"/>
<path style="fill:none;stroke-width:0.3985;stroke-linecap:butt;stroke-linejoin:miter;stroke:rgb(0%,0%,0%);stroke-opacity:1;stroke-miterlimit:10;" d="M 32.33064 14.171951 L 24.361053 14.171951 " transform="matrix(0.971467,0,0,-0.971467,4.716861,13.96289)"/>
<path style="fill:none;stroke-width:0.3985;stroke-linecap:butt;stroke-linejoin:miter;stroke:rgb(0%,0%,0%);stroke-opacity:1;stroke-miterlimit:10;" d="M 32.33064 14.171951 L 24.361053 14.171951 " transform="matrix(0.971467,0,0,-0.971467,4.716861,13.96289)"/>
<path style="fill:none;stroke-width:0.3985;stroke-linecap:butt;stroke-linejoin:miter;stroke:rgb(0%,0%,0%);stroke-opacity:1;stroke-miterlimit:10;" d="M 32.33064 14.171951 L 24.361053 14.171951 " transform="matrix(0.971467,0,0,-0.971467,4.716861,13.96289)"/>
<path style="fill:none;stroke-width:0.3985;stroke-linecap:butt;stroke-linejoin:miter;stroke:rgb(0%,0%,0%);stroke-opacity:1;stroke-miterlimit:10;" d="M 32.33064 14.171951 L 24.361053 14.171951 " transform="matrix(0.971467,0,0,-0.971467,4.716861,13.96289)"/>
<path style="fill:none;stroke-width:0.3985;stroke-linecap:butt;stroke-linejoin:miter;stroke:rgb(0%,0%,0%);stroke-opacity:1;stroke-miterlimit:10;" d="M 32.33064 14.171951 L 24.361053 14.171951 " transform="matrix(0.971467,0,0,-0.971467,4.716861,13.96289)"/>
<path style="fill:none;stroke-width:0.3985;stroke-linecap:butt;stroke-linejoin:miter;stroke:rgb(0%,0%,0%);stroke-opacity:1;stroke-miterlimit:10;" d="M 32.33064 14.171951 L 24.361053 14.171951 " transform="matrix(0.971467,0,0,-0.971467,4.716861,13.96289)"/>
<path style="fill:none;stroke-width:0.3985;stroke-linecap:butt;stroke-linejoin:miter;stroke:rgb(0%,0%,0%);stroke-opacity:1;stroke-miterlimit:10;" d="M 32.33064 14.171951 L 24.361053 14.171951 " transform="matrix(0.971467,0,0,-0.971467,4.716861,13.96289)"/>
<path style="fill:none;stroke-width:0.3985;stroke-linecap:butt;stroke-linejoin:miter;stroke:rgb(0%,0%,0%);stroke-opacity:1;stroke-miterlimit:10;" d="M 32.33064 14.171951 L 24.361053 14.171951 " transform="matrix(0.971467,0,0,-0.971467,4.716861,13.96289)"/>
<path style="fill:none;stroke-width:0.3985;stroke-linecap:butt;stroke-linejoin:miter;stroke:rgb(0%,0%,0%);stroke-opacity:1;stroke-miterlimit:10;" d="M 32.33064 14.171951 L 24.361053 14.171951 " transform="matrix(0.971467,0,0,-0.971467,4.716861,13.96289)"/>
<path style="fill:none;stroke-width:0.3985;stroke-linecap:butt;stroke-linejoin:miter;stroke:rgb(0%,0%,0%);stroke-opacity:1;stroke-miterlimit:10;" d="M 32.33064 14.171951 L 24.361053 14.171951 " transform="matrix(0.971467,0,0,-0.971467,4.716861,13.96289)"/>
<path style="fill:none;stroke-width:0.3985;stroke-linecap:butt;stroke-linejoin:miter;stroke:rgb(0%,0%,0%);stroke-opacity:1;stroke-miterlimit:10;" d="M 32.33064 14.171951 L 24.361053 14.171951 " transform="matrix(0.971467,0,0,-0.971467,4.716861,13.96289)"/>
<path style="fill:none;stroke-width:0.3985;stroke-linecap:butt;stroke-linejoin:miter;stroke:rgb(0%,0%,0%);stroke-opacity:1;stroke-miterlimit:10;" d="M 32.33064 14.171951 L 24.361053 14.171951 " transform="matrix(0.971467,0,0,-0.971467,4.716861,13.96289)"/>
<path style="fill:none;stroke-width:0.3985;stroke-linecap:butt;stroke-linejoin:miter;stroke:rgb(0%,0%,0%);stroke-opacity:1;stroke-miterlimit:10;" d="M 32.33064 14.171951 L 24.361053 14.171951 " transform="matrix(0.971467,0,0,-0.971467,4.716861,13.96289)"/>
<path style="fill:none;stroke-width:0.3985;stroke-linecap:butt;stroke-linejoin:miter;stroke:rgb(0%,0%,0%);stroke-opacity:1;stroke-miterlimit:10;" d="M 32.33064 14.171951 L 24.361053 14.171951 " transform="matrix(0.971467,0,0,-0.971467,4.716861,13.96289)"/>
<path style="fill:none;stroke-width:0.3985;stroke-linecap:butt;stroke-linejoin:miter;stroke:rgb(0%,0%,0%);stroke-opacity:1;stroke-miterlimit:10;" d="M 32.33064 14.171951 L 24.361053 14.171951 " transform="matrix(0.971467,0,0,-0.971467,4.716861,13.96289)"/>
<path style="fill:none;stroke-width:0.3985;stroke-linecap:butt;stroke-linejoin:miter;stroke:rgb(0%,0%,0%);stroke-opacity:1;stroke-miterlimit:10;" d="M 32.33064 14.171951 L 24.361053 14.171951 " transform="matrix(0.971467,0,0,-0.971467,4.716861,13.96289)"/>
<path style="fill:none;stroke-width:0.3985;stroke-linecap:butt;stroke-linejoin:miter;stroke:rgb(0%,0%,0%);stroke-opacity:1;stroke-miterlimit:10;" d="M 32.33064 14.171951 L 24.361053 14.171951 " transform="matrix(0.971467,0,0,-0.971467,4.716861,13.96289)"/>
<path style="fill:none;stroke-width:0.3985;stroke-linecap:butt;stroke-linejoin:miter;stroke:rgb(0%,0%,0%);stroke-opacity:1;stroke-miterlimit:10;" d="M 32.33064 14.171951 L 24.361053 14.171951 " transform="matrix(0.971467,0,0,-0.971467,4.716861,13.96289)"/>
<path style="fill:none;stroke-width:0.3985;stroke-linecap:butt;stroke-linejoin:miter;stroke:rgb(0%,0%,0%);stroke-opacity:1;stroke-miterlimit:10;" d="M 32.33064 14.171951 L 24.361053 14.171951 " transform="matrix(0.971467,0,0,-0.971467,4.716861,13.96289)"/>
<g clip-path="url(#clip3)" clip-rule="nonzero">
<path style="fill:none;stroke-width:0.3985;stroke-linecap:butt;stroke-linejoin:miter;stroke:rgb(0%,0%,0%);stroke-opacity:1;stroke-miterlimit:10;" d="M 60.678563 0.00201026 L 52.708976 0.00201026 " transform="matrix(0.971467,0,0,-0.971467,4.716861,13.96289)"/>
<path style="fill:none;stroke-width:0.3985;stroke-linecap:butt;stroke-linejoin:miter;stroke:rgb(0%,0%,0%);stroke-opacity:1;stroke-miterlimit:10;" d="M 60.678563 0.00201026 L 52.708976 0.00201026 " transform="matrix(0.971467,0,0,-0.971467,4.716861,13.96289)"/>
<path style="fill:none;stroke-width:0.3985;stroke-linecap:butt;stroke-linejoin:miter;stroke:rgb(0%,0%,0%);stroke-opacity:1;stroke-miterlimit:10;" d="M 60.678563 0.00201026 L 52.708976 0.00201026 " transform="matrix(0.971467,0,0,-0.971467,4.716861,13.96289)"/>
<path style="fill:none;stroke-width:0.3985;stroke-linecap:butt;stroke-linejoin:miter;stroke:rgb(0%,0%,0%);stroke-opacity:1;stroke-miterlimit:10;" d="M 60.678563 0.00201026 L 52.708976 0.00201026 " transform="matrix(0.971467,0,0,-0.971467,4.716861,13.96289)"/>
<path style="fill:none;stroke-width:0.3985;stroke-linecap:butt;stroke-linejoin:miter;stroke:rgb(0%,0%,0%);stroke-opacity:1;stroke-miterlimit:10;" d="M 60.678563 0.00201026 L 52.708976 0.00201026 " transform="matrix(0.971467,0,0,-0.971467,4.716861,13.96289)"/>
<path style="fill:none;stroke-width:0.3985;stroke-linecap:butt;stroke-linejoin:miter;stroke:rgb(0%,0%,0%);stroke-opacity:1;stroke-miterlimit:10;" d="M 60.678563 0.00201026 L 52.708976 0.00201026 " transform="matrix(0.971467,0,0,-0.971467,4.716861,13.96289)"/>
<path style="fill:none;stroke-width:0.3985;stroke-linecap:butt;stroke-linejoin:miter;stroke:rgb(0%,0%,0%);stroke-opacity:1;stroke-miterlimit:10;" d="M 60.678563 0.00201026 L 52.708976 0.00201026 " transform="matrix(0.971467,0,0,-0.971467,4.716861,13.96289)"/>
<path style="fill:none;stroke-width:0.3985;stroke-linecap:butt;stroke-linejoin:miter;stroke:rgb(0%,0%,0%);stroke-opacity:1;stroke-miterlimit:10;" d="M 60.678563 0.00201026 L 52.708976 0.00201026 " transform="matrix(0.971467,0,0,-0.971467,4.716861,13.96289)"/>
<path style="fill:none;stroke-width:0.3985;stroke-linecap:butt;stroke-linejoin:miter;stroke:rgb(0%,0%,0%);stroke-opacity:1;stroke-miterlimit:10;" d="M 60.678563 0.00201026 L 52.708976 0.00201026 " transform="matrix(0.971467,0,0,-0.971467,4.716861,13.96289)"/>
<path style="fill:none;stroke-width:0.3985;stroke-linecap:butt;stroke-linejoin:miter;stroke:rgb(0%,0%,0%);stroke-opacity:1;stroke-miterlimit:10;" d="M 60.678563 0.00201026 L 52.708976 0.00201026 " transform="matrix(0.971467,0,0,-0.971467,4.716861,13.96289)"/>
<path style="fill:none;stroke-width:0.3985;stroke-linecap:butt;stroke-linejoin:miter;stroke:rgb(0%,0%,0%);stroke-opacity:1;stroke-miterlimit:10;" d="M 60.678563 0.00201026 L 52.708976 0.00201026 " transform="matrix(0.971467,0,0,-0.971467,4.716861,13.96289)"/>
<path style="fill:none;stroke-width:0.3985;stroke-linecap:butt;stroke-linejoin:miter;stroke:rgb(0%,0%,0%);stroke-opacity:1;stroke-miterlimit:10;" d="M 60.678563 0.00201026 L 52.708976 0.00201026 " transform="matrix(0.971467,0,0,-0.971467,4.716861,13.96289)"/>
<path style="fill:none;stroke-width:0.3985;stroke-linecap:butt;stroke-linejoin:miter;stroke:rgb(0%,0%,0%);stroke-opacity:1;stroke-miterlimit:10;" d="M 60.678563 0.00201026 L 52.708976 0.00201026 " transform="matrix(0.971467,0,0,-0.971467,4.716861,13.96289)"/>
<path style="fill:none;stroke-width:0.3985;stroke-linecap:butt;stroke-linejoin:miter;stroke:rgb(0%,0%,0%);stroke-opacity:1;stroke-miterlimit:10;" d="M 60.678563 0.00201026 L 52.708976 0.00201026 " transform="matrix(0.971467,0,0,-0.971467,4.716861,13.96289)"/>
<path style="fill:none;stroke-width:0.3985;stroke-linecap:butt;stroke-linejoin:miter;stroke:rgb(0%,0%,0%);stroke-opacity:1;stroke-miterlimit:10;" d="M 60.678563 0.00201026 L 52.708976 0.00201026 " transform="matrix(0.971467,0,0,-0.971467,4.716861,13.96289)"/>
<path style="fill:none;stroke-width:0.3985;stroke-linecap:butt;stroke-linejoin:miter;stroke:rgb(0%,0%,0%);stroke-opacity:1;stroke-miterlimit:10;" d="M 60.678563 0.00201026 L 52.708976 0.00201026 " transform="matrix(0.971467,0,0,-0.971467,4.716861,13.96289)"/>
<path style="fill:none;stroke-width:0.3985;stroke-linecap:butt;stroke-linejoin:miter;stroke:rgb(0%,0%,0%);stroke-opacity:1;stroke-miterlimit:10;" d="M 60.678563 0.00201026 L 52.708976 0.00201026 " transform="matrix(0.971467,0,0,-0.971467,4.716861,13.96289)"/>
<path style="fill:none;stroke-width:0.3985;stroke-linecap:butt;stroke-linejoin:miter;stroke:rgb(0%,0%,0%);stroke-opacity:1;stroke-miterlimit:10;" d="M 60.678563 0.00201026 L 52.708976 0.00201026 " transform="matrix(0.971467,0,0,-0.971467,4.716861,13.96289)"/>
<path style="fill:none;stroke-width:0.3985;stroke-linecap:butt;stroke-linejoin:miter;stroke:rgb(0%,0%,0%);stroke-opacity:1;stroke-miterlimit:10;" d="M 60.678563 0.00201026 L 52.708976 0.00201026 " transform="matrix(0.971467,0,0,-0.971467,4.716861,13.96289)"/>
<path style="fill:none;stroke-width:0.3985;stroke-linecap:butt;stroke-linejoin:miter;stroke:rgb(0%,0%,0%);stroke-opacity:1;stroke-miterlimit:10;" d="M 60.678563 0.00201026 L 52.708976 0.00201026 " transform="matrix(0.971467,0,0,-0.971467,4.716861,13.96289)"/>
<path style="fill:none;stroke-width:0.3985;stroke-linecap:butt;stroke-linejoin:miter;stroke:rgb(0%,0%,0%);stroke-opacity:1;stroke-miterlimit:10;" d="M 60.678563 0.00201026 L 52.708976 0.00201026 " transform="matrix(0.971467,0,0,-0.971467,4.716861,13.96289)"/>
<path style="fill:none;stroke-width:0.3985;stroke-linecap:butt;stroke-linejoin:miter;stroke:rgb(0%,0%,0%);stroke-opacity:1;stroke-miterlimit:10;" d="M 60.678563 0.00201026 L 52.708976 0.00201026 " transform="matrix(0.971467,0,0,-0.971467,4.716861,13.96289)"/>
<path style="fill:none;stroke-width:0.3985;stroke-linecap:butt;stroke-linejoin:miter;stroke:rgb(0%,0%,0%);stroke-opacity:1;stroke-miterlimit:10;" d="M 60.678563 0.00201026 L 52.708976 0.00201026 " transform="matrix(0.971467,0,0,-0.971467,4.716861,13.96289)"/>
<path style="fill:none;stroke-width:0.3985;stroke-linecap:butt;stroke-linejoin:miter;stroke:rgb(0%,0%,0%);stroke-opacity:1;stroke-miterlimit:10;" d="M 60.678563 0.00201026 L 52.708976 0.00201026 " transform="matrix(0.971467,0,0,-0.971467,4.716861,13.96289)"/>
</g>
<g clip-path="url(#clip4)" clip-rule="nonzero">
<path style="fill:none;stroke-width:0.3985;stroke-linecap:butt;stroke-linejoin:miter;stroke:rgb(0%,0%,0%);stroke-opacity:1;stroke-miterlimit:10;" d="M 89.026486 14.171951 L 81.0569 14.171951 " transform="matrix(0.971467,0,0,-0.971467,4.716861,13.96289)"/>
<path style="fill:none;stroke-width:0.3985;stroke-linecap:butt;stroke-linejoin:miter;stroke:rgb(0%,0%,0%);stroke-opacity:1;stroke-miterlimit:10;" d="M 89.026486 14.171951 L 81.0569 14.171951 " transform="matrix(0.971467,0,0,-0.971467,4.716861,13.96289)"/>
<path style="fill:none;stroke-width:0.3985;stroke-linecap:butt;stroke-linejoin:miter;stroke:rgb(0%,0%,0%);stroke-opacity:1;stroke-miterlimit:10;" d="M 89.026486 14.171951 L 81.0569 14.171951 " transform="matrix(0.971467,0,0,-0.971467,4.716861,13.96289)"/>
<path style="fill:none;stroke-width:0.3985;stroke-linecap:butt;stroke-linejoin:miter;stroke:rgb(0%,0%,0%);stroke-opacity:1;stroke-miterlimit:10;" d="M 89.026486 14.171951 L 81.0569 14.171951 " transform="matrix(0.971467,0,0,-0.971467,4.716861,13.96289)"/>
<path style="fill:none;stroke-width:0.3985;stroke-linecap:butt;stroke-linejoin:miter;stroke:rgb(0%,0%,0%);stroke-opacity:1;stroke-miterlimit:10;" d="M 89.026486 14.171951 L 81.0569 14.171951 " transform="matrix(0.971467,0,0,-0.971467,4.716861,13.96289)"/>
<path style="fill:none;stroke-width:0.3985;stroke-linecap:butt;stroke-linejoin:miter;stroke:rgb(0%,0%,0%);stroke-opacity:1;stroke-miterlimit:10;" d="M 89.026486 14.171951 L 81.0569 14.171951 " transform="matrix(0.971467,0,0,-0.971467,4.716861,13.96289)"/>
<path style="fill:none;stroke-width:0.3985;stroke-linecap:butt;stroke-linejoin:miter;stroke:rgb(0%,0%,0%);stroke-opacity:1;stroke-miterlimit:10;" d="M 89.026486 14.171951 L 81.0569 14.171951 " transform="matrix(0.971467,0,0,-0.971467,4.716861,13.96289)"/>
<path style="fill:none;stroke-width:0.3985;stroke-linecap:butt;stroke-linejoin:miter;stroke:rgb(0%,0%,0%);stroke-opacity:1;stroke-miterlimit:10;" d="M 89.026486 14.171951 L 81.0569 14.171951 " transform="matrix(0.971467,0,0,-0.971467,4.716861,13.96289)"/>
<path style="fill:none;stroke-width:0.3985;stroke-linecap:butt;stroke-linejoin:miter;stroke:rgb(0%,0%,0%);stroke-opacity:1;stroke-miterlimit:10;" d="M 89.026486 14.171951 L 81.0569 14.171951 " transform="matrix(0.971467,0,0,-0.971467,4.716861,13.96289)"/>
<path style="fill:none;stroke-width:0.3985;stroke-linecap:butt;stroke-linejoin:miter;stroke:rgb(0%,0%,0%);stroke-opacity:1;stroke-miterlimit:10;" d="M 89.026486 14.171951 L 81.0569 14.171951 " transform="matrix(0.971467,0,0,-0.971467,4.716861,13.96289)"/>
<path style="fill:none;stroke-width:0.3985;stroke-linecap:butt;stroke-linejoin:miter;stroke:rgb(0%,0%,0%);stroke-opacity:1;stroke-miterlimit:10;" d="M 89.026486 14.171951 L 81.0569 14.171951 " transform="matrix(0.971467,0,0,-0.971467,4.716861,13.96289)"/>
<path style="fill:none;stroke-width:0.3985;stroke-linecap:butt;stroke-linejoin:miter;stroke:rgb(0%,0%,0%);stroke-opacity:1;stroke-miterlimit:10;" d="M 89.026486 14.171951 L 81.0569 14.171951 " transform="matrix(0.971467,0,0,-0.971467,4.716861,13.96289)"/>
<path style="fill:none;stroke-width:0.3985;stroke-linecap:butt;stroke-linejoin:miter;stroke:rgb(0%,0%,0%);stroke-opacity:1;stroke-miterlimit:10;" d="M 89.026486 14.171951 L 81.0569 14.171951 " transform="matrix(0.971467,0,0,-0.971467,4.716861,13.96289)"/>
<path style="fill:none;stroke-width:0.3985;stroke-linecap:butt;stroke-linejoin:miter;stroke:rgb(0%,0%,0%);stroke-opacity:1;stroke-miterlimit:10;" d="M 89.026486 14.171951 L 81.0569 14.171951 " transform="matrix(0.971467,0,0,-0.971467,4.716861,13.96289)"/>
<path style="fill:none;stroke-width:0.3985;stroke-linecap:butt;stroke-linejoin:miter;stroke:rgb(0%,0%,0%);stroke-opacity:1;stroke-miterlimit:10;" d="M 89.026486 14.171951 L 81.0569 14.171951 " transform="matrix(0.971467,0,0,-0.971467,4.716861,13.96289)"/>
<path style="fill:none;stroke-width:0.3985;stroke-linecap:butt;stroke-linejoin:miter;stroke:rgb(0%,0%,0%);stroke-opacity:1;stroke-miterlimit:10;" d="M 89.026486 14.171951 L 81.0569 14.171951 " transform="matrix(0.971467,0,0,-0.971467,4.716861,13.96289)"/>
<path style="fill:none;stroke-width:0.3985;stroke-linecap:butt;stroke-linejoin:miter;stroke:rgb(0%,0%,0%);stroke-opacity:1;stroke-miterlimit:10;" d="M 89.026486 14.171951 L 81.0569 14.171951 " transform="matrix(0.971467,0,0,-0.971467,4.716861,13.96289)"/>
<path style="fill:none;stroke-width:0.3985;stroke-linecap:butt;stroke-linejoin:miter;stroke:rgb(0%,0%,0%);stroke-opacity:1;stroke-miterlimit:10;" d="M 89.026486 14.171951 L 81.0569 14.171951 " transform="matrix(0.971467,0,0,-0.971467,4.716861,13.96289)"/>
<path style="fill:none;stroke-width:0.3985;stroke-linecap:butt;stroke-linejoin:miter;stroke:rgb(0%,0%,0%);stroke-opacity:1;stroke-miterlimit:10;" d="M 89.026486 14.171951 L 81.0569 14.171951 " transform="matrix(0.971467,0,0,-0.971467,4.716861,13.96289)"/>
<path style="fill:none;stroke-width:0.3985;stroke-linecap:butt;stroke-linejoin:miter;stroke:rgb(0%,0%,0%);stroke-opacity:1;stroke-miterlimit:10;" d="M 89.026486 14.171951 L 81.0569 14.171951 " transform="matrix(0.971467,0,0,-0.971467,4.716861,13.96289)"/>
<path style="fill:none;stroke-width:0.3985;stroke-linecap:butt;stroke-linejoin:miter;stroke:rgb(0%,0%,0%);stroke-opacity:1;stroke-miterlimit:10;" d="M 89.026486 14.171951 L 81.0569 14.171951 " transform="matrix(0.971467,0,0,-0.971467,4.716861,13.96289)"/>
<path style="fill:none;stroke-width:0.3985;stroke-linecap:butt;stroke-linejoin:miter;stroke:rgb(0%,0%,0%);stroke-opacity:1;stroke-miterlimit:10;" d="M 89.026486 14.171951 L 81.0569 14.171951 " transform="matrix(0.971467,0,0,-0.971467,4.716861,13.96289)"/>
<path style="fill:none;stroke-width:0.3985;stroke-linecap:butt;stroke-linejoin:miter;stroke:rgb(0%,0%,0%);stroke-opacity:1;stroke-miterlimit:10;" d="M 89.026486 14.171951 L 81.0569 14.171951 " transform="matrix(0.971467,0,0,-0.971467,4.716861,13.96289)"/>
<path style="fill:none;stroke-width:0.3985;stroke-linecap:butt;stroke-linejoin:miter;stroke:rgb(0%,0%,0%);stroke-opacity:1;stroke-miterlimit:10;" d="M 89.026486 14.171951 L 81.0569 14.171951 " transform="matrix(0.971467,0,0,-0.971467,4.716861,13.96289)"/>
</g>
</g>
</svg>
