<?xml version="1.0" encoding="UTF-8"?>
<svg xmlns="http://www.w3.org/2000/svg" xmlns:xlink="http://www.w3.org/1999/xlink" width="93.009pt" height="22.143pt" viewBox="0 0 93.009 22.143" version="1.2">
<defs>
<clipPath id="clip1">
  <path d="M 1.253906 0 L 90.800781 0 L 90.800781 21.316406 L 1.253906 21.316406 Z M 1.253906 0 "/>
</clipPath>
<clipPath id="clip2">
  <path d="M 1.253906 8 L 15 8 L 15 21.316406 L 1.253906 21.316406 Z M 1.253906 8 "/>
</clipPath>
<clipPath id="clip3">
  <path d="M 50 8 L 69 8 L 69 21.316406 L 50 21.316406 Z M 50 8 "/>
</clipPath>
<clipPath id="clip4">
  <path d="M 77 0 L 90.800781 0 L 90.800781 14 L 77 14 Z M 77 0 "/>
</clipPath>
</defs>
<g id="surface1">
<g clip-path="url(#clip1)" clip-rule="nonzero">
<path style="fill:none;stroke-width:0.3985;stroke-linecap:butt;stroke-linejoin:miter;stroke:rgb(0%,0%,0%);stroke-opacity:1;stroke-miterlimit:10;" d="M 0.00153073 0.000985086 L 28.346761 14.1736 L 56.691992 0.000985086 L 85.041279 14.1736 " transform="matrix(0.962739,0,0,-0.962739,5.092276,17.481417)"/>
</g>
<g clip-path="url(#clip2)" clip-rule="nonzero">
<path style="fill:none;stroke-width:0.3985;stroke-linecap:butt;stroke-linejoin:miter;stroke:rgb(0%,0%,0%);stroke-opacity:1;stroke-miterlimit:10;" d="M 3.98593 0.000985086 C 3.98593 2.200114 2.20066 3.985385 0.00153073 3.985385 C -2.201656 3.985385 -3.986926 2.200114 -3.986926 0.000985086 C -3.986926 -2.202201 -2.201656 -3.983415 0.00153073 -3.983415 C 2.20066 -3.983415 3.98593 -2.202201 3.98593 0.000985086 Z M -2.818386 -2.818931 L 2.81739 2.816844 M -2.818386 2.816844 L 2.81739 -2.818931 " transform="matrix(0.962739,0,0,-0.962739,5.092276,17.481417)"/>
<path style="fill:none;stroke-width:0.3985;stroke-linecap:butt;stroke-linejoin:miter;stroke:rgb(0%,0%,0%);stroke-opacity:1;stroke-miterlimit:10;" d="M 3.98593 0.000985086 C 3.98593 2.200114 2.20066 3.985385 0.00153073 3.985385 C -2.201656 3.985385 -3.986926 2.200114 -3.986926 0.000985086 C -3.986926 -2.202201 -2.201656 -3.983415 0.00153073 -3.983415 C 2.20066 -3.983415 3.98593 -2.202201 3.98593 0.000985086 Z M -2.818386 -2.818931 L 2.81739 2.816844 M -2.818386 2.816844 L 2.81739 -2.818931 " transform="matrix(0.962739,0,0,-0.962739,5.092276,17.481417)"/>
<path style="fill:none;stroke-width:0.3985;stroke-linecap:butt;stroke-linejoin:miter;stroke:rgb(0%,0%,0%);stroke-opacity:1;stroke-miterlimit:10;" d="M 3.98593 0.000985086 C 3.98593 2.200114 2.20066 3.985385 0.00153073 3.985385 C -2.201656 3.985385 -3.986926 2.200114 -3.986926 0.000985086 C -3.986926 -2.202201 -2.201656 -3.983415 0.00153073 -3.983415 C 2.20066 -3.983415 3.98593 -2.202201 3.98593 0.000985086 Z M -2.818386 -2.818931 L 2.81739 2.816844 M -2.818386 2.816844 L 2.81739 -2.818931 " transform="matrix(0.962739,0,0,-0.962739,5.092276,17.481417)"/>
<path style="fill:none;stroke-width:0.3985;stroke-linecap:butt;stroke-linejoin:miter;stroke:rgb(0%,0%,0%);stroke-opacity:1;stroke-miterlimit:10;" d="M 3.98593 0.000985086 C 3.98593 2.200114 2.20066 3.985385 0.00153073 3.985385 C -2.201656 3.985385 -3.986926 2.200114 -3.986926 0.000985086 C -3.986926 -2.202201 -2.201656 -3.983415 0.00153073 -3.983415 C 2.20066 -3.983415 3.98593 -2.202201 3.98593 0.000985086 Z M -2.818386 -2.818931 L 2.81739 2.816844 M -2.818386 2.816844 L 2.81739 -2.818931 " transform="matrix(0.962739,0,0,-0.962739,5.092276,17.481417)"/>
<path style="fill:none;stroke-width:0.3985;stroke-linecap:butt;stroke-linejoin:miter;stroke:rgb(0%,0%,0%);stroke-opacity:1;stroke-miterlimit:10;" d="M 3.98593 0.000985086 C 3.98593 2.200114 2.20066 3.985385 0.00153073 3.985385 C -2.201656 3.985385 -3.986926 2.200114 -3.986926 0.000985086 C -3.986926 -2.202201 -2.201656 -3.983415 0.00153073 -3.983415 C 2.20066 -3.983415 3.98593 -2.202201 3.98593 0.000985086 Z M -2.818386 -2.818931 L 2.81739 2.816844 M -2.818386 2.816844 L 2.81739 -2.818931 " transform="matrix(0.962739,0,0,-0.962739,5.092276,17.481417)"/>
<path style="fill:none;stroke-width:0.3985;stroke-linecap:butt;stroke-linejoin:miter;stroke:rgb(0%,0%,0%);stroke-opacity:1;stroke-miterlimit:10;" d="M 3.98593 0.000985086 C 3.98593 2.200114 2.20066 3.985385 0.00153073 3.985385 C -2.201656 3.985385 -3.986926 2.200114 -3.986926 0.000985086 C -3.986926 -2.202201 -2.201656 -3.983415 0.00153073 -3.983415 C 2.20066 -3.983415 3.98593 -2.202201 3.98593 0.000985086 Z M -2.818386 -2.818931 L 2.81739 2.816844 M -2.818386 2.816844 L 2.81739 -2.818931 " transform="matrix(0.962739,0,0,-0.962739,5.092276,17.481417)"/>
<path style="fill:none;stroke-width:0.3985;stroke-linecap:butt;stroke-linejoin:miter;stroke:rgb(0%,0%,0%);stroke-opacity:1;stroke-miterlimit:10;" d="M 3.98593 0.000985086 C 3.98593 2.200114 2.20066 3.985385 0.00153073 3.985385 C -2.201656 3.985385 -3.986926 2.200114 -3.986926 0.000985086 C -3.986926 -2.202201 -2.201656 -3.983415 0.00153073 -3.983415 C 2.20066 -3.983415 3.98593 -2.202201 3.98593 0.000985086 Z M -2.818386 -2.818931 L 2.81739 2.816844 M -2.818386 2.816844 L 2.81739 -2.818931 " transform="matrix(0.962739,0,0,-0.962739,5.092276,17.481417)"/>
<path style="fill:none;stroke-width:0.3985;stroke-linecap:butt;stroke-linejoin:miter;stroke:rgb(0%,0%,0%);stroke-opacity:1;stroke-miterlimit:10;" d="M 3.98593 0.000985086 C 3.98593 2.200114 2.20066 3.985385 0.00153073 3.985385 C -2.201656 3.985385 -3.986926 2.200114 -3.986926 0.000985086 C -3.986926 -2.202201 -2.201656 -3.983415 0.00153073 -3.983415 C 2.20066 -3.983415 3.98593 -2.202201 3.98593 0.000985086 Z M -2.818386 -2.818931 L 2.81739 2.816844 M -2.818386 2.816844 L 2.81739 -2.818931 " transform="matrix(0.962739,0,0,-0.962739,5.092276,17.481417)"/>
<path style="fill:none;stroke-width:0.3985;stroke-linecap:butt;stroke-linejoin:miter;stroke:rgb(0%,0%,0%);stroke-opacity:1;stroke-miterlimit:10;" d="M 3.98593 0.000985086 C 3.98593 2.200114 2.20066 3.985385 0.00153073 3.985385 C -2.201656 3.985385 -3.986926 2.200114 -3.986926 0.000985086 C -3.986926 -2.202201 -2.201656 -3.983415 0.00153073 -3.983415 C 2.20066 -3.983415 3.98593 -2.202201 3.98593 0.000985086 Z M -2.818386 -2.818931 L 2.81739 2.816844 M -2.818386 2.816844 L 2.81739 -2.818931 " transform="matrix(0.962739,0,0,-0.962739,5.092276,17.481417)"/>
<path style="fill:none;stroke-width:0.3985;stroke-linecap:butt;stroke-linejoin:miter;stroke:rgb(0%,0%,0%);stroke-opacity:1;stroke-miterlimit:10;" d="M 3.98593 0.000985086 C 3.98593 2.200114 2.20066 3.985385 0.00153073 3.985385 C -2.201656 3.985385 -3.986926 2.200114 -3.986926 0.000985086 C -3.986926 -2.202201 -2.201656 -3.983415 0.00153073 -3.983415 C 2.20066 -3.983415 3.98593 -2.202201 3.98593 0.000985086 Z M -2.818386 -2.818931 L 2.81739 2.816844 M -2.818386 2.816844 L 2.81739 -2.818931 " transform="matrix(0.962739,0,0,-0.962739,5.092276,17.481417)"/>
<path style="fill:none;stroke-width:0.3985;stroke-linecap:butt;stroke-linejoin:miter;stroke:rgb(0%,0%,0%);stroke-opacity:1;stroke-miterlimit:10;" d="M 3.98593 0.000985086 C 3.98593 2.200114 2.20066 3.985385 0.00153073 3.985385 C -2.201656 3.985385 -3.986926 2.200114 -3.986926 0.000985086 C -3.986926 -2.202201 -2.201656 -3.983415 0.00153073 -3.983415 C 2.20066 -3.983415 3.98593 -2.202201 3.98593 0.000985086 Z M -2.818386 -2.818931 L 2.81739 2.816844 M -2.818386 2.816844 L 2.81739 -2.818931 " transform="matrix(0.962739,0,0,-0.962739,5.092276,17.481417)"/>
<path style="fill:none;stroke-width:0.3985;stroke-linecap:butt;stroke-linejoin:miter;stroke:rgb(0%,0%,0%);stroke-opacity:1;stroke-miterlimit:10;" d="M 3.98593 0.000985086 C 3.98593 2.200114 2.20066 3.985385 0.00153073 3.985385 C -2.201656 3.985385 -3.986926 2.200114 -3.986926 0.000985086 C -3.986926 -2.202201 -2.201656 -3.983415 0.00153073 -3.983415 C 2.20066 -3.983415 3.98593 -2.202201 3.98593 0.000985086 Z M -2.818386 -2.818931 L 2.81739 2.816844 M -2.818386 2.816844 L 2.81739 -2.818931 " transform="matrix(0.962739,0,0,-0.962739,5.092276,17.481417)"/>
<path style="fill:none;stroke-width:0.3985;stroke-linecap:butt;stroke-linejoin:miter;stroke:rgb(0%,0%,0%);stroke-opacity:1;stroke-miterlimit:10;" d="M 3.98593 0.000985086 C 3.98593 2.200114 2.20066 3.985385 0.00153073 3.985385 C -2.201656 3.985385 -3.986926 2.200114 -3.986926 0.000985086 C -3.986926 -2.202201 -2.201656 -3.983415 0.00153073 -3.983415 C 2.20066 -3.983415 3.98593 -2.202201 3.98593 0.000985086 Z M -2.818386 -2.818931 L 2.81739 2.816844 M -2.818386 2.816844 L 2.81739 -2.818931 " transform="matrix(0.962739,0,0,-0.962739,5.092276,17.481417)"/>
<path style="fill:none;stroke-width:0.3985;stroke-linecap:butt;stroke-linejoin:miter;stroke:rgb(0%,0%,0%);stroke-opacity:1;stroke-miterlimit:10;" d="M 3.98593 0.000985086 C 3.98593 2.200114 2.20066 3.985385 0.00153073 3.985385 C -2.201656 3.985385 -3.986926 2.200114 -3.986926 0.000985086 C -3.986926 -2.202201 -2.201656 -3.983415 0.00153073 -3.983415 C 2.20066 -3.983415 3.98593 -2.202201 3.98593 0.000985086 Z M -2.818386 -2.818931 L 2.81739 2.816844 M -2.818386 2.816844 L 2.81739 -2.818931 " transform="matrix(0.962739,0,0,-0.962739,5.092276,17.481417)"/>
<path style="fill:none;stroke-width:0.3985;stroke-linecap:butt;stroke-linejoin:miter;stroke:rgb(0%,0%,0%);stroke-opacity:1;stroke-miterlimit:10;" d="M 3.98593 0.000985086 C 3.98593 2.200114 2.20066 3.985385 0.00153073 3.985385 C -2.201656 3.985385 -3.986926 2.200114 -3.986926 0.000985086 C -3.986926 -2.202201 -2.201656 -3.983415 0.00153073 -3.983415 C 2.20066 -3.983415 3.98593 -2.202201 3.98593 0.000985086 Z M -2.818386 -2.818931 L 2.81739 2.816844 M -2.818386 2.816844 L 2.81739 -2.818931 " transform="matrix(0.962739,0,0,-0.962739,5.092276,17.481417)"/>
<path style="fill:none;stroke-width:0.3985;stroke-linecap:butt;stroke-linejoin:miter;stroke:rgb(0%,0%,0%);stroke-opacity:1;stroke-miterlimit:10;" d="M 3.98593 0.000985086 C 3.98593 2.200114 2.20066 3.985385 0.00153073 3.985385 C -2.201656 3.985385 -3.986926 2.200114 -3.986926 0.000985086 C -3.986926 -2.202201 -2.201656 -3.983415 0.00153073 -3.983415 C 2.20066 -3.983415 3.98593 -2.202201 3.98593 0.000985086 Z M -2.818386 -2.818931 L 2.81739 2.816844 M -2.818386 2.816844 L 2.81739 -2.818931 " transform="matrix(0.962739,0,0,-0.962739,5.092276,17.481417)"/>
<path style="fill:none;stroke-width:0.3985;stroke-linecap:butt;stroke-linejoin:miter;stroke:rgb(0%,0%,0%);stroke-opacity:1;stroke-miterlimit:10;" d="M 3.98593 0.000985086 C 3.98593 2.200114 2.20066 3.985385 0.00153073 3.985385 C -2.201656 3.985385 -3.986926 2.200114 -3.986926 0.000985086 C -3.986926 -2.202201 -2.201656 -3.983415 0.00153073 -3.983415 C 2.20066 -3.983415 3.98593 -2.202201 3.98593 0.000985086 Z M -2.818386 -2.818931 L 2.81739 2.816844 M -2.818386 2.816844 L 2.81739 -2.818931 " transform="matrix(0.962739,0,0,-0.962739,5.092276,17.481417)"/>
<path style="fill:none;stroke-width:0.3985;stroke-linecap:butt;stroke-linejoin:miter;stroke:rgb(0%,0%,0%);stroke-opacity:1;stroke-miterlimit:10;" d="M 3.98593 0.000985086 C 3.98593 2.200114 2.20066 3.985385 0.00153073 3.985385 C -2.201656 3.985385 -3.986926 2.200114 -3.986926 0.000985086 C -3.986926 -2.202201 -2.201656 -3.983415 0.00153073 -3.983415 C 2.20066 -3.983415 3.98593 -2.202201 3.98593 0.000985086 Z M -2.818386 -2.818931 L 2.81739 2.816844 M -2.818386 2.816844 L 2.81739 -2.818931 " transform="matrix(0.962739,0,0,-0.962739,5.092276,17.481417)"/>
<path style="fill:none;stroke-width:0.3985;stroke-linecap:butt;stroke-linejoin:miter;stroke:rgb(0%,0%,0%);stroke-opacity:1;stroke-miterlimit:10;" d="M 3.98593 0.000985086 C 3.98593 2.200114 2.20066 3.985385 0.00153073 3.985385 C -2.201656 3.985385 -3.986926 2.200114 -3.986926 0.000985086 C -3.986926 -2.202201 -2.201656 -3.983415 0.00153073 -3.983415 C 2.20066 -3.983415 3.98593 -2.202201 3.98593 0.000985086 Z M -2.818386 -2.818931 L 2.81739 2.816844 M -2.818386 2.816844 L 2.81739 -2.818931 " transform="matrix(0.962739,0,0,-0.962739,5.092276,17.481417)"/>
<path style="fill:none;stroke-width:0.3985;stroke-linecap:butt;stroke-linejoin:miter;stroke:rgb(0%,0%,0%);stroke-opacity:1;stroke-miterlimit:10;" d="M 3.98593 0.000985086 C 3.98593 2.200114 2.20066 3.985385 0.00153073 3.985385 C -2.201656 3.985385 -3.986926 2.200114 -3.986926 0.000985086 C -3.986926 -2.202201 -2.201656 -3.983415 0.00153073 -3.983415 C 2.20066 -3.983415 3.98593 -2.202201 3.98593 0.000985086 Z M -2.818386 -2.818931 L 2.81739 2.816844 M -2.818386 2.816844 L 2.81739 -2.818931 " transform="matrix(0.962739,0,0,-0.962739,5.092276,17.481417)"/>
<path style="fill:none;stroke-width:0.3985;stroke-linecap:butt;stroke-linejoin:miter;stroke:rgb(0%,0%,0%);stroke-opacity:1;stroke-miterlimit:10;" d="M 3.98593 0.000985086 C 3.98593 2.200114 2.20066 3.985385 0.00153073 3.985385 C -2.201656 3.985385 -3.986926 2.200114 -3.986926 0.000985086 C -3.986926 -2.202201 -2.201656 -3.983415 0.00153073 -3.983415 C 2.20066 -3.983415 3.98593 -2.202201 3.98593 0.000985086 Z M -2.818386 -2.818931 L 2.81739 2.816844 M -2.818386 2.816844 L 2.81739 -2.818931 " transform="matrix(0.962739,0,0,-0.962739,5.092276,17.481417)"/>
<path style="fill:none;stroke-width:0.3985;stroke-linecap:butt;stroke-linejoin:miter;stroke:rgb(0%,0%,0%);stroke-opacity:1;stroke-miterlimit:10;" d="M 3.98593 0.000985086 C 3.98593 2.200114 2.20066 3.985385 0.00153073 3.985385 C -2.201656 3.985385 -3.986926 2.200114 -3.986926 0.000985086 C -3.986926 -2.202201 -2.201656 -3.983415 0.00153073 -3.983415 C 2.20066 -3.983415 3.98593 -2.202201 3.98593 0.000985086 Z M -2.818386 -2.818931 L 2.81739 2.816844 M -2.818386 2.816844 L 2.81739 -2.818931 " transform="matrix(0.962739,0,0,-0.962739,5.092276,17.481417)"/>
<path style="fill:none;stroke-width:0.3985;stroke-linecap:butt;stroke-linejoin:miter;stroke:rgb(0%,0%,0%);stroke-opacity:1;stroke-miterlimit:10;" d="M 3.98593 0.000985086 C 3.98593 2.200114 2.20066 3.985385 0.00153073 3.985385 C -2.201656 3.985385 -3.986926 2.200114 -3.986926 0.000985086 C -3.986926 -2.202201 -2.201656 -3.983415 0.00153073 -3.983415 C 2.20066 -3.983415 3.98593 -2.202201 3.98593 0.000985086 Z M -2.818386 -2.818931 L 2.81739 2.816844 M -2.818386 2.816844 L 2.81739 -2.818931 " transform="matrix(0.962739,0,0,-0.962739,5.092276,17.481417)"/>
<path style="fill:none;stroke-width:0.3985;stroke-linecap:butt;stroke-linejoin:miter;stroke:rgb(0%,0%,0%);stroke-opacity:1;stroke-miterlimit:10;" d="M 3.98593 0.000985086 C 3.98593 2.200114 2.20066 3.985385 0.00153073 3.985385 C -2.201656 3.985385 -3.986926 2.200114 -3.986926 0.000985086 C -3.986926 -2.202201 -2.201656 -3.983415 0.00153073 -3.983415 C 2.20066 -3.983415 3.98593 -2.202201 3.98593 0.000985086 Z M -2.818386 -2.818931 L 2.81739 2.816844 M -2.818386 2.816844 L 2.81739 -2.818931 " transform="matrix(0.962739,0,0,-0.962739,5.092276,17.481417)"/>
</g>
<path style="fill:none;stroke-width:0.3985;stroke-linecap:butt;stroke-linejoin:miter;stroke:rgb(0%,0%,0%);stroke-opacity:1;stroke-miterlimit:10;" d="M 32.331161 14.1736 C 32.331161 16.372729 30.54589 18.158 28.346761 18.158 C 26.147632 18.158 24.362361 16.372729 24.362361 14.1736 C 24.362361 11.970414 26.147632 10.189201 28.346761 10.189201 C 30.54589 10.189201 32.331161 11.970414 32.331161 14.1736 Z M 25.530902 11.353684 L 31.166677 16.989459 M 25.530902 16.989459 L 31.166677 11.353684 " transform="matrix(0.962739,0,0,-0.962739,5.092276,17.481417)"/>
<path style="fill:none;stroke-width:0.3985;stroke-linecap:butt;stroke-linejoin:miter;stroke:rgb(0%,0%,0%);stroke-opacity:1;stroke-miterlimit:10;" d="M 32.331161 14.1736 C 32.331161 16.372729 30.54589 18.158 28.346761 18.158 C 26.147632 18.158 24.362361 16.372729 24.362361 14.1736 C 24.362361 11.970414 26.147632 10.189201 28.346761 10.189201 C 30.54589 10.189201 32.331161 11.970414 32.331161 14.1736 Z M 25.530902 11.353684 L 31.166677 16.989459 M 25.530902 16.989459 L 31.166677 11.353684 " transform="matrix(0.962739,0,0,-0.962739,5.092276,17.481417)"/>
<path style="fill:none;stroke-width:0.3985;stroke-linecap:butt;stroke-linejoin:miter;stroke:rgb(0%,0%,0%);stroke-opacity:1;stroke-miterlimit:10;" d="M 32.331161 14.1736 C 32.331161 16.372729 30.54589 18.158 28.346761 18.158 C 26.147632 18.158 24.362361 16.372729 24.362361 14.1736 C 24.362361 11.970414 26.147632 10.189201 28.346761 10.189201 C 30.54589 10.189201 32.331161 11.970414 32.331161 14.1736 Z M 25.530902 11.353684 L 31.166677 16.989459 M 25.530902 16.989459 L 31.166677 11.353684 " transform="matrix(0.962739,0,0,-0.962739,5.092276,17.481417)"/>
<path style="fill:none;stroke-width:0.3985;stroke-linecap:butt;stroke-linejoin:miter;stroke:rgb(0%,0%,0%);stroke-opacity:1;stroke-miterlimit:10;" d="M 32.331161 14.1736 C 32.331161 16.372729 30.54589 18.158 28.346761 18.158 C 26.147632 18.158 24.362361 16.372729 24.362361 14.1736 C 24.362361 11.970414 26.147632 10.189201 28.346761 10.189201 C 30.54589 10.189201 32.331161 11.970414 32.331161 14.1736 Z M 25.530902 11.353684 L 31.166677 16.989459 M 25.530902 16.989459 L 31.166677 11.353684 " transform="matrix(0.962739,0,0,-0.962739,5.092276,17.481417)"/>
<path style="fill:none;stroke-width:0.3985;stroke-linecap:butt;stroke-linejoin:miter;stroke:rgb(0%,0%,0%);stroke-opacity:1;stroke-miterlimit:10;" d="M 32.331161 14.1736 C 32.331161 16.372729 30.54589 18.158 28.346761 18.158 C 26.147632 18.158 24.362361 16.372729 24.362361 14.1736 C 24.362361 11.970414 26.147632 10.189201 28.346761 10.189201 C 30.54589 10.189201 32.331161 11.970414 32.331161 14.1736 Z M 25.530902 11.353684 L 31.166677 16.989459 M 25.530902 16.989459 L 31.166677 11.353684 " transform="matrix(0.962739,0,0,-0.962739,5.092276,17.481417)"/>
<path style="fill:none;stroke-width:0.3985;stroke-linecap:butt;stroke-linejoin:miter;stroke:rgb(0%,0%,0%);stroke-opacity:1;stroke-miterlimit:10;" d="M 32.331161 14.1736 C 32.331161 16.372729 30.54589 18.158 28.346761 18.158 C 26.147632 18.158 24.362361 16.372729 24.362361 14.1736 C 24.362361 11.970414 26.147632 10.189201 28.346761 10.189201 C 30.54589 10.189201 32.331161 11.970414 32.331161 14.1736 Z M 25.530902 11.353684 L 31.166677 16.989459 M 25.530902 16.989459 L 31.166677 11.353684 " transform="matrix(0.962739,0,0,-0.962739,5.092276,17.481417)"/>
<path style="fill:none;stroke-width:0.3985;stroke-linecap:butt;stroke-linejoin:miter;stroke:rgb(0%,0%,0%);stroke-opacity:1;stroke-miterlimit:10;" d="M 32.331161 14.1736 C 32.331161 16.372729 30.54589 18.158 28.346761 18.158 C 26.147632 18.158 24.362361 16.372729 24.362361 14.1736 C 24.362361 11.970414 26.147632 10.189201 28.346761 10.189201 C 30.54589 10.189201 32.331161 11.970414 32.331161 14.1736 Z M 25.530902 11.353684 L 31.166677 16.989459 M 25.530902 16.989459 L 31.166677 11.353684 " transform="matrix(0.962739,0,0,-0.962739,5.092276,17.481417)"/>
<path style="fill:none;stroke-width:0.3985;stroke-linecap:butt;stroke-linejoin:miter;stroke:rgb(0%,0%,0%);stroke-opacity:1;stroke-miterlimit:10;" d="M 32.331161 14.1736 C 32.331161 16.372729 30.54589 18.158 28.346761 18.158 C 26.147632 18.158 24.362361 16.372729 24.362361 14.1736 C 24.362361 11.970414 26.147632 10.189201 28.346761 10.189201 C 30.54589 10.189201 32.331161 11.970414 32.331161 14.1736 Z M 25.530902 11.353684 L 31.166677 16.989459 M 25.530902 16.989459 L 31.166677 11.353684 " transform="matrix(0.962739,0,0,-0.962739,5.092276,17.481417)"/>
<path style="fill:none;stroke-width:0.3985;stroke-linecap:butt;stroke-linejoin:miter;stroke:rgb(0%,0%,0%);stroke-opacity:1;stroke-miterlimit:10;" d="M 32.331161 14.1736 C 32.331161 16.372729 30.54589 18.158 28.346761 18.158 C 26.147632 18.158 24.362361 16.372729 24.362361 14.1736 C 24.362361 11.970414 26.147632 10.189201 28.346761 10.189201 C 30.54589 10.189201 32.331161 11.970414 32.331161 14.1736 Z M 25.530902 11.353684 L 31.166677 16.989459 M 25.530902 16.989459 L 31.166677 11.353684 " transform="matrix(0.962739,0,0,-0.962739,5.092276,17.481417)"/>
<path style="fill:none;stroke-width:0.3985;stroke-linecap:butt;stroke-linejoin:miter;stroke:rgb(0%,0%,0%);stroke-opacity:1;stroke-miterlimit:10;" d="M 32.331161 14.1736 C 32.331161 16.372729 30.54589 18.158 28.346761 18.158 C 26.147632 18.158 24.362361 16.372729 24.362361 14.1736 C 24.362361 11.970414 26.147632 10.189201 28.346761 10.189201 C 30.54589 10.189201 32.331161 11.970414 32.331161 14.1736 Z M 25.530902 11.353684 L 31.166677 16.989459 M 25.530902 16.989459 L 31.166677 11.353684 " transform="matrix(0.962739,0,0,-0.962739,5.092276,17.481417)"/>
<path style="fill:none;stroke-width:0.3985;stroke-linecap:butt;stroke-linejoin:miter;stroke:rgb(0%,0%,0%);stroke-opacity:1;stroke-miterlimit:10;" d="M 32.331161 14.1736 C 32.331161 16.372729 30.54589 18.158 28.346761 18.158 C 26.147632 18.158 24.362361 16.372729 24.362361 14.1736 C 24.362361 11.970414 26.147632 10.189201 28.346761 10.189201 C 30.54589 10.189201 32.331161 11.970414 32.331161 14.1736 Z M 25.530902 11.353684 L 31.166677 16.989459 M 25.530902 16.989459 L 31.166677 11.353684 " transform="matrix(0.962739,0,0,-0.962739,5.092276,17.481417)"/>
<path style="fill:none;stroke-width:0.3985;stroke-linecap:butt;stroke-linejoin:miter;stroke:rgb(0%,0%,0%);stroke-opacity:1;stroke-miterlimit:10;" d="M 32.331161 14.1736 C 32.331161 16.372729 30.54589 18.158 28.346761 18.158 C 26.147632 18.158 24.362361 16.372729 24.362361 14.1736 C 24.362361 11.970414 26.147632 10.189201 28.346761 10.189201 C 30.54589 10.189201 32.331161 11.970414 32.331161 14.1736 Z M 25.530902 11.353684 L 31.166677 16.989459 M 25.530902 16.989459 L 31.166677 11.353684 " transform="matrix(0.962739,0,0,-0.962739,5.092276,17.481417)"/>
<path style="fill:none;stroke-width:0.3985;stroke-linecap:butt;stroke-linejoin:miter;stroke:rgb(0%,0%,0%);stroke-opacity:1;stroke-miterlimit:10;" d="M 32.331161 14.1736 C 32.331161 16.372729 30.54589 18.158 28.346761 18.158 C 26.147632 18.158 24.362361 16.372729 24.362361 14.1736 C 24.362361 11.970414 26.147632 10.189201 28.346761 10.189201 C 30.54589 10.189201 32.331161 11.970414 32.331161 14.1736 Z M 25.530902 11.353684 L 31.166677 16.989459 M 25.530902 16.989459 L 31.166677 11.353684 " transform="matrix(0.962739,0,0,-0.962739,5.092276,17.481417)"/>
<path style="fill:none;stroke-width:0.3985;stroke-linecap:butt;stroke-linejoin:miter;stroke:rgb(0%,0%,0%);stroke-opacity:1;stroke-miterlimit:10;" d="M 32.331161 14.1736 C 32.331161 16.372729 30.54589 18.158 28.346761 18.158 C 26.147632 18.158 24.362361 16.372729 24.362361 14.1736 C 24.362361 11.970414 26.147632 10.189201 28.346761 10.189201 C 30.54589 10.189201 32.331161 11.970414 32.331161 14.1736 Z M 25.530902 11.353684 L 31.166677 16.989459 M 25.530902 16.989459 L 31.166677 11.353684 " transform="matrix(0.962739,0,0,-0.962739,5.092276,17.481417)"/>
<path style="fill:none;stroke-width:0.3985;stroke-linecap:butt;stroke-linejoin:miter;stroke:rgb(0%,0%,0%);stroke-opacity:1;stroke-miterlimit:10;" d="M 32.331161 14.1736 C 32.331161 16.372729 30.54589 18.158 28.346761 18.158 C 26.147632 18.158 24.362361 16.372729 24.362361 14.1736 C 24.362361 11.970414 26.147632 10.189201 28.346761 10.189201 C 30.54589 10.189201 32.331161 11.970414 32.331161 14.1736 Z M 25.530902 11.353684 L 31.166677 16.989459 M 25.530902 16.989459 L 31.166677 11.353684 " transform="matrix(0.962739,0,0,-0.962739,5.092276,17.481417)"/>
<path style="fill:none;stroke-width:0.3985;stroke-linecap:butt;stroke-linejoin:miter;stroke:rgb(0%,0%,0%);stroke-opacity:1;stroke-miterlimit:10;" d="M 32.331161 14.1736 C 32.331161 16.372729 30.54589 18.158 28.346761 18.158 C 26.147632 18.158 24.362361 16.372729 24.362361 14.1736 C 24.362361 11.970414 26.147632 10.189201 28.346761 10.189201 C 30.54589 10.189201 32.331161 11.970414 32.331161 14.1736 Z M 25.530902 11.353684 L 31.166677 16.989459 M 25.530902 16.989459 L 31.166677 11.353684 " transform="matrix(0.962739,0,0,-0.962739,5.092276,17.481417)"/>
<path style="fill:none;stroke-width:0.3985;stroke-linecap:butt;stroke-linejoin:miter;stroke:rgb(0%,0%,0%);stroke-opacity:1;stroke-miterlimit:10;" d="M 32.331161 14.1736 C 32.331161 16.372729 30.54589 18.158 28.346761 18.158 C 26.147632 18.158 24.362361 16.372729 24.362361 14.1736 C 24.362361 11.970414 26.147632 10.189201 28.346761 10.189201 C 30.54589 10.189201 32.331161 11.970414 32.331161 14.1736 Z M 25.530902 11.353684 L 31.166677 16.989459 M 25.530902 16.989459 L 31.166677 11.353684 " transform="matrix(0.962739,0,0,-0.962739,5.092276,17.481417)"/>
<path style="fill:none;stroke-width:0.3985;stroke-linecap:butt;stroke-linejoin:miter;stroke:rgb(0%,0%,0%);stroke-opacity:1;stroke-miterlimit:10;" d="M 32.331161 14.1736 C 32.331161 16.372729 30.54589 18.158 28.346761 18.158 C 26.147632 18.158 24.362361 16.372729 24.362361 14.1736 C 24.362361 11.970414 26.147632 10.189201 28.346761 10.189201 C 30.54589 10.189201 32.331161 11.970414 32.331161 14.1736 Z M 25.530902 11.353684 L 31.166677 16.989459 M 25.530902 16.989459 L 31.166677 11.353684 " transform="matrix(0.962739,0,0,-0.962739,5.092276,17.481417)"/>
<path style="fill:none;stroke-width:0.3985;stroke-linecap:butt;stroke-linejoin:miter;stroke:rgb(0%,0%,0%);stroke-opacity:1;stroke-miterlimit:10;" d="M 32.331161 14.1736 C 32.331161 16.372729 30.54589 18.158 28.346761 18.158 C 26.147632 18.158 24.362361 16.372729 24.362361 14.1736 C 24.362361 11.970414 26.147632 10.189201 28.346761 10.189201 C 30.54589 10.189201 32.331161 11.970414 32.331161 14.1736 Z M 25.530902 11.353684 L 31.166677 16.989459 M 25.530902 16.989459 L 31.166677 11.353684 " transform="matrix(0.962739,0,0,-0.962739,5.092276,17.481417)"/>
<path style="fill:none;stroke-width:0.3985;stroke-linecap:butt;stroke-linejoin:miter;stroke:rgb(0%,0%,0%);stroke-opacity:1;stroke-miterlimit:10;" d="M 32.331161 14.1736 C 32.331161 16.372729 30.54589 18.158 28.346761 18.158 C 26.147632 18.158 24.362361 16.372729 24.362361 14.1736 C 24.362361 11.970414 26.147632 10.189201 28.346761 10.189201 C 30.54589 10.189201 32.331161 11.970414 32.331161 14.1736 Z M 25.530902 11.353684 L 31.166677 16.989459 M 25.530902 16.989459 L 31.166677 11.353684 " transform="matrix(0.962739,0,0,-0.962739,5.092276,17.481417)"/>
<path style="fill:none;stroke-width:0.3985;stroke-linecap:butt;stroke-linejoin:miter;stroke:rgb(0%,0%,0%);stroke-opacity:1;stroke-miterlimit:10;" d="M 32.331161 14.1736 C 32.331161 16.372729 30.54589 18.158 28.346761 18.158 C 26.147632 18.158 24.362361 16.372729 24.362361 14.1736 C 24.362361 11.970414 26.147632 10.189201 28.346761 10.189201 C 30.54589 10.189201 32.331161 11.970414 32.331161 14.1736 Z M 25.530902 11.353684 L 31.166677 16.989459 M 25.530902 16.989459 L 31.166677 11.353684 " transform="matrix(0.962739,0,0,-0.962739,5.092276,17.481417)"/>
<path style="fill:none;stroke-width:0.3985;stroke-linecap:butt;stroke-linejoin:miter;stroke:rgb(0%,0%,0%);stroke-opacity:1;stroke-miterlimit:10;" d="M 32.331161 14.1736 C 32.331161 16.372729 30.54589 18.158 28.346761 18.158 C 26.147632 18.158 24.362361 16.372729 24.362361 14.1736 C 24.362361 11.970414 26.147632 10.189201 28.346761 10.189201 C 30.54589 10.189201 32.331161 11.970414 32.331161 14.1736 Z M 25.530902 11.353684 L 31.166677 16.989459 M 25.530902 16.989459 L 31.166677 11.353684 " transform="matrix(0.962739,0,0,-0.962739,5.092276,17.481417)"/>
<path style="fill:none;stroke-width:0.3985;stroke-linecap:butt;stroke-linejoin:miter;stroke:rgb(0%,0%,0%);stroke-opacity:1;stroke-miterlimit:10;" d="M 32.331161 14.1736 C 32.331161 16.372729 30.54589 18.158 28.346761 18.158 C 26.147632 18.158 24.362361 16.372729 24.362361 14.1736 C 24.362361 11.970414 26.147632 10.189201 28.346761 10.189201 C 30.54589 10.189201 32.331161 11.970414 32.331161 14.1736 Z M 25.530902 11.353684 L 31.166677 16.989459 M 25.530902 16.989459 L 31.166677 11.353684 " transform="matrix(0.962739,0,0,-0.962739,5.092276,17.481417)"/>
<path style="fill:none;stroke-width:0.3985;stroke-linecap:butt;stroke-linejoin:miter;stroke:rgb(0%,0%,0%);stroke-opacity:1;stroke-miterlimit:10;" d="M 32.331161 14.1736 C 32.331161 16.372729 30.54589 18.158 28.346761 18.158 C 26.147632 18.158 24.362361 16.372729 24.362361 14.1736 C 24.362361 11.970414 26.147632 10.189201 28.346761 10.189201 C 30.54589 10.189201 32.331161 11.970414 32.331161 14.1736 Z M 25.530902 11.353684 L 31.166677 16.989459 M 25.530902 16.989459 L 31.166677 11.353684 " transform="matrix(0.962739,0,0,-0.962739,5.092276,17.481417)"/>
<g clip-path="url(#clip3)" clip-rule="nonzero">
<path style="fill:none;stroke-width:0.3985;stroke-linecap:butt;stroke-linejoin:miter;stroke:rgb(0%,0%,0%);stroke-opacity:1;stroke-miterlimit:10;" d="M 60.680449 0.000985086 C 60.680449 2.200114 58.895178 3.985385 56.691992 3.985385 C 54.492863 3.985385 52.707592 2.200114 52.707592 0.000985086 C 52.707592 -2.202201 54.492863 -3.983415 56.691992 -3.983415 C 58.895178 -3.983415 60.680449 -2.202201 60.680449 0.000985086 Z M 53.876133 -2.818931 L 59.511908 2.816844 M 53.876133 2.816844 L 59.511908 -2.818931 " transform="matrix(0.962739,0,0,-0.962739,5.092276,17.481417)"/>
<path style="fill:none;stroke-width:0.3985;stroke-linecap:butt;stroke-linejoin:miter;stroke:rgb(0%,0%,0%);stroke-opacity:1;stroke-miterlimit:10;" d="M 60.680449 0.000985086 C 60.680449 2.200114 58.895178 3.985385 56.691992 3.985385 C 54.492863 3.985385 52.707592 2.200114 52.707592 0.000985086 C 52.707592 -2.202201 54.492863 -3.983415 56.691992 -3.983415 C 58.895178 -3.983415 60.680449 -2.202201 60.680449 0.000985086 Z M 53.876133 -2.818931 L 59.511908 2.816844 M 53.876133 2.816844 L 59.511908 -2.818931 " transform="matrix(0.962739,0,0,-0.962739,5.092276,17.481417)"/>
<path style="fill:none;stroke-width:0.3985;stroke-linecap:butt;stroke-linejoin:miter;stroke:rgb(0%,0%,0%);stroke-opacity:1;stroke-miterlimit:10;" d="M 60.680449 0.000985086 C 60.680449 2.200114 58.895178 3.985385 56.691992 3.985385 C 54.492863 3.985385 52.707592 2.200114 52.707592 0.000985086 C 52.707592 -2.202201 54.492863 -3.983415 56.691992 -3.983415 C 58.895178 -3.983415 60.680449 -2.202201 60.680449 0.000985086 Z M 53.876133 -2.818931 L 59.511908 2.816844 M 53.876133 2.816844 L 59.511908 -2.818931 " transform="matrix(0.962739,0,0,-0.962739,5.092276,17.481417)"/>
<path style="fill:none;stroke-width:0.3985;stroke-linecap:butt;stroke-linejoin:miter;stroke:rgb(0%,0%,0%);stroke-opacity:1;stroke-miterlimit:10;" d="M 60.680449 0.000985086 C 60.680449 2.200114 58.895178 3.985385 56.691992 3.985385 C 54.492863 3.985385 52.707592 2.200114 52.707592 0.000985086 C 52.707592 -2.202201 54.492863 -3.983415 56.691992 -3.983415 C 58.895178 -3.983415 60.680449 -2.202201 60.680449 0.000985086 Z M 53.876133 -2.818931 L 59.511908 2.816844 M 53.876133 2.816844 L 59.511908 -2.818931 " transform="matrix(0.962739,0,0,-0.962739,5.092276,17.481417)"/>
<path style="fill:none;stroke-width:0.3985;stroke-linecap:butt;stroke-linejoin:miter;stroke:rgb(0%,0%,0%);stroke-opacity:1;stroke-miterlimit:10;" d="M 60.680449 0.000985086 C 60.680449 2.200114 58.895178 3.985385 56.691992 3.985385 C 54.492863 3.985385 52.707592 2.200114 52.707592 0.000985086 C 52.707592 -2.202201 54.492863 -3.983415 56.691992 -3.983415 C 58.895178 -3.983415 60.680449 -2.202201 60.680449 0.000985086 Z M 53.876133 -2.818931 L 59.511908 2.816844 M 53.876133 2.816844 L 59.511908 -2.818931 " transform="matrix(0.962739,0,0,-0.962739,5.092276,17.481417)"/>
<path style="fill:none;stroke-width:0.3985;stroke-linecap:butt;stroke-linejoin:miter;stroke:rgb(0%,0%,0%);stroke-opacity:1;stroke-miterlimit:10;" d="M 60.680449 0.000985086 C 60.680449 2.200114 58.895178 3.985385 56.691992 3.985385 C 54.492863 3.985385 52.707592 2.200114 52.707592 0.000985086 C 52.707592 -2.202201 54.492863 -3.983415 56.691992 -3.983415 C 58.895178 -3.983415 60.680449 -2.202201 60.680449 0.000985086 Z M 53.876133 -2.818931 L 59.511908 2.816844 M 53.876133 2.816844 L 59.511908 -2.818931 " transform="matrix(0.962739,0,0,-0.962739,5.092276,17.481417)"/>
<path style="fill:none;stroke-width:0.3985;stroke-linecap:butt;stroke-linejoin:miter;stroke:rgb(0%,0%,0%);stroke-opacity:1;stroke-miterlimit:10;" d="M 60.680449 0.000985086 C 60.680449 2.200114 58.895178 3.985385 56.691992 3.985385 C 54.492863 3.985385 52.707592 2.200114 52.707592 0.000985086 C 52.707592 -2.202201 54.492863 -3.983415 56.691992 -3.983415 C 58.895178 -3.983415 60.680449 -2.202201 60.680449 0.000985086 Z M 53.876133 -2.818931 L 59.511908 2.816844 M 53.876133 2.816844 L 59.511908 -2.818931 " transform="matrix(0.962739,0,0,-0.962739,5.092276,17.481417)"/>
<path style="fill:none;stroke-width:0.3985;stroke-linecap:butt;stroke-linejoin:miter;stroke:rgb(0%,0%,0%);stroke-opacity:1;stroke-miterlimit:10;" d="M 60.680449 0.000985086 C 60.680449 2.200114 58.895178 3.985385 56.691992 3.985385 C 54.492863 3.985385 52.707592 2.200114 52.707592 0.000985086 C 52.707592 -2.202201 54.492863 -3.983415 56.691992 -3.983415 C 58.895178 -3.983415 60.680449 -2.202201 60.680449 0.000985086 Z M 53.876133 -2.818931 L 59.511908 2.816844 M 53.876133 2.816844 L 59.511908 -2.818931 " transform="matrix(0.962739,0,0,-0.962739,5.092276,17.481417)"/>
<path style="fill:none;stroke-width:0.3985;stroke-linecap:butt;stroke-linejoin:miter;stroke:rgb(0%,0%,0%);stroke-opacity:1;stroke-miterlimit:10;" d="M 60.680449 0.000985086 C 60.680449 2.200114 58.895178 3.985385 56.691992 3.985385 C 54.492863 3.985385 52.707592 2.200114 52.707592 0.000985086 C 52.707592 -2.202201 54.492863 -3.983415 56.691992 -3.983415 C 58.895178 -3.983415 60.680449 -2.202201 60.680449 0.000985086 Z M 53.876133 -2.818931 L 59.511908 2.816844 M 53.876133 2.816844 L 59.511908 -2.818931 " transform="matrix(0.962739,0,0,-0.962739,5.092276,17.481417)"/>
<path style="fill:none;stroke-width:0.3985;stroke-linecap:butt;stroke-linejoin:miter;stroke:rgb(0%,0%,0%);stroke-opacity:1;stroke-miterlimit:10;" d="M 60.680449 0.000985086 C 60.680449 2.200114 58.895178 3.985385 56.691992 3.985385 C 54.492863 3.985385 52.707592 2.200114 52.707592 0.000985086 C 52.707592 -2.202201 54.492863 -3.983415 56.691992 -3.983415 C 58.895178 -3.983415 60.680449 -2.202201 60.680449 0.000985086 Z M 53.876133 -2.818931 L 59.511908 2.816844 M 53.876133 2.816844 L 59.511908 -2.818931 " transform="matrix(0.962739,0,0,-0.962739,5.092276,17.481417)"/>
<path style="fill:none;stroke-width:0.3985;stroke-linecap:butt;stroke-linejoin:miter;stroke:rgb(0%,0%,0%);stroke-opacity:1;stroke-miterlimit:10;" d="M 60.680449 0.000985086 C 60.680449 2.200114 58.895178 3.985385 56.691992 3.985385 C 54.492863 3.985385 52.707592 2.200114 52.707592 0.000985086 C 52.707592 -2.202201 54.492863 -3.983415 56.691992 -3.983415 C 58.895178 -3.983415 60.680449 -2.202201 60.680449 0.000985086 Z M 53.876133 -2.818931 L 59.511908 2.816844 M 53.876133 2.816844 L 59.511908 -2.818931 " transform="matrix(0.962739,0,0,-0.962739,5.092276,17.481417)"/>
<path style="fill:none;stroke-width:0.3985;stroke-linecap:butt;stroke-linejoin:miter;stroke:rgb(0%,0%,0%);stroke-opacity:1;stroke-miterlimit:10;" d="M 60.680449 0.000985086 C 60.680449 2.200114 58.895178 3.985385 56.691992 3.985385 C 54.492863 3.985385 52.707592 2.200114 52.707592 0.000985086 C 52.707592 -2.202201 54.492863 -3.983415 56.691992 -3.983415 C 58.895178 -3.983415 60.680449 -2.202201 60.680449 0.000985086 Z M 53.876133 -2.818931 L 59.511908 2.816844 M 53.876133 2.816844 L 59.511908 -2.818931 " transform="matrix(0.962739,0,0,-0.962739,5.092276,17.481417)"/>
<path style="fill:none;stroke-width:0.3985;stroke-linecap:butt;stroke-linejoin:miter;stroke:rgb(0%,0%,0%);stroke-opacity:1;stroke-miterlimit:10;" d="M 60.680449 0.000985086 C 60.680449 2.200114 58.895178 3.985385 56.691992 3.985385 C 54.492863 3.985385 52.707592 2.200114 52.707592 0.000985086 C 52.707592 -2.202201 54.492863 -3.983415 56.691992 -3.983415 C 58.895178 -3.983415 60.680449 -2.202201 60.680449 0.000985086 Z M 53.876133 -2.818931 L 59.511908 2.816844 M 53.876133 2.816844 L 59.511908 -2.818931 " transform="matrix(0.962739,0,0,-0.962739,5.092276,17.481417)"/>
<path style="fill:none;stroke-width:0.3985;stroke-linecap:butt;stroke-linejoin:miter;stroke:rgb(0%,0%,0%);stroke-opacity:1;stroke-miterlimit:10;" d="M 60.680449 0.000985086 C 60.680449 2.200114 58.895178 3.985385 56.691992 3.985385 C 54.492863 3.985385 52.707592 2.200114 52.707592 0.000985086 C 52.707592 -2.202201 54.492863 -3.983415 56.691992 -3.983415 C 58.895178 -3.983415 60.680449 -2.202201 60.680449 0.000985086 Z M 53.876133 -2.818931 L 59.511908 2.816844 M 53.876133 2.816844 L 59.511908 -2.818931 " transform="matrix(0.962739,0,0,-0.962739,5.092276,17.481417)"/>
<path style="fill:none;stroke-width:0.3985;stroke-linecap:butt;stroke-linejoin:miter;stroke:rgb(0%,0%,0%);stroke-opacity:1;stroke-miterlimit:10;" d="M 60.680449 0.000985086 C 60.680449 2.200114 58.895178 3.985385 56.691992 3.985385 C 54.492863 3.985385 52.707592 2.200114 52.707592 0.000985086 C 52.707592 -2.202201 54.492863 -3.983415 56.691992 -3.983415 C 58.895178 -3.983415 60.680449 -2.202201 60.680449 0.000985086 Z M 53.876133 -2.818931 L 59.511908 2.816844 M 53.876133 2.816844 L 59.511908 -2.818931 " transform="matrix(0.962739,0,0,-0.962739,5.092276,17.481417)"/>
<path style="fill:none;stroke-width:0.3985;stroke-linecap:butt;stroke-linejoin:miter;stroke:rgb(0%,0%,0%);stroke-opacity:1;stroke-miterlimit:10;" d="M 60.680449 0.000985086 C 60.680449 2.200114 58.895178 3.985385 56.691992 3.985385 C 54.492863 3.985385 52.707592 2.200114 52.707592 0.000985086 C 52.707592 -2.202201 54.492863 -3.983415 56.691992 -3.983415 C 58.895178 -3.983415 60.680449 -2.202201 60.680449 0.000985086 Z M 53.876133 -2.818931 L 59.511908 2.816844 M 53.876133 2.816844 L 59.511908 -2.818931 " transform="matrix(0.962739,0,0,-0.962739,5.092276,17.481417)"/>
<path style="fill:none;stroke-width:0.3985;stroke-linecap:butt;stroke-linejoin:miter;stroke:rgb(0%,0%,0%);stroke-opacity:1;stroke-miterlimit:10;" d="M 60.680449 0.000985086 C 60.680449 2.200114 58.895178 3.985385 56.691992 3.985385 C 54.492863 3.985385 52.707592 2.200114 52.707592 0.000985086 C 52.707592 -2.202201 54.492863 -3.983415 56.691992 -3.983415 C 58.895178 -3.983415 60.680449 -2.202201 60.680449 0.000985086 Z M 53.876133 -2.818931 L 59.511908 2.816844 M 53.876133 2.816844 L 59.511908 -2.818931 " transform="matrix(0.962739,0,0,-0.962739,5.092276,17.481417)"/>
<path style="fill:none;stroke-width:0.3985;stroke-linecap:butt;stroke-linejoin:miter;stroke:rgb(0%,0%,0%);stroke-opacity:1;stroke-miterlimit:10;" d="M 60.680449 0.000985086 C 60.680449 2.200114 58.895178 3.985385 56.691992 3.985385 C 54.492863 3.985385 52.707592 2.200114 52.707592 0.000985086 C 52.707592 -2.202201 54.492863 -3.983415 56.691992 -3.983415 C 58.895178 -3.983415 60.680449 -2.202201 60.680449 0.000985086 Z M 53.876133 -2.818931 L 59.511908 2.816844 M 53.876133 2.816844 L 59.511908 -2.818931 " transform="matrix(0.962739,0,0,-0.962739,5.092276,17.481417)"/>
<path style="fill:none;stroke-width:0.3985;stroke-linecap:butt;stroke-linejoin:miter;stroke:rgb(0%,0%,0%);stroke-opacity:1;stroke-miterlimit:10;" d="M 60.680449 0.000985086 C 60.680449 2.200114 58.895178 3.985385 56.691992 3.985385 C 54.492863 3.985385 52.707592 2.200114 52.707592 0.000985086 C 52.707592 -2.202201 54.492863 -3.983415 56.691992 -3.983415 C 58.895178 -3.983415 60.680449 -2.202201 60.680449 0.000985086 Z M 53.876133 -2.818931 L 59.511908 2.816844 M 53.876133 2.816844 L 59.511908 -2.818931 " transform="matrix(0.962739,0,0,-0.962739,5.092276,17.481417)"/>
<path style="fill:none;stroke-width:0.3985;stroke-linecap:butt;stroke-linejoin:miter;stroke:rgb(0%,0%,0%);stroke-opacity:1;stroke-miterlimit:10;" d="M 60.680449 0.000985086 C 60.680449 2.200114 58.895178 3.985385 56.691992 3.985385 C 54.492863 3.985385 52.707592 2.200114 52.707592 0.000985086 C 52.707592 -2.202201 54.492863 -3.983415 56.691992 -3.983415 C 58.895178 -3.983415 60.680449 -2.202201 60.680449 0.000985086 Z M 53.876133 -2.818931 L 59.511908 2.816844 M 53.876133 2.816844 L 59.511908 -2.818931 " transform="matrix(0.962739,0,0,-0.962739,5.092276,17.481417)"/>
<path style="fill:none;stroke-width:0.3985;stroke-linecap:butt;stroke-linejoin:miter;stroke:rgb(0%,0%,0%);stroke-opacity:1;stroke-miterlimit:10;" d="M 60.680449 0.000985086 C 60.680449 2.200114 58.895178 3.985385 56.691992 3.985385 C 54.492863 3.985385 52.707592 2.200114 52.707592 0.000985086 C 52.707592 -2.202201 54.492863 -3.983415 56.691992 -3.983415 C 58.895178 -3.983415 60.680449 -2.202201 60.680449 0.000985086 Z M 53.876133 -2.818931 L 59.511908 2.816844 M 53.876133 2.816844 L 59.511908 -2.818931 " transform="matrix(0.962739,0,0,-0.962739,5.092276,17.481417)"/>
<path style="fill:none;stroke-width:0.3985;stroke-linecap:butt;stroke-linejoin:miter;stroke:rgb(0%,0%,0%);stroke-opacity:1;stroke-miterlimit:10;" d="M 60.680449 0.000985086 C 60.680449 2.200114 58.895178 3.985385 56.691992 3.985385 C 54.492863 3.985385 52.707592 2.200114 52.707592 0.000985086 C 52.707592 -2.202201 54.492863 -3.983415 56.691992 -3.983415 C 58.895178 -3.983415 60.680449 -2.202201 60.680449 0.000985086 Z M 53.876133 -2.818931 L 59.511908 2.816844 M 53.876133 2.816844 L 59.511908 -2.818931 " transform="matrix(0.962739,0,0,-0.962739,5.092276,17.481417)"/>
<path style="fill:none;stroke-width:0.3985;stroke-linecap:butt;stroke-linejoin:miter;stroke:rgb(0%,0%,0%);stroke-opacity:1;stroke-miterlimit:10;" d="M 60.680449 0.000985086 C 60.680449 2.200114 58.895178 3.985385 56.691992 3.985385 C 54.492863 3.985385 52.707592 2.200114 52.707592 0.000985086 C 52.707592 -2.202201 54.492863 -3.983415 56.691992 -3.983415 C 58.895178 -3.983415 60.680449 -2.202201 60.680449 0.000985086 Z M 53.876133 -2.818931 L 59.511908 2.816844 M 53.876133 2.816844 L 59.511908 -2.818931 " transform="matrix(0.962739,0,0,-0.962739,5.092276,17.481417)"/>
<path style="fill:none;stroke-width:0.3985;stroke-linecap:butt;stroke-linejoin:miter;stroke:rgb(0%,0%,0%);stroke-opacity:1;stroke-miterlimit:10;" d="M 60.680449 0.000985086 C 60.680449 2.200114 58.895178 3.985385 56.691992 3.985385 C 54.492863 3.985385 52.707592 2.200114 52.707592 0.000985086 C 52.707592 -2.202201 54.492863 -3.983415 56.691992 -3.983415 C 58.895178 -3.983415 60.680449 -2.202201 60.680449 0.000985086 Z M 53.876133 -2.818931 L 59.511908 2.816844 M 53.876133 2.816844 L 59.511908 -2.818931 " transform="matrix(0.962739,0,0,-0.962739,5.092276,17.481417)"/>
</g>
<g clip-path="url(#clip4)" clip-rule="nonzero">
<path style="fill:none;stroke-width:0.3985;stroke-linecap:butt;stroke-linejoin:miter;stroke:rgb(0%,0%,0%);stroke-opacity:1;stroke-miterlimit:10;" d="M 89.025679 14.1736 C 89.025679 16.372729 87.240408 18.158 85.041279 18.158 C 82.838093 18.158 81.05688 16.372729 81.05688 14.1736 C 81.05688 11.970414 82.838093 10.189201 85.041279 10.189201 C 87.240408 10.189201 89.025679 11.970414 89.025679 14.1736 Z M 82.221363 11.353684 L 87.857138 16.989459 M 82.221363 16.989459 L 87.857138 11.353684 " transform="matrix(0.962739,0,0,-0.962739,5.092276,17.481417)"/>
<path style="fill:none;stroke-width:0.3985;stroke-linecap:butt;stroke-linejoin:miter;stroke:rgb(0%,0%,0%);stroke-opacity:1;stroke-miterlimit:10;" d="M 89.025679 14.1736 C 89.025679 16.372729 87.240408 18.158 85.041279 18.158 C 82.838093 18.158 81.05688 16.372729 81.05688 14.1736 C 81.05688 11.970414 82.838093 10.189201 85.041279 10.189201 C 87.240408 10.189201 89.025679 11.970414 89.025679 14.1736 Z M 82.221363 11.353684 L 87.857138 16.989459 M 82.221363 16.989459 L 87.857138 11.353684 " transform="matrix(0.962739,0,0,-0.962739,5.092276,17.481417)"/>
<path style="fill:none;stroke-width:0.3985;stroke-linecap:butt;stroke-linejoin:miter;stroke:rgb(0%,0%,0%);stroke-opacity:1;stroke-miterlimit:10;" d="M 89.025679 14.1736 C 89.025679 16.372729 87.240408 18.158 85.041279 18.158 C 82.838093 18.158 81.05688 16.372729 81.05688 14.1736 C 81.05688 11.970414 82.838093 10.189201 85.041279 10.189201 C 87.240408 10.189201 89.025679 11.970414 89.025679 14.1736 Z M 82.221363 11.353684 L 87.857138 16.989459 M 82.221363 16.989459 L 87.857138 11.353684 " transform="matrix(0.962739,0,0,-0.962739,5.092276,17.481417)"/>
<path style="fill:none;stroke-width:0.3985;stroke-linecap:butt;stroke-linejoin:miter;stroke:rgb(0%,0%,0%);stroke-opacity:1;stroke-miterlimit:10;" d="M 89.025679 14.1736 C 89.025679 16.372729 87.240408 18.158 85.041279 18.158 C 82.838093 18.158 81.05688 16.372729 81.05688 14.1736 C 81.05688 11.970414 82.838093 10.189201 85.041279 10.189201 C 87.240408 10.189201 89.025679 11.970414 89.025679 14.1736 Z M 82.221363 11.353684 L 87.857138 16.989459 M 82.221363 16.989459 L 87.857138 11.353684 " transform="matrix(0.962739,0,0,-0.962739,5.092276,17.481417)"/>
<path style="fill:none;stroke-width:0.3985;stroke-linecap:butt;stroke-linejoin:miter;stroke:rgb(0%,0%,0%);stroke-opacity:1;stroke-miterlimit:10;" d="M 89.025679 14.1736 C 89.025679 16.372729 87.240408 18.158 85.041279 18.158 C 82.838093 18.158 81.05688 16.372729 81.05688 14.1736 C 81.05688 11.970414 82.838093 10.189201 85.041279 10.189201 C 87.240408 10.189201 89.025679 11.970414 89.025679 14.1736 Z M 82.221363 11.353684 L 87.857138 16.989459 M 82.221363 16.989459 L 87.857138 11.353684 " transform="matrix(0.962739,0,0,-0.962739,5.092276,17.481417)"/>
<path style="fill:none;stroke-width:0.3985;stroke-linecap:butt;stroke-linejoin:miter;stroke:rgb(0%,0%,0%);stroke-opacity:1;stroke-miterlimit:10;" d="M 89.025679 14.1736 C 89.025679 16.372729 87.240408 18.158 85.041279 18.158 C 82.838093 18.158 81.05688 16.372729 81.05688 14.1736 C 81.05688 11.970414 82.838093 10.189201 85.041279 10.189201 C 87.240408 10.189201 89.025679 11.970414 89.025679 14.1736 Z M 82.221363 11.353684 L 87.857138 16.989459 M 82.221363 16.989459 L 87.857138 11.353684 " transform="matrix(0.962739,0,0,-0.962739,5.092276,17.481417)"/>
<path style="fill:none;stroke-width:0.3985;stroke-linecap:butt;stroke-linejoin:miter;stroke:rgb(0%,0%,0%);stroke-opacity:1;stroke-miterlimit:10;" d="M 89.025679 14.1736 C 89.025679 16.372729 87.240408 18.158 85.041279 18.158 C 82.838093 18.158 81.05688 16.372729 81.05688 14.1736 C 81.05688 11.970414 82.838093 10.189201 85.041279 10.189201 C 87.240408 10.189201 89.025679 11.970414 89.025679 14.1736 Z M 82.221363 11.353684 L 87.857138 16.989459 M 82.221363 16.989459 L 87.857138 11.353684 " transform="matrix(0.962739,0,0,-0.962739,5.092276,17.481417)"/>
<path style="fill:none;stroke-width:0.3985;stroke-linecap:butt;stroke-linejoin:miter;stroke:rgb(0%,0%,0%);stroke-opacity:1;stroke-miterlimit:10;" d="M 89.025679 14.1736 C 89.025679 16.372729 87.240408 18.158 85.041279 18.158 C 82.838093 18.158 81.05688 16.372729 81.05688 14.1736 C 81.05688 11.970414 82.838093 10.189201 85.041279 10.189201 C 87.240408 10.189201 89.025679 11.970414 89.025679 14.1736 Z M 82.221363 11.353684 L 87.857138 16.989459 M 82.221363 16.989459 L 87.857138 11.353684 " transform="matrix(0.962739,0,0,-0.962739,5.092276,17.481417)"/>
<path style="fill:none;stroke-width:0.3985;stroke-linecap:butt;stroke-linejoin:miter;stroke:rgb(0%,0%,0%);stroke-opacity:1;stroke-miterlimit:10;" d="M 89.025679 14.1736 C 89.025679 16.372729 87.240408 18.158 85.041279 18.158 C 82.838093 18.158 81.05688 16.372729 81.05688 14.1736 C 81.05688 11.970414 82.838093 10.189201 85.041279 10.189201 C 87.240408 10.189201 89.025679 11.970414 89.025679 14.1736 Z M 82.221363 11.353684 L 87.857138 16.989459 M 82.221363 16.989459 L 87.857138 11.353684 " transform="matrix(0.962739,0,0,-0.962739,5.092276,17.481417)"/>
<path style="fill:none;stroke-width:0.3985;stroke-linecap:butt;stroke-linejoin:miter;stroke:rgb(0%,0%,0%);stroke-opacity:1;stroke-miterlimit:10;" d="M 89.025679 14.1736 C 89.025679 16.372729 87.240408 18.158 85.041279 18.158 C 82.838093 18.158 81.05688 16.372729 81.05688 14.1736 C 81.05688 11.970414 82.838093 10.189201 85.041279 10.189201 C 87.240408 10.189201 89.025679 11.970414 89.025679 14.1736 Z M 82.221363 11.353684 L 87.857138 16.989459 M 82.221363 16.989459 L 87.857138 11.353684 " transform="matrix(0.962739,0,0,-0.962739,5.092276,17.481417)"/>
<path style="fill:none;stroke-width:0.3985;stroke-linecap:butt;stroke-linejoin:miter;stroke:rgb(0%,0%,0%);stroke-opacity:1;stroke-miterlimit:10;" d="M 89.025679 14.1736 C 89.025679 16.372729 87.240408 18.158 85.041279 18.158 C 82.838093 18.158 81.05688 16.372729 81.05688 14.1736 C 81.05688 11.970414 82.838093 10.189201 85.041279 10.189201 C 87.240408 10.189201 89.025679 11.970414 89.025679 14.1736 Z M 82.221363 11.353684 L 87.857138 16.989459 M 82.221363 16.989459 L 87.857138 11.353684 " transform="matrix(0.962739,0,0,-0.962739,5.092276,17.481417)"/>
<path style="fill:none;stroke-width:0.3985;stroke-linecap:butt;stroke-linejoin:miter;stroke:rgb(0%,0%,0%);stroke-opacity:1;stroke-miterlimit:10;" d="M 89.025679 14.1736 C 89.025679 16.372729 87.240408 18.158 85.041279 18.158 C 82.838093 18.158 81.05688 16.372729 81.05688 14.1736 C 81.05688 11.970414 82.838093 10.189201 85.041279 10.189201 C 87.240408 10.189201 89.025679 11.970414 89.025679 14.1736 Z M 82.221363 11.353684 L 87.857138 16.989459 M 82.221363 16.989459 L 87.857138 11.353684 " transform="matrix(0.962739,0,0,-0.962739,5.092276,17.481417)"/>
<path style="fill:none;stroke-width:0.3985;stroke-linecap:butt;stroke-linejoin:miter;stroke:rgb(0%,0%,0%);stroke-opacity:1;stroke-miterlimit:10;" d="M 89.025679 14.1736 C 89.025679 16.372729 87.240408 18.158 85.041279 18.158 C 82.838093 18.158 81.05688 16.372729 81.05688 14.1736 C 81.05688 11.970414 82.838093 10.189201 85.041279 10.189201 C 87.240408 10.189201 89.025679 11.970414 89.025679 14.1736 Z M 82.221363 11.353684 L 87.857138 16.989459 M 82.221363 16.989459 L 87.857138 11.353684 " transform="matrix(0.962739,0,0,-0.962739,5.092276,17.481417)"/>
<path style="fill:none;stroke-width:0.3985;stroke-linecap:butt;stroke-linejoin:miter;stroke:rgb(0%,0%,0%);stroke-opacity:1;stroke-miterlimit:10;" d="M 89.025679 14.1736 C 89.025679 16.372729 87.240408 18.158 85.041279 18.158 C 82.838093 18.158 81.05688 16.372729 81.05688 14.1736 C 81.05688 11.970414 82.838093 10.189201 85.041279 10.189201 C 87.240408 10.189201 89.025679 11.970414 89.025679 14.1736 Z M 82.221363 11.353684 L 87.857138 16.989459 M 82.221363 16.989459 L 87.857138 11.353684 " transform="matrix(0.962739,0,0,-0.962739,5.092276,17.481417)"/>
<path style="fill:none;stroke-width:0.3985;stroke-linecap:butt;stroke-linejoin:miter;stroke:rgb(0%,0%,0%);stroke-opacity:1;stroke-miterlimit:10;" d="M 89.025679 14.1736 C 89.025679 16.372729 87.240408 18.158 85.041279 18.158 C 82.838093 18.158 81.05688 16.372729 81.05688 14.1736 C 81.05688 11.970414 82.838093 10.189201 85.041279 10.189201 C 87.240408 10.189201 89.025679 11.970414 89.025679 14.1736 Z M 82.221363 11.353684 L 87.857138 16.989459 M 82.221363 16.989459 L 87.857138 11.353684 " transform="matrix(0.962739,0,0,-0.962739,5.092276,17.481417)"/>
<path style="fill:none;stroke-width:0.3985;stroke-linecap:butt;stroke-linejoin:miter;stroke:rgb(0%,0%,0%);stroke-opacity:1;stroke-miterlimit:10;" d="M 89.025679 14.1736 C 89.025679 16.372729 87.240408 18.158 85.041279 18.158 C 82.838093 18.158 81.05688 16.372729 81.05688 14.1736 C 81.05688 11.970414 82.838093 10.189201 85.041279 10.189201 C 87.240408 10.189201 89.025679 11.970414 89.025679 14.1736 Z M 82.221363 11.353684 L 87.857138 16.989459 M 82.221363 16.989459 L 87.857138 11.353684 " transform="matrix(0.962739,0,0,-0.962739,5.092276,17.481417)"/>
<path style="fill:none;stroke-width:0.3985;stroke-linecap:butt;stroke-linejoin:miter;stroke:rgb(0%,0%,0%);stroke-opacity:1;stroke-miterlimit:10;" d="M 89.025679 14.1736 C 89.025679 16.372729 87.240408 18.158 85.041279 18.158 C 82.838093 18.158 81.05688 16.372729 81.05688 14.1736 C 81.05688 11.970414 82.838093 10.189201 85.041279 10.189201 C 87.240408 10.189201 89.025679 11.970414 89.025679 14.1736 Z M 82.221363 11.353684 L 87.857138 16.989459 M 82.221363 16.989459 L 87.857138 11.353684 " transform="matrix(0.962739,0,0,-0.962739,5.092276,17.481417)"/>
<path style="fill:none;stroke-width:0.3985;stroke-linecap:butt;stroke-linejoin:miter;stroke:rgb(0%,0%,0%);stroke-opacity:1;stroke-miterlimit:10;" d="M 89.025679 14.1736 C 89.025679 16.372729 87.240408 18.158 85.041279 18.158 C 82.838093 18.158 81.05688 16.372729 81.05688 14.1736 C 81.05688 11.970414 82.838093 10.189201 85.041279 10.189201 C 87.240408 10.189201 89.025679 11.970414 89.025679 14.1736 Z M 82.221363 11.353684 L 87.857138 16.989459 M 82.221363 16.989459 L 87.857138 11.353684 " transform="matrix(0.962739,0,0,-0.962739,5.092276,17.481417)"/>
<path style="fill:none;stroke-width:0.3985;stroke-linecap:butt;stroke-linejoin:miter;stroke:rgb(0%,0%,0%);stroke-opacity:1;stroke-miterlimit:10;" d="M 89.025679 14.1736 C 89.025679 16.372729 87.240408 18.158 85.041279 18.158 C 82.838093 18.158 81.05688 16.372729 81.05688 14.1736 C 81.05688 11.970414 82.838093 10.189201 85.041279 10.189201 C 87.240408 10.189201 89.025679 11.970414 89.025679 14.1736 Z M 82.221363 11.353684 L 87.857138 16.989459 M 82.221363 16.989459 L 87.857138 11.353684 " transform="matrix(0.962739,0,0,-0.962739,5.092276,17.481417)"/>
<path style="fill:none;stroke-width:0.3985;stroke-linecap:butt;stroke-linejoin:miter;stroke:rgb(0%,0%,0%);stroke-opacity:1;stroke-miterlimit:10;" d="M 89.025679 14.1736 C 89.025679 16.372729 87.240408 18.158 85.041279 18.158 C 82.838093 18.158 81.05688 16.372729 81.05688 14.1736 C 81.05688 11.970414 82.838093 10.189201 85.041279 10.189201 C 87.240408 10.189201 89.025679 11.970414 89.025679 14.1736 Z M 82.221363 11.353684 L 87.857138 16.989459 M 82.221363 16.989459 L 87.857138 11.353684 " transform="matrix(0.962739,0,0,-0.962739,5.092276,17.481417)"/>
<path style="fill:none;stroke-width:0.3985;stroke-linecap:butt;stroke-linejoin:miter;stroke:rgb(0%,0%,0%);stroke-opacity:1;stroke-miterlimit:10;" d="M 89.025679 14.1736 C 89.025679 16.372729 87.240408 18.158 85.041279 18.158 C 82.838093 18.158 81.05688 16.372729 81.05688 14.1736 C 81.05688 11.970414 82.838093 10.189201 85.041279 10.189201 C 87.240408 10.189201 89.025679 11.970414 89.025679 14.1736 Z M 82.221363 11.353684 L 87.857138 16.989459 M 82.221363 16.989459 L 87.857138 11.353684 " transform="matrix(0.962739,0,0,-0.962739,5.092276,17.481417)"/>
<path style="fill:none;stroke-width:0.3985;stroke-linecap:butt;stroke-linejoin:miter;stroke:rgb(0%,0%,0%);stroke-opacity:1;stroke-miterlimit:10;" d="M 89.025679 14.1736 C 89.025679 16.372729 87.240408 18.158 85.041279 18.158 C 82.838093 18.158 81.05688 16.372729 81.05688 14.1736 C 81.05688 11.970414 82.838093 10.189201 85.041279 10.189201 C 87.240408 10.189201 89.025679 11.970414 89.025679 14.1736 Z M 82.221363 11.353684 L 87.857138 16.989459 M 82.221363 16.989459 L 87.857138 11.353684 " transform="matrix(0.962739,0,0,-0.962739,5.092276,17.481417)"/>
<path style="fill:none;stroke-width:0.3985;stroke-linecap:butt;stroke-linejoin:miter;stroke:rgb(0%,0%,0%);stroke-opacity:1;stroke-miterlimit:10;" d="M 89.025679 14.1736 C 89.025679 16.372729 87.240408 18.158 85.041279 18.158 C 82.838093 18.158 81.05688 16.372729 81.05688 14.1736 C 81.05688 11.970414 82.838093 10.189201 85.041279 10.189201 C 87.240408 10.189201 89.025679 11.970414 89.025679 14.1736 Z M 82.221363 11.353684 L 87.857138 16.989459 M 82.221363 16.989459 L 87.857138 11.353684 " transform="matrix(0.962739,0,0,-0.962739,5.092276,17.481417)"/>
<path style="fill:none;stroke-width:0.3985;stroke-linecap:butt;stroke-linejoin:miter;stroke:rgb(0%,0%,0%);stroke-opacity:1;stroke-miterlimit:10;" d="M 89.025679 14.1736 C 89.025679 16.372729 87.240408 18.158 85.041279 18.158 C 82.838093 18.158 81.05688 16.372729 81.05688 14.1736 C 81.05688 11.970414 82.838093 10.189201 85.041279 10.189201 C 87.240408 10.189201 89.025679 11.970414 89.025679 14.1736 Z M 82.221363 11.353684 L 87.857138 16.989459 M 82.221363 16.989459 L 87.857138 11.353684 " transform="matrix(0.962739,0,0,-0.962739,5.092276,17.481417)"/>
</g>
</g>
</svg>
