<?xml version="1.0" encoding="UTF-8"?>
<svg xmlns="http://www.w3.org/2000/svg" xmlns:xlink="http://www.w3.org/1999/xlink" width="93.009pt" height="22.143pt" viewBox="0 0 93.009 22.143" version="1.2">
<defs>
<clipPath id="clip1">
  <path d="M 1.253906 0 L 90.800781 0 L 90.800781 21.316406 L 1.253906 21.316406 Z M 1.253906 0 "/>
</clipPath>
<clipPath id="clip2">
  <path d="M 1.253906 13 L 10 13 L 10 21.316406 L 1.253906 21.316406 Z M 1.253906 13 "/>
</clipPath>
<clipPath id="clip3">
  <path d="M 55 13 L 64 13 L 64 21.316406 L 55 21.316406 Z M 55 13 "/>
</clipPath>
<clipPath id="clip4">
  <path d="M 82 0 L 90.800781 0 L 90.800781 8 L 82 8 Z M 82 0 "/>
</clipPath>
</defs>
<g id="surface1">
<g clip-path="url(#clip1)" clip-rule="nonzero">
<path style="fill:none;stroke-width:0.3985;stroke-linecap:butt;stroke-linejoin:miter;stroke:rgb(0%,0%,0%);stroke-opacity:1;stroke-miterlimit:10;" d="M 0.00153073 0.000985086 L 28.346761 14.1736 L 56.691992 0.000985086 L 85.041279 14.1736 " transform="matrix(0.962739,0,0,-0.962739,5.092276,17.481417)"/>
</g>
<g clip-path="url(#clip2)" clip-rule="nonzero">
<path style="fill:none;stroke-width:0.3985;stroke-linecap:butt;stroke-linejoin:miter;stroke:rgb(0%,0%,0%);stroke-opacity:1;stroke-miterlimit:10;" d="M -3.986926 -3.983415 L 3.98593 -3.983415 L 3.98593 3.985385 L -3.986926 3.985385 Z M -3.986926 -3.983415 " transform="matrix(0.962739,0,0,-0.962739,5.092276,17.481417)"/>
<path style="fill:none;stroke-width:0.3985;stroke-linecap:butt;stroke-linejoin:miter;stroke:rgb(0%,0%,0%);stroke-opacity:1;stroke-miterlimit:10;" d="M -3.986926 -3.983415 L 3.98593 -3.983415 L 3.98593 3.985385 L -3.986926 3.985385 Z M -3.986926 -3.983415 " transform="matrix(0.962739,0,0,-0.962739,5.092276,17.481417)"/>
<path style="fill:none;stroke-width:0.3985;stroke-linecap:butt;stroke-linejoin:miter;stroke:rgb(0%,0%,0%);stroke-opacity:1;stroke-miterlimit:10;" d="M -3.986926 -3.983415 L 3.98593 -3.983415 L 3.98593 3.985385 L -3.986926 3.985385 Z M -3.986926 -3.983415 " transform="matrix(0.962739,0,0,-0.962739,5.092276,17.481417)"/>
<path style="fill:none;stroke-width:0.3985;stroke-linecap:butt;stroke-linejoin:miter;stroke:rgb(0%,0%,0%);stroke-opacity:1;stroke-miterlimit:10;" d="M -3.986926 -3.983415 L 3.98593 -3.983415 L 3.98593 3.985385 L -3.986926 3.985385 Z M -3.986926 -3.983415 " transform="matrix(0.962739,0,0,-0.962739,5.092276,17.481417)"/>
<path style="fill:none;stroke-width:0.3985;stroke-linecap:butt;stroke-linejoin:miter;stroke:rgb(0%,0%,0%);stroke-opacity:1;stroke-miterlimit:10;" d="M -3.986926 -3.983415 L 3.98593 -3.983415 L 3.98593 3.985385 L -3.986926 3.985385 Z M -3.986926 -3.983415 " transform="matrix(0.962739,0,0,-0.962739,5.092276,17.481417)"/>
<path style="fill:none;stroke-width:0.3985;stroke-linecap:butt;stroke-linejoin:miter;stroke:rgb(0%,0%,0%);stroke-opacity:1;stroke-miterlimit:10;" d="M -3.986926 -3.983415 L 3.98593 -3.983415 L 3.98593 3.985385 L -3.986926 3.985385 Z M -3.986926 -3.983415 " transform="matrix(0.962739,0,0,-0.962739,5.092276,17.481417)"/>
<path style="fill:none;stroke-width:0.3985;stroke-linecap:butt;stroke-linejoin:miter;stroke:rgb(0%,0%,0%);stroke-opacity:1;stroke-miterlimit:10;" d="M -3.986926 -3.983415 L 3.98593 -3.983415 L 3.98593 3.985385 L -3.986926 3.985385 Z M -3.986926 -3.983415 " transform="matrix(0.962739,0,0,-0.962739,5.092276,17.481417)"/>
<path style="fill:none;stroke-width:0.3985;stroke-linecap:butt;stroke-linejoin:miter;stroke:rgb(0%,0%,0%);stroke-opacity:1;stroke-miterlimit:10;" d="M -3.986926 -3.983415 L 3.98593 -3.983415 L 3.98593 3.985385 L -3.986926 3.985385 Z M -3.986926 -3.983415 " transform="matrix(0.962739,0,0,-0.962739,5.092276,17.481417)"/>
<path style="fill:none;stroke-width:0.3985;stroke-linecap:butt;stroke-linejoin:miter;stroke:rgb(0%,0%,0%);stroke-opacity:1;stroke-miterlimit:10;" d="M -3.986926 -3.983415 L 3.98593 -3.983415 L 3.98593 3.985385 L -3.986926 3.985385 Z M -3.986926 -3.983415 " transform="matrix(0.962739,0,0,-0.962739,5.092276,17.481417)"/>
<path style="fill:none;stroke-width:0.3985;stroke-linecap:butt;stroke-linejoin:miter;stroke:rgb(0%,0%,0%);stroke-opacity:1;stroke-miterlimit:10;" d="M -3.986926 -3.983415 L 3.98593 -3.983415 L 3.98593 3.985385 L -3.986926 3.985385 Z M -3.986926 -3.983415 " transform="matrix(0.962739,0,0,-0.962739,5.092276,17.481417)"/>
<path style="fill:none;stroke-width:0.3985;stroke-linecap:butt;stroke-linejoin:miter;stroke:rgb(0%,0%,0%);stroke-opacity:1;stroke-miterlimit:10;" d="M -3.986926 -3.983415 L 3.98593 -3.983415 L 3.98593 3.985385 L -3.986926 3.985385 Z M -3.986926 -3.983415 " transform="matrix(0.962739,0,0,-0.962739,5.092276,17.481417)"/>
<path style="fill:none;stroke-width:0.3985;stroke-linecap:butt;stroke-linejoin:miter;stroke:rgb(0%,0%,0%);stroke-opacity:1;stroke-miterlimit:10;" d="M -3.986926 -3.983415 L 3.98593 -3.983415 L 3.98593 3.985385 L -3.986926 3.985385 Z M -3.986926 -3.983415 " transform="matrix(0.962739,0,0,-0.962739,5.092276,17.481417)"/>
<path style="fill:none;stroke-width:0.3985;stroke-linecap:butt;stroke-linejoin:miter;stroke:rgb(0%,0%,0%);stroke-opacity:1;stroke-miterlimit:10;" d="M -3.986926 -3.983415 L 3.98593 -3.983415 L 3.98593 3.985385 L -3.986926 3.985385 Z M -3.986926 -3.983415 " transform="matrix(0.962739,0,0,-0.962739,5.092276,17.481417)"/>
<path style="fill:none;stroke-width:0.3985;stroke-linecap:butt;stroke-linejoin:miter;stroke:rgb(0%,0%,0%);stroke-opacity:1;stroke-miterlimit:10;" d="M -3.986926 -3.983415 L 3.98593 -3.983415 L 3.98593 3.985385 L -3.986926 3.985385 Z M -3.986926 -3.983415 " transform="matrix(0.962739,0,0,-0.962739,5.092276,17.481417)"/>
<path style="fill:none;stroke-width:0.3985;stroke-linecap:butt;stroke-linejoin:miter;stroke:rgb(0%,0%,0%);stroke-opacity:1;stroke-miterlimit:10;" d="M -3.986926 -3.983415 L 3.98593 -3.983415 L 3.98593 3.985385 L -3.986926 3.985385 Z M -3.986926 -3.983415 " transform="matrix(0.962739,0,0,-0.962739,5.092276,17.481417)"/>
<path style="fill:none;stroke-width:0.3985;stroke-linecap:butt;stroke-linejoin:miter;stroke:rgb(0%,0%,0%);stroke-opacity:1;stroke-miterlimit:10;" d="M -3.986926 -3.983415 L 3.98593 -3.983415 L 3.98593 3.985385 L -3.986926 3.985385 Z M -3.986926 -3.983415 " transform="matrix(0.962739,0,0,-0.962739,5.092276,17.481417)"/>
<path style="fill:none;stroke-width:0.3985;stroke-linecap:butt;stroke-linejoin:miter;stroke:rgb(0%,0%,0%);stroke-opacity:1;stroke-miterlimit:10;" d="M -3.986926 -3.983415 L 3.98593 -3.983415 L 3.98593 3.985385 L -3.986926 3.985385 Z M -3.986926 -3.983415 " transform="matrix(0.962739,0,0,-0.962739,5.092276,17.481417)"/>
<path style="fill:none;stroke-width:0.3985;stroke-linecap:butt;stroke-linejoin:miter;stroke:rgb(0%,0%,0%);stroke-opacity:1;stroke-miterlimit:10;" d="M -3.986926 -3.983415 L 3.98593 -3.983415 L 3.98593 3.985385 L -3.986926 3.985385 Z M -3.986926 -3.983415 " transform="matrix(0.962739,0,0,-0.962739,5.092276,17.481417)"/>
<path style="fill:none;stroke-width:0.3985;stroke-linecap:butt;stroke-linejoin:miter;stroke:rgb(0%,0%,0%);stroke-opacity:1;stroke-miterlimit:10;" d="M -3.986926 -3.983415 L 3.98593 -3.983415 L 3.98593 3.985385 L -3.986926 3.985385 Z M -3.986926 -3.983415 " transform="matrix(0.962739,0,0,-0.962739,5.092276,17.481417)"/>
<path style="fill:none;stroke-width:0.3985;stroke-linecap:butt;stroke-linejoin:miter;stroke:rgb(0%,0%,0%);stroke-opacity:1;stroke-miterlimit:10;" d="M -3.986926 -3.983415 L 3.98593 -3.983415 L 3.98593 3.985385 L -3.986926 3.985385 Z M -3.986926 -3.983415 " transform="matrix(0.962739,0,0,-0.962739,5.092276,17.481417)"/>
<path style="fill:none;stroke-width:0.3985;stroke-linecap:butt;stroke-linejoin:miter;stroke:rgb(0%,0%,0%);stroke-opacity:1;stroke-miterlimit:10;" d="M -3.986926 -3.983415 L 3.98593 -3.983415 L 3.98593 3.985385 L -3.986926 3.985385 Z M -3.986926 -3.983415 " transform="matrix(0.962739,0,0,-0.962739,5.092276,17.481417)"/>
<path style="fill:none;stroke-width:0.3985;stroke-linecap:butt;stroke-linejoin:miter;stroke:rgb(0%,0%,0%);stroke-opacity:1;stroke-miterlimit:10;" d="M -3.986926 -3.983415 L 3.98593 -3.983415 L 3.98593 3.985385 L -3.986926 3.985385 Z M -3.986926 -3.983415 " transform="matrix(0.962739,0,0,-0.962739,5.092276,17.481417)"/>
<path style="fill:none;stroke-width:0.3985;stroke-linecap:butt;stroke-linejoin:miter;stroke:rgb(0%,0%,0%);stroke-opacity:1;stroke-miterlimit:10;" d="M -3.986926 -3.983415 L 3.98593 -3.983415 L 3.98593 3.985385 L -3.986926 3.985385 Z M -3.986926 -3.983415 " transform="matrix(0.962739,0,0,-0.962739,5.092276,17.481417)"/>
<path style="fill:none;stroke-width:0.3985;stroke-linecap:butt;stroke-linejoin:miter;stroke:rgb(0%,0%,0%);stroke-opacity:1;stroke-miterlimit:10;" d="M -3.986926 -3.983415 L 3.98593 -3.983415 L 3.98593 3.985385 L -3.986926 3.985385 Z M -3.986926 -3.983415 " transform="matrix(0.962739,0,0,-0.962739,5.092276,17.481417)"/>
</g>
<path style="fill:none;stroke-width:0.3985;stroke-linecap:butt;stroke-linejoin:miter;stroke:rgb(0%,0%,0%);stroke-opacity:1;stroke-miterlimit:10;" d="M 24.362361 10.189201 L 32.331161 10.189201 L 32.331161 18.158 L 24.362361 18.158 Z M 24.362361 10.189201 " transform="matrix(0.962739,0,0,-0.962739,5.092276,17.481417)"/>
<path style="fill:none;stroke-width:0.3985;stroke-linecap:butt;stroke-linejoin:miter;stroke:rgb(0%,0%,0%);stroke-opacity:1;stroke-miterlimit:10;" d="M 24.362361 10.189201 L 32.331161 10.189201 L 32.331161 18.158 L 24.362361 18.158 Z M 24.362361 10.189201 " transform="matrix(0.962739,0,0,-0.962739,5.092276,17.481417)"/>
<path style="fill:none;stroke-width:0.3985;stroke-linecap:butt;stroke-linejoin:miter;stroke:rgb(0%,0%,0%);stroke-opacity:1;stroke-miterlimit:10;" d="M 24.362361 10.189201 L 32.331161 10.189201 L 32.331161 18.158 L 24.362361 18.158 Z M 24.362361 10.189201 " transform="matrix(0.962739,0,0,-0.962739,5.092276,17.481417)"/>
<path style="fill:none;stroke-width:0.3985;stroke-linecap:butt;stroke-linejoin:miter;stroke:rgb(0%,0%,0%);stroke-opacity:1;stroke-miterlimit:10;" d="M 24.362361 10.189201 L 32.331161 10.189201 L 32.331161 18.158 L 24.362361 18.158 Z M 24.362361 10.189201 " transform="matrix(0.962739,0,0,-0.962739,5.092276,17.481417)"/>
<path style="fill:none;stroke-width:0.3985;stroke-linecap:butt;stroke-linejoin:miter;stroke:rgb(0%,0%,0%);stroke-opacity:1;stroke-miterlimit:10;" d="M 24.362361 10.189201 L 32.331161 10.189201 L 32.331161 18.158 L 24.362361 18.158 Z M 24.362361 10.189201 " transform="matrix(0.962739,0,0,-0.962739,5.092276,17.481417)"/>
<path style="fill:none;stroke-width:0.3985;stroke-linecap:butt;stroke-linejoin:miter;stroke:rgb(0%,0%,0%);stroke-opacity:1;stroke-miterlimit:10;" d="M 24.362361 10.189201 L 32.331161 10.189201 L 32.331161 18.158 L 24.362361 18.158 Z M 24.362361 10.189201 " transform="matrix(0.962739,0,0,-0.962739,5.092276,17.481417)"/>
<path style="fill:none;stroke-width:0.3985;stroke-linecap:butt;stroke-linejoin:miter;stroke:rgb(0%,0%,0%);stroke-opacity:1;stroke-miterlimit:10;" d="M 24.362361 10.189201 L 32.331161 10.189201 L 32.331161 18.158 L 24.362361 18.158 Z M 24.362361 10.189201 " transform="matrix(0.962739,0,0,-0.962739,5.092276,17.481417)"/>
<path style="fill:none;stroke-width:0.3985;stroke-linecap:butt;stroke-linejoin:miter;stroke:rgb(0%,0%,0%);stroke-opacity:1;stroke-miterlimit:10;" d="M 24.362361 10.189201 L 32.331161 10.189201 L 32.331161 18.158 L 24.362361 18.158 Z M 24.362361 10.189201 " transform="matrix(0.962739,0,0,-0.962739,5.092276,17.481417)"/>
<path style="fill:none;stroke-width:0.3985;stroke-linecap:butt;stroke-linejoin:miter;stroke:rgb(0%,0%,0%);stroke-opacity:1;stroke-miterlimit:10;" d="M 24.362361 10.189201 L 32.331161 10.189201 L 32.331161 18.158 L 24.362361 18.158 Z M 24.362361 10.189201 " transform="matrix(0.962739,0,0,-0.962739,5.092276,17.481417)"/>
<path style="fill:none;stroke-width:0.3985;stroke-linecap:butt;stroke-linejoin:miter;stroke:rgb(0%,0%,0%);stroke-opacity:1;stroke-miterlimit:10;" d="M 24.362361 10.189201 L 32.331161 10.189201 L 32.331161 18.158 L 24.362361 18.158 Z M 24.362361 10.189201 " transform="matrix(0.962739,0,0,-0.962739,5.092276,17.481417)"/>
<path style="fill:none;stroke-width:0.3985;stroke-linecap:butt;stroke-linejoin:miter;stroke:rgb(0%,0%,0%);stroke-opacity:1;stroke-miterlimit:10;" d="M 24.362361 10.189201 L 32.331161 10.189201 L 32.331161 18.158 L 24.362361 18.158 Z M 24.362361 10.189201 " transform="matrix(0.962739,0,0,-0.962739,5.092276,17.481417)"/>
<path style="fill:none;stroke-width:0.3985;stroke-linecap:butt;stroke-linejoin:miter;stroke:rgb(0%,0%,0%);stroke-opacity:1;stroke-miterlimit:10;" d="M 24.362361 10.189201 L 32.331161 10.189201 L 32.331161 18.158 L 24.362361 18.158 Z M 24.362361 10.189201 " transform="matrix(0.962739,0,0,-0.962739,5.092276,17.481417)"/>
<path style="fill:none;stroke-width:0.3985;stroke-linecap:butt;stroke-linejoin:miter;stroke:rgb(0%,0%,0%);stroke-opacity:1;stroke-miterlimit:10;" d="M 24.362361 10.189201 L 32.331161 10.189201 L 32.331161 18.158 L 24.362361 18.158 Z M 24.362361 10.189201 " transform="matrix(0.962739,0,0,-0.962739,5.092276,17.481417)"/>
<path style="fill:none;stroke-width:0.3985;stroke-linecap:butt;stroke-linejoin:miter;stroke:rgb(0%,0%,0%);stroke-opacity:1;stroke-miterlimit:10;" d="M 24.362361 10.189201 L 32.331161 10.189201 L 32.331161 18.158 L 24.362361 18.158 Z M 24.362361 10.189201 " transform="matrix(0.962739,0,0,-0.962739,5.092276,17.481417)"/>
<path style="fill:none;stroke-width:0.3985;stroke-linecap:butt;stroke-linejoin:miter;stroke:rgb(0%,0%,0%);stroke-opacity:1;stroke-miterlimit:10;" d="M 24.362361 10.189201 L 32.331161 10.189201 L 32.331161 18.158 L 24.362361 18.158 Z M 24.362361 10.189201 " transform="matrix(0.962739,0,0,-0.962739,5.092276,17.481417)"/>
<path style="fill:none;stroke-width:0.3985;stroke-linecap:butt;stroke-linejoin:miter;stroke:rgb(0%,0%,0%);stroke-opacity:1;stroke-miterlimit:10;" d="M 24.362361 10.189201 L 32.331161 10.189201 L 32.331161 18.158 L 24.362361 18.158 Z M 24.362361 10.189201 " transform="matrix(0.962739,0,0,-0.962739,5.092276,17.481417)"/>
<path style="fill:none;stroke-width:0.3985;stroke-linecap:butt;stroke-linejoin:miter;stroke:rgb(0%,0%,0%);stroke-opacity:1;stroke-miterlimit:10;" d="M 24.362361 10.189201 L 32.331161 10.189201 L 32.331161 18.158 L 24.362361 18.158 Z M 24.362361 10.189201 " transform="matrix(0.962739,0,0,-0.962739,5.092276,17.481417)"/>
<path style="fill:none;stroke-width:0.3985;stroke-linecap:butt;stroke-linejoin:miter;stroke:rgb(0%,0%,0%);stroke-opacity:1;stroke-miterlimit:10;" d="M 24.362361 10.189201 L 32.331161 10.189201 L 32.331161 18.158 L 24.362361 18.158 Z M 24.362361 10.189201 " transform="matrix(0.962739,0,0,-0.962739,5.092276,17.481417)"/>
<path style="fill:none;stroke-width:0.3985;stroke-linecap:butt;stroke-linejoin:miter;stroke:rgb(0%,0%,0%);stroke-opacity:1;stroke-miterlimit:10;" d="M 24.362361 10.189201 L 32.331161 10.189201 L 32.331161 18.158 L 24.362361 18.158 Z M 24.362361 10.189201 " transform="matrix(0.962739,0,0,-0.962739,5.092276,17.481417)"/>
<path style="fill:none;stroke-width:0.3985;stroke-linecap:butt;stroke-linejoin:miter;stroke:rgb(0%,0%,0%);stroke-opacity:1;stroke-miterlimit:10;" d="M 24.362361 10.189201 L 32.331161 10.189201 L 32.331161 18.158 L 24.362361 18.158 Z M 24.362361 10.189201 " transform="matrix(0.962739,0,0,-0.962739,5.092276,17.481417)"/>
<path style="fill:none;stroke-width:0.3985;stroke-linecap:butt;stroke-linejoin:miter;stroke:rgb(0%,0%,0%);stroke-opacity:1;stroke-miterlimit:10;" d="M 24.362361 10.189201 L 32.331161 10.189201 L 32.331161 18.158 L 24.362361 18.158 Z M 24.362361 10.189201 " transform="matrix(0.962739,0,0,-0.962739,5.092276,17.481417)"/>
<path style="fill:none;stroke-width:0.3985;stroke-linecap:butt;stroke-linejoin:miter;stroke:rgb(0%,0%,0%);stroke-opacity:1;stroke-miterlimit:10;" d="M 24.362361 10.189201 L 32.331161 10.189201 L 32.331161 18.158 L 24.362361 18.158 Z M 24.362361 10.189201 " transform="matrix(0.962739,0,0,-0.962739,5.092276,17.481417)"/>
<path style="fill:none;stroke-width:0.3985;stroke-linecap:butt;stroke-linejoin:miter;stroke:rgb(0%,0%,0%);stroke-opacity:1;stroke-miterlimit:10;" d="M 24.362361 10.189201 L 32.331161 10.189201 L 32.331161 18.158 L 24.362361 18.158 Z M 24.362361 10.189201 " transform="matrix(0.962739,0,0,-0.962739,5.092276,17.481417)"/>
<path style="fill:none;stroke-width:0.3985;stroke-linecap:butt;stroke-linejoin:miter;stroke:rgb(0%,0%,0%);stroke-opacity:1;stroke-miterlimit:10;" d="M 24.362361 10.189201 L 32.331161 10.189201 L 32.331161 18.158 L 24.362361 18.158 Z M 24.362361 10.189201 " transform="matrix(0.962739,0,0,-0.962739,5.092276,17.481417)"/>
<g clip-path="url(#clip3)" clip-rule="nonzero">
<path style="fill:none;stroke-width:0.3985;stroke-linecap:butt;stroke-linejoin:miter;stroke:rgb(0%,0%,0%);stroke-opacity:1;stroke-miterlimit:10;" d="M 52.707592 -3.983415 L 60.680449 -3.983415 L 60.680449 3.985385 L 52.707592 3.985385 Z M 52.707592 -3.983415 " transform="matrix(0.962739,0,0,-0.962739,5.092276,17.481417)"/>
<path style="fill:none;stroke-width:0.3985;stroke-linecap:butt;stroke-linejoin:miter;stroke:rgb(0%,0%,0%);stroke-opacity:1;stroke-miterlimit:10;" d="M 52.707592 -3.983415 L 60.680449 -3.983415 L 60.680449 3.985385 L 52.707592 3.985385 Z M 52.707592 -3.983415 " transform="matrix(0.962739,0,0,-0.962739,5.092276,17.481417)"/>
<path style="fill:none;stroke-width:0.3985;stroke-linecap:butt;stroke-linejoin:miter;stroke:rgb(0%,0%,0%);stroke-opacity:1;stroke-miterlimit:10;" d="M 52.707592 -3.983415 L 60.680449 -3.983415 L 60.680449 3.985385 L 52.707592 3.985385 Z M 52.707592 -3.983415 " transform="matrix(0.962739,0,0,-0.962739,5.092276,17.481417)"/>
<path style="fill:none;stroke-width:0.3985;stroke-linecap:butt;stroke-linejoin:miter;stroke:rgb(0%,0%,0%);stroke-opacity:1;stroke-miterlimit:10;" d="M 52.707592 -3.983415 L 60.680449 -3.983415 L 60.680449 3.985385 L 52.707592 3.985385 Z M 52.707592 -3.983415 " transform="matrix(0.962739,0,0,-0.962739,5.092276,17.481417)"/>
<path style="fill:none;stroke-width:0.3985;stroke-linecap:butt;stroke-linejoin:miter;stroke:rgb(0%,0%,0%);stroke-opacity:1;stroke-miterlimit:10;" d="M 52.707592 -3.983415 L 60.680449 -3.983415 L 60.680449 3.985385 L 52.707592 3.985385 Z M 52.707592 -3.983415 " transform="matrix(0.962739,0,0,-0.962739,5.092276,17.481417)"/>
<path style="fill:none;stroke-width:0.3985;stroke-linecap:butt;stroke-linejoin:miter;stroke:rgb(0%,0%,0%);stroke-opacity:1;stroke-miterlimit:10;" d="M 52.707592 -3.983415 L 60.680449 -3.983415 L 60.680449 3.985385 L 52.707592 3.985385 Z M 52.707592 -3.983415 " transform="matrix(0.962739,0,0,-0.962739,5.092276,17.481417)"/>
<path style="fill:none;stroke-width:0.3985;stroke-linecap:butt;stroke-linejoin:miter;stroke:rgb(0%,0%,0%);stroke-opacity:1;stroke-miterlimit:10;" d="M 52.707592 -3.983415 L 60.680449 -3.983415 L 60.680449 3.985385 L 52.707592 3.985385 Z M 52.707592 -3.983415 " transform="matrix(0.962739,0,0,-0.962739,5.092276,17.481417)"/>
<path style="fill:none;stroke-width:0.3985;stroke-linecap:butt;stroke-linejoin:miter;stroke:rgb(0%,0%,0%);stroke-opacity:1;stroke-miterlimit:10;" d="M 52.707592 -3.983415 L 60.680449 -3.983415 L 60.680449 3.985385 L 52.707592 3.985385 Z M 52.707592 -3.983415 " transform="matrix(0.962739,0,0,-0.962739,5.092276,17.481417)"/>
<path style="fill:none;stroke-width:0.3985;stroke-linecap:butt;stroke-linejoin:miter;stroke:rgb(0%,0%,0%);stroke-opacity:1;stroke-miterlimit:10;" d="M 52.707592 -3.983415 L 60.680449 -3.983415 L 60.680449 3.985385 L 52.707592 3.985385 Z M 52.707592 -3.983415 " transform="matrix(0.962739,0,0,-0.962739,5.092276,17.481417)"/>
<path style="fill:none;stroke-width:0.3985;stroke-linecap:butt;stroke-linejoin:miter;stroke:rgb(0%,0%,0%);stroke-opacity:1;stroke-miterlimit:10;" d="M 52.707592 -3.983415 L 60.680449 -3.983415 L 60.680449 3.985385 L 52.707592 3.985385 Z M 52.707592 -3.983415 " transform="matrix(0.962739,0,0,-0.962739,5.092276,17.481417)"/>
<path style="fill:none;stroke-width:0.3985;stroke-linecap:butt;stroke-linejoin:miter;stroke:rgb(0%,0%,0%);stroke-opacity:1;stroke-miterlimit:10;" d="M 52.707592 -3.983415 L 60.680449 -3.983415 L 60.680449 3.985385 L 52.707592 3.985385 Z M 52.707592 -3.983415 " transform="matrix(0.962739,0,0,-0.962739,5.092276,17.481417)"/>
<path style="fill:none;stroke-width:0.3985;stroke-linecap:butt;stroke-linejoin:miter;stroke:rgb(0%,0%,0%);stroke-opacity:1;stroke-miterlimit:10;" d="M 52.707592 -3.983415 L 60.680449 -3.983415 L 60.680449 3.985385 L 52.707592 3.985385 Z M 52.707592 -3.983415 " transform="matrix(0.962739,0,0,-0.962739,5.092276,17.481417)"/>
<path style="fill:none;stroke-width:0.3985;stroke-linecap:butt;stroke-linejoin:miter;stroke:rgb(0%,0%,0%);stroke-opacity:1;stroke-miterlimit:10;" d="M 52.707592 -3.983415 L 60.680449 -3.983415 L 60.680449 3.985385 L 52.707592 3.985385 Z M 52.707592 -3.983415 " transform="matrix(0.962739,0,0,-0.962739,5.092276,17.481417)"/>
<path style="fill:none;stroke-width:0.3985;stroke-linecap:butt;stroke-linejoin:miter;stroke:rgb(0%,0%,0%);stroke-opacity:1;stroke-miterlimit:10;" d="M 52.707592 -3.983415 L 60.680449 -3.983415 L 60.680449 3.985385 L 52.707592 3.985385 Z M 52.707592 -3.983415 " transform="matrix(0.962739,0,0,-0.962739,5.092276,17.481417)"/>
<path style="fill:none;stroke-width:0.3985;stroke-linecap:butt;stroke-linejoin:miter;stroke:rgb(0%,0%,0%);stroke-opacity:1;stroke-miterlimit:10;" d="M 52.707592 -3.983415 L 60.680449 -3.983415 L 60.680449 3.985385 L 52.707592 3.985385 Z M 52.707592 -3.983415 " transform="matrix(0.962739,0,0,-0.962739,5.092276,17.481417)"/>
<path style="fill:none;stroke-width:0.3985;stroke-linecap:butt;stroke-linejoin:miter;stroke:rgb(0%,0%,0%);stroke-opacity:1;stroke-miterlimit:10;" d="M 52.707592 -3.983415 L 60.680449 -3.983415 L 60.680449 3.985385 L 52.707592 3.985385 Z M 52.707592 -3.983415 " transform="matrix(0.962739,0,0,-0.962739,5.092276,17.481417)"/>
<path style="fill:none;stroke-width:0.3985;stroke-linecap:butt;stroke-linejoin:miter;stroke:rgb(0%,0%,0%);stroke-opacity:1;stroke-miterlimit:10;" d="M 52.707592 -3.983415 L 60.680449 -3.983415 L 60.680449 3.985385 L 52.707592 3.985385 Z M 52.707592 -3.983415 " transform="matrix(0.962739,0,0,-0.962739,5.092276,17.481417)"/>
<path style="fill:none;stroke-width:0.3985;stroke-linecap:butt;stroke-linejoin:miter;stroke:rgb(0%,0%,0%);stroke-opacity:1;stroke-miterlimit:10;" d="M 52.707592 -3.983415 L 60.680449 -3.983415 L 60.680449 3.985385 L 52.707592 3.985385 Z M 52.707592 -3.983415 " transform="matrix(0.962739,0,0,-0.962739,5.092276,17.481417)"/>
<path style="fill:none;stroke-width:0.3985;stroke-linecap:butt;stroke-linejoin:miter;stroke:rgb(0%,0%,0%);stroke-opacity:1;stroke-miterlimit:10;" d="M 52.707592 -3.983415 L 60.680449 -3.983415 L 60.680449 3.985385 L 52.707592 3.985385 Z M 52.707592 -3.983415 " transform="matrix(0.962739,0,0,-0.962739,5.092276,17.481417)"/>
<path style="fill:none;stroke-width:0.3985;stroke-linecap:butt;stroke-linejoin:miter;stroke:rgb(0%,0%,0%);stroke-opacity:1;stroke-miterlimit:10;" d="M 52.707592 -3.983415 L 60.680449 -3.983415 L 60.680449 3.985385 L 52.707592 3.985385 Z M 52.707592 -3.983415 " transform="matrix(0.962739,0,0,-0.962739,5.092276,17.481417)"/>
<path style="fill:none;stroke-width:0.3985;stroke-linecap:butt;stroke-linejoin:miter;stroke:rgb(0%,0%,0%);stroke-opacity:1;stroke-miterlimit:10;" d="M 52.707592 -3.983415 L 60.680449 -3.983415 L 60.680449 3.985385 L 52.707592 3.985385 Z M 52.707592 -3.983415 " transform="matrix(0.962739,0,0,-0.962739,5.092276,17.481417)"/>
<path style="fill:none;stroke-width:0.3985;stroke-linecap:butt;stroke-linejoin:miter;stroke:rgb(0%,0%,0%);stroke-opacity:1;stroke-miterlimit:10;" d="M 52.707592 -3.983415 L 60.680449 -3.983415 L 60.680449 3.985385 L 52.707592 3.985385 Z M 52.707592 -3.983415 " transform="matrix(0.962739,0,0,-0.962739,5.092276,17.481417)"/>
<path style="fill:none;stroke-width:0.3985;stroke-linecap:butt;stroke-linejoin:miter;stroke:rgb(0%,0%,0%);stroke-opacity:1;stroke-miterlimit:10;" d="M 52.707592 -3.983415 L 60.680449 -3.983415 L 60.680449 3.985385 L 52.707592 3.985385 Z M 52.707592 -3.983415 " transform="matrix(0.962739,0,0,-0.962739,5.092276,17.481417)"/>
<path style="fill:none;stroke-width:0.3985;stroke-linecap:butt;stroke-linejoin:miter;stroke:rgb(0%,0%,0%);stroke-opacity:1;stroke-miterlimit:10;" d="M 52.707592 -3.983415 L 60.680449 -3.983415 L 60.680449 3.985385 L 52.707592 3.985385 Z M 52.707592 -3.983415 " transform="matrix(0.962739,0,0,-0.962739,5.092276,17.481417)"/>
</g>
<g clip-path="url(#clip4)" clip-rule="nonzero">
<path style="fill:none;stroke-width:0.3985;stroke-linecap:butt;stroke-linejoin:miter;stroke:rgb(0%,0%,0%);stroke-opacity:1;stroke-miterlimit:10;" d="M 81.05688 10.189201 L 89.025679 10.189201 L 89.025679 18.158 L 81.05688 18.158 Z M 81.05688 10.189201 " transform="matrix(0.962739,0,0,-0.962739,5.092276,17.481417)"/>
<path style="fill:none;stroke-width:0.3985;stroke-linecap:butt;stroke-linejoin:miter;stroke:rgb(0%,0%,0%);stroke-opacity:1;stroke-miterlimit:10;" d="M 81.05688 10.189201 L 89.025679 10.189201 L 89.025679 18.158 L 81.05688 18.158 Z M 81.05688 10.189201 " transform="matrix(0.962739,0,0,-0.962739,5.092276,17.481417)"/>
<path style="fill:none;stroke-width:0.3985;stroke-linecap:butt;stroke-linejoin:miter;stroke:rgb(0%,0%,0%);stroke-opacity:1;stroke-miterlimit:10;" d="M 81.05688 10.189201 L 89.025679 10.189201 L 89.025679 18.158 L 81.05688 18.158 Z M 81.05688 10.189201 " transform="matrix(0.962739,0,0,-0.962739,5.092276,17.481417)"/>
<path style="fill:none;stroke-width:0.3985;stroke-linecap:butt;stroke-linejoin:miter;stroke:rgb(0%,0%,0%);stroke-opacity:1;stroke-miterlimit:10;" d="M 81.05688 10.189201 L 89.025679 10.189201 L 89.025679 18.158 L 81.05688 18.158 Z M 81.05688 10.189201 " transform="matrix(0.962739,0,0,-0.962739,5.092276,17.481417)"/>
<path style="fill:none;stroke-width:0.3985;stroke-linecap:butt;stroke-linejoin:miter;stroke:rgb(0%,0%,0%);stroke-opacity:1;stroke-miterlimit:10;" d="M 81.05688 10.189201 L 89.025679 10.189201 L 89.025679 18.158 L 81.05688 18.158 Z M 81.05688 10.189201 " transform="matrix(0.962739,0,0,-0.962739,5.092276,17.481417)"/>
<path style="fill:none;stroke-width:0.3985;stroke-linecap:butt;stroke-linejoin:miter;stroke:rgb(0%,0%,0%);stroke-opacity:1;stroke-miterlimit:10;" d="M 81.05688 10.189201 L 89.025679 10.189201 L 89.025679 18.158 L 81.05688 18.158 Z M 81.05688 10.189201 " transform="matrix(0.962739,0,0,-0.962739,5.092276,17.481417)"/>
<path style="fill:none;stroke-width:0.3985;stroke-linecap:butt;stroke-linejoin:miter;stroke:rgb(0%,0%,0%);stroke-opacity:1;stroke-miterlimit:10;" d="M 81.05688 10.189201 L 89.025679 10.189201 L 89.025679 18.158 L 81.05688 18.158 Z M 81.05688 10.189201 " transform="matrix(0.962739,0,0,-0.962739,5.092276,17.481417)"/>
<path style="fill:none;stroke-width:0.3985;stroke-linecap:butt;stroke-linejoin:miter;stroke:rgb(0%,0%,0%);stroke-opacity:1;stroke-miterlimit:10;" d="M 81.05688 10.189201 L 89.025679 10.189201 L 89.025679 18.158 L 81.05688 18.158 Z M 81.05688 10.189201 " transform="matrix(0.962739,0,0,-0.962739,5.092276,17.481417)"/>
<path style="fill:none;stroke-width:0.3985;stroke-linecap:butt;stroke-linejoin:miter;stroke:rgb(0%,0%,0%);stroke-opacity:1;stroke-miterlimit:10;" d="M 81.05688 10.189201 L 89.025679 10.189201 L 89.025679 18.158 L 81.05688 18.158 Z M 81.05688 10.189201 " transform="matrix(0.962739,0,0,-0.962739,5.092276,17.481417)"/>
<path style="fill:none;stroke-width:0.3985;stroke-linecap:butt;stroke-linejoin:miter;stroke:rgb(0%,0%,0%);stroke-opacity:1;stroke-miterlimit:10;" d="M 81.05688 10.189201 L 89.025679 10.189201 L 89.025679 18.158 L 81.05688 18.158 Z M 81.05688 10.189201 " transform="matrix(0.962739,0,0,-0.962739,5.092276,17.481417)"/>
<path style="fill:none;stroke-width:0.3985;stroke-linecap:butt;stroke-linejoin:miter;stroke:rgb(0%,0%,0%);stroke-opacity:1;stroke-miterlimit:10;" d="M 81.05688 10.189201 L 89.025679 10.189201 L 89.025679 18.158 L 81.05688 18.158 Z M 81.05688 10.189201 " transform="matrix(0.962739,0,0,-0.962739,5.092276,17.481417)"/>
<path style="fill:none;stroke-width:0.3985;stroke-linecap:butt;stroke-linejoin:miter;stroke:rgb(0%,0%,0%);stroke-opacity:1;stroke-miterlimit:10;" d="M 81.05688 10.189201 L 89.025679 10.189201 L 89.025679 18.158 L 81.05688 18.158 Z M 81.05688 10.189201 " transform="matrix(0.962739,0,0,-0.962739,5.092276,17.481417)"/>
<path style="fill:none;stroke-width:0.3985;stroke-linecap:butt;stroke-linejoin:miter;stroke:rgb(0%,0%,0%);stroke-opacity:1;stroke-miterlimit:10;" d="M 81.05688 10.189201 L 89.025679 10.189201 L 89.025679 18.158 L 81.05688 18.158 Z M 81.05688 10.189201 " transform="matrix(0.962739,0,0,-0.962739,5.092276,17.481417)"/>
<path style="fill:none;stroke-width:0.3985;stroke-linecap:butt;stroke-linejoin:miter;stroke:rgb(0%,0%,0%);stroke-opacity:1;stroke-miterlimit:10;" d="M 81.05688 10.189201 L 89.025679 10.189201 L 89.025679 18.158 L 81.05688 18.158 Z M 81.05688 10.189201 " transform="matrix(0.962739,0,0,-0.962739,5.092276,17.481417)"/>
<path style="fill:none;stroke-width:0.3985;stroke-linecap:butt;stroke-linejoin:miter;stroke:rgb(0%,0%,0%);stroke-opacity:1;stroke-miterlimit:10;" d="M 81.05688 10.189201 L 89.025679 10.189201 L 89.025679 18.158 L 81.05688 18.158 Z M 81.05688 10.189201 " transform="matrix(0.962739,0,0,-0.962739,5.092276,17.481417)"/>
<path style="fill:none;stroke-width:0.3985;stroke-linecap:butt;stroke-linejoin:miter;stroke:rgb(0%,0%,0%);stroke-opacity:1;stroke-miterlimit:10;" d="M 81.05688 10.189201 L 89.025679 10.189201 L 89.025679 18.158 L 81.05688 18.158 Z M 81.05688 10.189201 " transform="matrix(0.962739,0,0,-0.962739,5.092276,17.481417)"/>
<path style="fill:none;stroke-width:0.3985;stroke-linecap:butt;stroke-linejoin:miter;stroke:rgb(0%,0%,0%);stroke-opacity:1;stroke-miterlimit:10;" d="M 81.05688 10.189201 L 89.025679 10.189201 L 89.025679 18.158 L 81.05688 18.158 Z M 81.05688 10.189201 " transform="matrix(0.962739,0,0,-0.962739,5.092276,17.481417)"/>
<path style="fill:none;stroke-width:0.3985;stroke-linecap:butt;stroke-linejoin:miter;stroke:rgb(0%,0%,0%);stroke-opacity:1;stroke-miterlimit:10;" d="M 81.05688 10.189201 L 89.025679 10.189201 L 89.025679 18.158 L 81.05688 18.158 Z M 81.05688 10.189201 " transform="matrix(0.962739,0,0,-0.962739,5.092276,17.481417)"/>
<path style="fill:none;stroke-width:0.3985;stroke-linecap:butt;stroke-linejoin:miter;stroke:rgb(0%,0%,0%);stroke-opacity:1;stroke-miterlimit:10;" d="M 81.05688 10.189201 L 89.025679 10.189201 L 89.025679 18.158 L 81.05688 18.158 Z M 81.05688 10.189201 " transform="matrix(0.962739,0,0,-0.962739,5.092276,17.481417)"/>
<path style="fill:none;stroke-width:0.3985;stroke-linecap:butt;stroke-linejoin:miter;stroke:rgb(0%,0%,0%);stroke-opacity:1;stroke-miterlimit:10;" d="M 81.05688 10.189201 L 89.025679 10.189201 L 89.025679 18.158 L 81.05688 18.158 Z M 81.05688 10.189201 " transform="matrix(0.962739,0,0,-0.962739,5.092276,17.481417)"/>
<path style="fill:none;stroke-width:0.3985;stroke-linecap:butt;stroke-linejoin:miter;stroke:rgb(0%,0%,0%);stroke-opacity:1;stroke-miterlimit:10;" d="M 81.05688 10.189201 L 89.025679 10.189201 L 89.025679 18.158 L 81.05688 18.158 Z M 81.05688 10.189201 " transform="matrix(0.962739,0,0,-0.962739,5.092276,17.481417)"/>
<path style="fill:none;stroke-width:0.3985;stroke-linecap:butt;stroke-linejoin:miter;stroke:rgb(0%,0%,0%);stroke-opacity:1;stroke-miterlimit:10;" d="M 81.05688 10.189201 L 89.025679 10.189201 L 89.025679 18.158 L 81.05688 18.158 Z M 81.05688 10.189201 " transform="matrix(0.962739,0,0,-0.962739,5.092276,17.481417)"/>
<path style="fill:none;stroke-width:0.3985;stroke-linecap:butt;stroke-linejoin:miter;stroke:rgb(0%,0%,0%);stroke-opacity:1;stroke-miterlimit:10;" d="M 81.05688 10.189201 L 89.025679 10.189201 L 89.025679 18.158 L 81.05688 18.158 Z M 81.05688 10.189201 " transform="matrix(0.962739,0,0,-0.962739,5.092276,17.481417)"/>
<path style="fill:none;stroke-width:0.3985;stroke-linecap:butt;stroke-linejoin:miter;stroke:rgb(0%,0%,0%);stroke-opacity:1;stroke-miterlimit:10;" d="M 81.05688 10.189201 L 89.025679 10.189201 L 89.025679 18.158 L 81.05688 18.158 Z M 81.05688 10.189201 " transform="matrix(0.962739,0,0,-0.962739,5.092276,17.481417)"/>
</g>
</g>
</svg>
